SplineFontDB: 3.0
FontName: GohuFont-uni-14
FullName: GohuFont
FamilyName: GohuFont
Weight: Medium
Copyright: Copyright by Hugo Chargois - Licensed under the WTFPL - Converted by Guilherme Maeda
UComments: "2015-1-21: Created." 
Version: 001.000
DefaultBaseFilename: gohufont-uni-14
ItalicAngle: 0
UnderlinePosition: 1
UnderlineWidth: 102
Ascent: 1638
Descent: 410
LayerCount: 2
Layer: 0 0 "Back"  1
Layer: 1 0 "Fore"  0
XUID: [1021 509 1242700312 12756898]
FSType: 0
OS2Version: 0
OS2_WeightWidthSlopeOnly: 0
OS2_UseTypoMetrics: 1
CreationTime: 1421861754
ModificationTime: 1421862531
OS2TypoAscent: 0
OS2TypoAOffset: 1
OS2TypoDescent: 0
OS2TypoDOffset: 1
OS2TypoLinegap: 184
OS2WinAscent: 0
OS2WinAOffset: 1
OS2WinDescent: 0
OS2WinDOffset: 1
HheadAscent: 0
HheadAOffset: 1
HheadDescent: 0
HheadDOffset: 1
MarkAttachClasses: 1
DEI: 91125
Encoding: UnicodeBmp
UnicodeInterp: none
NameList: Adobe Glyph List
DisplaySize: 14
AntiAlias: 0
FitToEm: 1
WinInfo: 0 38 12
BeginPrivate: 0
EndPrivate
BeginChars: 65534 838

StartChar: exclam
Encoding: 33 33 1
Width: 1170
VWidth: 0
Flags: HW
HStem: 1 292<439.149 585.436> 1444 20G<439.149 585.436>
VStem: 439 146<0.857422 293.136 439.422 1463.71>
LayerCount: 2
Back
Fore
SplineSet
439 147 m 1
 439 293 l 1
 512 293 l 1
 585 293 l 1
 585 147 l 1
 585 1 l 1
 512 1 l 1
 439 1 l 1
 439 147 l 1
439 952 m 1
 439 1464 l 1
 512 1464 l 1
 585 1464 l 1
 585 952 l 1
 585 439 l 1
 512 439 l 1
 439 439 l 1
 439 952 l 1
EndSplineSet
Validated: 1
EndChar

StartChar: quotedbl
Encoding: 34 34 2
Width: 1170
VWidth: 0
Flags: HW
HStem: 1025 439<292.571 439.149 731.721 878.007>
VStem: 293 147<1024.56 1463.71> 732 146<1024.56 1463.71>
LayerCount: 2
Back
Fore
SplineSet
732 1244 m 1
 732 1464 l 1
 805 1464 l 1
 878 1464 l 1
 878 1244 l 1
 878 1025 l 1
 805 1025 l 1
 732 1025 l 1
 732 1244 l 1
293 1244 m 1
 293 1464 l 1
 366 1464 l 1
 440 1464 l 1
 440 1244 l 1
 440 1025 l 1
 366 1025 l 1
 293 1025 l 1
 293 1244 l 1
EndSplineSet
Validated: 1
EndChar

StartChar: numbersign
Encoding: 35 35 3
Width: 1170
VWidth: 0
Flags: HW
HStem: 1 21G<292.571 439.149 585.436 731.721> 439 146<0 292.571 439.149 585.436 731.721 1024.29> 878 146<0 292.571 439.149 585.436 731.721 1024.29> 1444 20G<292.571 439.149 585.436 731.721>
VStem: 293 147<0.857422 439.422 585.707 878.279 1024.56 1463.71> 585 146<0.857422 439.422 585.707 878.279 1024.56 1463.71>
LayerCount: 2
Back
Fore
SplineSet
293 1244 m 1
 293 1464 l 1
 366 1464 l 1
 440 1464 l 1
 440 1244 l 1
 440 1024 l 1
 512 1024 l 1
 585 1024 l 1
 585 1244 l 1
 585 1464 l 1
 659 1464 l 1
 731 1464 l 1
 731 1244 l 1
 731 1024 l 1
 878 1024 l 1
 1024 1024 l 1
 1024 951 l 1
 1024 878 l 1
 878 878 l 1
 731 878 l 1
 731 732 l 1
 731 585 l 1
 878 585 l 1
 1024 585 l 1
 1024 513 l 1
 1024 439 l 1
 878 439 l 1
 731 439 l 1
 731 220 l 1
 731 1 l 1
 659 1 l 1
 585 1 l 1
 585 220 l 1
 585 439 l 1
 512 439 l 1
 440 439 l 1
 440 220 l 1
 440 1 l 1
 366 1 l 1
 293 1 l 1
 293 220 l 1
 293 439 l 1
 146 439 l 1
 0 439 l 1
 0 513 l 1
 0 585 l 1
 146 585 l 1
 293 585 l 1
 293 732 l 1
 293 878 l 1
 146 878 l 1
 0 878 l 1
 0 951 l 1
 0 1024 l 1
 146 1024 l 1
 293 1024 l 1
 293 1244 l 1
585 732 m 1
 585 878 l 1
 512 878 l 1
 440 878 l 1
 440 732 l 1
 440 585 l 1
 512 585 l 1
 585 585 l 1
 585 732 l 1
EndSplineSet
Validated: 1
EndChar

StartChar: dollar
Encoding: 36 36 4
Width: 1170
VWidth: 0
Flags: HW
HStem: 1 146<146.286 439.149 585.436 878.007> 147 146<0 146.286> 586 146<146.286 439.149 585.436 878.007> 1025 146<878.007 1024.29> 1171 147<146.286 439.149 585.436 878.007>
VStem: 0 146<147.143 293.136 731.993 1170.85> 439 146<-291.714 0.857422 147.143 585.707 731.993 1170.85 1317.43 1610> 878 146<147.143 585.707 1024.56 1170.85>
LayerCount: 2
Back
Fore
SplineSet
439 1464 m 1xaf
 439 1610 l 1
 512 1610 l 1
 585 1610 l 1
 585 1464 l 1
 585 1318 l 1
 732 1318 l 1
 878 1318 l 1xaf
 878 1244 l 1
 878 1171 l 1
 951 1171 l 1
 1024 1171 l 1
 1024 1098 l 1
 1024 1025 l 1
 951 1025 l 1
 878 1025 l 1
 878 1098 l 1
 878 1171 l 1x37
 732 1171 l 1
 585 1171 l 1
 585 951 l 1
 585 732 l 1
 732 732 l 1
 878 732 l 1
 878 659 l 1
 878 586 l 1
 951 586 l 1
 1024 586 l 1
 1024 366 l 1
 1024 147 l 1
 951 147 l 1x6f
 878 147 l 1
 878 74 l 1
 878 1 l 1
 732 1 l 1
 585 1 l 1
 585 -145 l 1
 585 -292 l 1
 512 -292 l 1
 439 -292 l 1
 439 -145 l 1
 439 1 l 1
 293 1 l 1
 146 1 l 1
 146 74 l 1
 146 147 l 1xa7
 73 147 l 1
 0 147 l 1
 0 220 l 1
 0 293 l 1
 73 293 l 1
 146 293 l 1x67
 146 220 l 1
 146 147 l 1
 293 147 l 1
 439 147 l 1
 439 366 l 1
 439 586 l 1
 293 586 l 1
 146 586 l 1
 146 659 l 1
 146 732 l 1
 73 732 l 1
 0 732 l 1
 0 951 l 1
 0 1171 l 1
 73 1171 l 1
 146 1171 l 1
 146 1244 l 1
 146 1318 l 1
 293 1318 l 1
 439 1318 l 1
 439 1464 l 1xaf
439 951 m 1
 439 1171 l 1
 293 1171 l 1
 146 1171 l 1
 146 951 l 1
 146 732 l 1
 293 732 l 1
 439 732 l 1
 439 951 l 1
878 366 m 1
 878 586 l 1
 732 586 l 1
 585 586 l 1
 585 366 l 1
 585 147 l 1
 732 147 l 1
 878 147 l 1
 878 366 l 1
EndSplineSet
Validated: 5
EndChar

StartChar: percent
Encoding: 37 37 5
Width: 1170
VWidth: 0
Flags: HW
HStem: -145 146<585.436 878.007> 1 146<439.149 585.436 878.007 1024.29> 147 292<292.571 439.149> 147 146<585.436 878.007> 439 293<439.149 585.436> 732 293<585.436 731.721> 878 146<146.286 439.149> 1025 146<0 146.286 439.149 585.436> 1171 147<146.286 439.149>
VStem: 0 146<1024.56 1170.85> 146 146<-145.429 147.143> 293 147<147.143 439.422> 439 146<0.857422 147.143 439.422 731.993 1024.56 1170.85> 585 146<731.993 1024.56> 732 146<1024.56 1317.43> 878 146<0.857422 147.143>
LayerCount: 2
Back
Fore
SplineSet
146 1244 m 1x0120
 146 1318 l 1
 293 1318 l 1
 440 1318 l 1x00a8
 440 1244 l 1
 440 1171 l 1
 512 1171 l 1
 585 1171 l 1x0128
 585 1098 l 1
 585 1025 l 1x0428
 659 1025 l 1
 731 1025 l 1x0404
 731 1171 l 1
 731 1318 l 1
 805 1318 l 1
 878 1318 l 1x0482
 878 1171 l 1
 878 1025 l 1
 805 1025 l 1x0102
 731 1025 l 1x0404
 731 878 l 1x0204
 731 732 l 1
 659 732 l 1x0404
 585 732 l 1
 585 586 l 1
 585 439 l 1
 512 439 l 1x0808
 440 439 l 1x2010
 440 293 l 1
 440 147 l 1x4010
 512 147 l 1
 585 147 l 1x4008
 585 220 l 1
 585 293 l 1x1004
 731 293 l 1x1002
 878 293 l 1x1001
 878 220 l 1
 878 147 l 1
 951 147 l 1
 1024 147 l 1
 1024 74 l 1
 1024 1 l 1
 951 1 l 1x4001
 878 1 l 1
 878 -72 l 1
 878 -145 l 1x8001
 731 -145 l 1x8002
 585 -145 l 1
 585 -72 l 1x8004
 585 1 l 1x8008
 512 1 l 1
 440 1 l 1
 440 74 l 1x4008
 440 147 l 1x4010
 366 147 l 1
 292 147 l 1x2020
 292 1 l 1x4020
 292 -145 l 1
 219 -145 l 1
 146 -145 l 1x8020
 146 1 l 1x4020
 146 147 l 1
 219 147 l 1x1020
 292 147 l 1x2020
 292 293 l 1
 292 439 l 1
 366 439 l 1
 440 439 l 1x2010
 440 586 l 1
 440 732 l 1
 512 732 l 1
 585 732 l 1x0808
 585 878 l 1x0a04
 585 1025 l 1x0408
 512 1025 l 1x0108
 440 1025 l 1
 440 951 l 1
 440 878 l 1
 293 878 l 1
 146 878 l 1
 146 951 l 1x0228
 146 1025 l 1x0240
 73 1025 l 1
 0 1025 l 1
 0 1098 l 1
 0 1171 l 1
 73 1171 l 1
 146 1171 l 1x0140
 146 1244 l 1x0120
440 1098 m 1
 440 1171 l 1x0148
 293 1171 l 1x00c8
 146 1171 l 1x0148
 146 1098 l 1
 146 1025 l 1
 293 1025 l 1
 440 1025 l 1x0248
 440 1098 l 1
878 74 m 1x8001
 878 147 l 1x4001
 731 147 l 1x1002
 585 147 l 1x400a
 585 74 l 1
 585 1 l 1
 731 1 l 1x800a
 878 1 l 1
 878 74 l 1x8001
EndSplineSet
Validated: 5
EndChar

StartChar: ampersand
Encoding: 38 38 6
Width: 1170
VWidth: 0
Flags: HW
HStem: 1 146<292.571 731.721 878.007 1024.29> 586 146<585.436 731.721 878.007 1024.29> 732 146<292.571 439.149> 878 146<585.436 731.721> 1025 293<292.571 439.149 731.721 878.007> 1317 146<439.149 731.721>
VStem: 146 146<147.143 731.993> 293 293<731.993 878.279> 293 147<1024.56 1317.43> 439 293<878.279 1024.56 1317.43 1463.71> 585 146<585.707 731.993> 732 146<147.143 585.707 1024.56 1317.43> 878 146<0.857422 147.143 585.707 731.993>
LayerCount: 2
Back
Fore
SplineSet
440 1391 m 1xa840
 440 1463 l 1x8440
 586 1463 l 1x8420
 732 1463 l 1x8440
 732 1391 l 1
 732 1318 l 1x8840
 805 1318 l 1
 878 1318 l 1
 878 1171 l 1
 878 1024 l 1
 805 1024 l 1x8810
 732 1024 l 1
 732 951 l 1
 732 878 l 1x9040
 659 878 l 1
 586 878 l 1
 586 805 l 1
 586 732 l 1xd1
 659 732 l 1
 732 732 l 1
 732 659 l 1
 732 586 l 1xd020
 805 586 l 1
 878 586 l 1xd010
 878 659 l 1
 878 732 l 1
 951 732 l 1
 1024 732 l 1
 1024 659 l 1
 1024 586 l 1xd008
 951 586 l 1
 878 586 l 1
 878 366 l 1
 878 147 l 1xd010
 951 147 l 1
 1024 147 l 1
 1024 74 l 1
 1024 1 l 1
 951 1 l 1
 878 1 l 1
 878 74 l 1xd008
 878 147 l 1
 805 147 l 1
 732 147 l 1
 732 74 l 1
 732 1 l 1
 512 1 l 1
 292 1 l 1
 292 74 l 1xd090
 292 147 l 1
 219 147 l 1
 146 147 l 1
 146 440 l 1
 146 732 l 1
 219 732 l 1
 292 732 l 1xa2
 292 805 l 1
 292 878 l 1xa1
 366 878 l 1
 440 878 l 1
 440 951 l 1xa040
 440 1024 l 1
 366 1024 l 1
 292 1024 l 1
 292 1171 l 1
 292 1318 l 1
 366 1318 l 1
 440 1318 l 1xa880
 440 1391 l 1xa840
732 1171 m 1x9010
 732 1318 l 1x8840
 586 1318 l 1x8420
 440 1318 l 1
 440 1171 l 1
 440 1024 l 1x88a0
 586 1024 l 1x90a0
 732 1024 l 1x9040
 732 1171 l 1x9010
586 659 m 1xc020
 586 732 l 1xc1
 439 732 l 1
 292 732 l 1
 292 440 l 1
 292 147 l 1
 512 147 l 1
 732 147 l 1
 732 366 l 1xa210
 732 586 l 1
 659 586 l 1
 586 586 l 1
 586 659 l 1xc020
EndSplineSet
Validated: 5
EndChar

StartChar: quotesingle
Encoding: 39 39 7
Width: 1170
VWidth: 0
Flags: HW
HStem: 878 585<439.149 585.436>
VStem: 439 146<878.279 1463.71>
LayerCount: 2
Back
Fore
SplineSet
439 1171 m 1
 439 1463 l 1
 512 1463 l 1
 585 1463 l 1
 585 1171 l 1
 585 878 l 1
 512 878 l 1
 439 878 l 1
 439 1171 l 1
EndSplineSet
Validated: 1
EndChar

StartChar: parenleft
Encoding: 40 40 8
Width: 1170
VWidth: 0
Flags: HW
HStem: -292 146<585.436 731.721> -145 146<439.149 585.436> 1 292<292.571 439.149> 878 293<292.571 439.149> 1171 147<439.149 585.436> 1317 146<585.436 731.721>
VStem: 146 146<293.136 878.279> 293 147<0.857422 293.136 878.279 1170.85> 439 146<-145.429 0.857422 1170.85 1317.43> 585 146<-291.714 -145.429 1317.43 1463.71>
LayerCount: 2
Back
Fore
SplineSet
585 1391 m 1x0840
 585 1463 l 1
 659 1463 l 1
 731 1463 l 1
 731 1391 l 1
 731 1318 l 1
 659 1318 l 1x0440
 585 1318 l 1
 585 1244 l 1
 585 1171 l 1
 512 1171 l 1x0880
 440 1171 l 1
 440 1025 l 1
 440 878 l 1x11
 366 878 l 1
 292 878 l 1
 292 586 l 1
 292 293 l 1x32
 366 293 l 1
 440 293 l 1x31
 440 147 l 1
 440 1 l 1x41
 512 1 l 1
 585 1 l 1x4080
 585 -72 l 1
 585 -146 l 1x8080
 659 -146 l 1
 731 -146 l 1
 731 -219 l 1
 731 -292 l 1
 659 -292 l 1
 585 -292 l 1
 585 -219 l 1x8040
 585 -146 l 1x8080
 512 -146 l 1
 440 -146 l 1
 440 -72 l 1x4080
 440 1 l 1x41
 366 1 l 1
 292 1 l 1
 292 147 l 1x21
 292 293 l 1
 219 293 l 1
 146 293 l 1
 146 586 l 1
 146 878 l 1
 219 878 l 1
 292 878 l 1x32
 292 1025 l 1
 292 1171 l 1
 366 1171 l 1
 440 1171 l 1x31
 440 1244 l 1
 440 1318 l 1
 512 1318 l 1
 585 1318 l 1x0880
 585 1391 l 1x0840
EndSplineSet
Validated: 5
EndChar

StartChar: parenright
Encoding: 41 41 9
Width: 1170
VWidth: 0
Flags: HW
HStem: -292 146<292.571 439.149> -145 146<439.149 585.436> 1 292<585.436 731.721> 878 293<585.436 731.721> 1171 147<439.149 585.436> 1317 146<292.571 439.149>
VStem: 293 147<-291.714 -145.429 1317.43 1463.71> 439 146<-145.429 0.857422 1170.85 1317.43> 585 146<0.857422 293.136 878.279 1170.85> 732 146<293.136 878.279>
LayerCount: 2
Back
Fore
SplineSet
293 1391 m 1x06
 293 1463 l 1
 366 1463 l 1
 440 1463 l 1x06
 440 1391 l 1
 440 1318 l 1x0a
 512 1318 l 1
 585 1318 l 1x09
 585 1244 l 1
 585 1171 l 1x11
 659 1171 l 1
 731 1171 l 1
 731 1025 l 1
 731 878 l 1x1080
 805 878 l 1
 878 878 l 1
 878 586 l 1
 878 293 l 1x3040
 805 293 l 1
 731 293 l 1
 731 147 l 1
 731 1 l 1
 659 1 l 1x3080
 585 1 l 1
 585 -72 l 1
 585 -146 l 1
 512 -146 l 1x41
 440 -146 l 1
 440 -219 l 1
 440 -292 l 1
 366 -292 l 1
 293 -292 l 1
 293 -219 l 1
 293 -146 l 1
 366 -146 l 1
 440 -146 l 1x82
 440 -72 l 1
 440 1 l 1
 512 1 l 1
 585 1 l 1x41
 585 147 l 1
 585 293 l 1
 659 293 l 1
 731 293 l 1x2080
 731 586 l 1x2040
 731 878 l 1
 659 878 l 1
 585 878 l 1
 585 1025 l 1x3080
 585 1171 l 1x31
 512 1171 l 1
 440 1171 l 1
 440 1244 l 1x09
 440 1318 l 1x0a
 366 1318 l 1
 293 1318 l 1
 293 1391 l 1x06
EndSplineSet
Validated: 5
EndChar

StartChar: asterisk
Encoding: 42 42 10
Width: 1170
VWidth: 0
Flags: HW
HStem: 293 146<0 146.286 878.007 1024.29> 439 146<146.286 292.571 731.721 878.007> 586 146<292.571 439.149 585.436 731.721> 732 146<146.286 292.571 731.721 878.007> 878 146<0 146.286 878.007 1024.29>
VStem: 0 146<293.136 439.422 878.279 1024.56> 146 146<439.422 585.707 731.993 878.279> 439 146<147.143 585.707 731.993 1170.85> 732 146<439.422 585.707 731.993 878.279> 878 146<293.136 439.422 878.279 1024.56>
LayerCount: 2
Back
Fore
SplineSet
439 951 m 1x23
 439 1171 l 1
 512 1171 l 1
 585 1171 l 1
 585 951 l 1
 585 732 l 1
 659 732 l 1
 732 732 l 1x2380
 732 805 l 1
 732 878 l 1
 805 878 l 1
 878 878 l 1x1380
 878 951 l 1
 878 1024 l 1
 951 1024 l 1
 1024 1024 l 1
 1024 951 l 1
 1024 878 l 1
 951 878 l 1x0940
 878 878 l 1
 878 805 l 1
 878 732 l 1
 805 732 l 1x1180
 732 732 l 1x2180
 732 659 l 1
 732 585 l 1
 805 585 l 1
 878 585 l 1x4180
 878 513 l 1
 878 439 l 1x8180
 951 439 l 1
 1024 439 l 1
 1024 366 l 1
 1024 293 l 1
 951 293 l 1
 878 293 l 1
 878 366 l 1x8140
 878 439 l 1x8180
 805 439 l 1
 732 439 l 1
 732 513 l 1
 732 585 l 1x4180
 659 585 l 1
 585 585 l 1
 585 366 l 1
 585 147 l 1
 512 147 l 1
 439 147 l 1
 439 366 l 1
 439 585 l 1
 366 585 l 1x2180
 292 585 l 1
 292 513 l 1
 292 439 l 1
 219 439 l 1x4380
 146 439 l 1
 146 366 l 1
 146 293 l 1
 73 293 l 1
 0 293 l 1
 0 366 l 1
 0 439 l 1
 73 439 l 1
 146 439 l 1x85
 146 513 l 1
 146 585 l 1
 219 585 l 1
 292 585 l 1x43
 292 659 l 1
 292 732 l 1x23
 219 732 l 1
 146 732 l 1
 146 805 l 1x13
 146 878 l 1x15
 73 878 l 1
 0 878 l 1
 0 951 l 1
 0 1024 l 1
 73 1024 l 1
 146 1024 l 1x0d
 146 951 l 1
 146 878 l 1x15
 219 878 l 1
 292 878 l 1x13
 292 805 l 1
 292 732 l 1
 366 732 l 1
 439 732 l 1
 439 951 l 1x23
EndSplineSet
Validated: 5
EndChar

StartChar: plus
Encoding: 43 43 11
Width: 1170
VWidth: 0
Flags: HW
HStem: 586 146<0 439.149 585.436 1024.29>
VStem: 439 146<147.143 585.707 731.993 1170.85>
LayerCount: 2
Back
Fore
SplineSet
439 951 m 1
 439 1171 l 1
 512 1171 l 1
 585 1171 l 1
 585 951 l 1
 585 732 l 1
 805 732 l 1
 1024 732 l 1
 1024 659 l 1
 1024 586 l 1
 805 586 l 1
 585 586 l 1
 585 366 l 1
 585 147 l 1
 512 147 l 1
 439 147 l 1
 439 366 l 1
 439 586 l 1
 220 586 l 1
 0 586 l 1
 0 659 l 1
 0 732 l 1
 220 732 l 1
 439 732 l 1
 439 951 l 1
EndSplineSet
Validated: 1
EndChar

StartChar: comma
Encoding: 44 44 12
Width: 1170
VWidth: 0
Flags: HW
HStem: -292 146<292.571 439.149> 1 292<292.571 439.149>
VStem: 293 147<-291.714 -145.429> 439 146<-145.429 0.857422>
LayerCount: 2
Back
Fore
SplineSet
293 147 m 1xe0
 293 293 l 1xe0
 439 293 l 1
 585 293 l 1
 585 74 l 1
 585 -146 l 1xd0
 512 -146 l 1
 440 -146 l 1
 440 -219 l 1
 440 -292 l 1
 366 -292 l 1
 293 -292 l 1
 293 -219 l 1
 293 -146 l 1
 366 -146 l 1
 440 -146 l 1xe0
 440 -72 l 1
 440 1 l 1xd0
 366 1 l 1
 293 1 l 1
 293 147 l 1xe0
EndSplineSet
Validated: 5
EndChar

StartChar: hyphen
Encoding: 45 45 13
Width: 1170
VWidth: 0
Flags: HW
HStem: 586 146<146.286 1024.29>
LayerCount: 2
Back
Fore
SplineSet
146 659 m 1
 146 732 l 1
 585 732 l 1
 1024 732 l 1
 1024 659 l 1
 1024 586 l 1
 585 586 l 1
 146 586 l 1
 146 659 l 1
EndSplineSet
Validated: 1
EndChar

StartChar: period
Encoding: 46 46 14
Width: 1170
VWidth: 0
Flags: HW
HStem: 1 292<292.571 585.436>
VStem: 293 293<0.857422 293.136>
LayerCount: 2
Back
Fore
SplineSet
293 147 m 1
 293 293 l 1
 439 293 l 1
 586 293 l 1
 586 147 l 1
 586 1 l 1
 439 1 l 1
 293 1 l 1
 293 147 l 1
EndSplineSet
Validated: 1
EndChar

StartChar: slash
Encoding: 47 47 15
Width: 1170
VWidth: 0
Flags: HW
HStem: -145 293<146.286 292.571> 147 292<292.571 439.149> 439 293<439.149 585.436> 732 293<585.436 731.721> 1025 293<731.721 878.007> 1317 293<878.007 1024.29>
VStem: 146 146<-145.429 147.143> 293 147<147.143 439.422> 439 146<439.422 731.993> 585 146<731.993 1024.56> 732 146<1024.56 1317.43> 878 146<1317.43 1610>
LayerCount: 2
Back
Fore
SplineSet
878 1464 m 1x0810
 878 1610 l 1
 951 1610 l 1
 1024 1610 l 1
 1024 1464 l 1
 1024 1318 l 1
 951 1318 l 1x0410
 878 1318 l 1
 878 1171 l 1
 878 1025 l 1
 805 1025 l 1x0820
 731 1025 l 1
 731 878 l 1
 731 732 l 1
 659 732 l 1x1040
 585 732 l 1
 585 586 l 1
 585 439 l 1
 512 439 l 1x2080
 440 439 l 1
 440 293 l 1
 440 148 l 1
 366 148 l 1x41
 292 148 l 1
 292 1 l 1
 292 -145 l 1
 219 -145 l 1
 146 -145 l 1
 146 1 l 1
 146 148 l 1
 219 148 l 1
 292 148 l 1x82
 292 293 l 1
 292 439 l 1
 366 439 l 1
 440 439 l 1x41
 440 586 l 1
 440 732 l 1
 512 732 l 1
 585 732 l 1x2080
 585 878 l 1
 585 1025 l 1
 659 1025 l 1
 731 1025 l 1x1040
 731 1171 l 1
 731 1318 l 1
 805 1318 l 1
 878 1318 l 1x0820
 878 1464 l 1x0810
EndSplineSet
Validated: 5
EndChar

StartChar: zero
Encoding: 48 48 16
Width: 1170
VWidth: 0
Flags: HW
HStem: 1 146<292.571 878.007> 439 146<292.571 439.149> 586 146<439.149 585.436> 732 146<585.436 731.721> 878 146<731.721 878.007> 1171 147<292.571 878.007>
VStem: 146 293<439.422 585.707> 146 146<147.143 439.422 585.707 1170.85> 439 146<585.707 731.993> 585 146<731.993 878.279> 732 293<878.279 1024.56> 878 146<147.143 878.279 1024.56 1170.85>
LayerCount: 2
Back
Fore
SplineSet
585 805 m 1xa440
 585 878 l 1
 659 878 l 1
 731 878 l 1
 731 805 l 1
 731 732 l 1
 659 732 l 1x9440
 585 732 l 1
 585 659 l 1
 585 585 l 1
 512 585 l 1xa480
 439 585 l 1xc6
 439 659 l 1
 439 732 l 1
 512 732 l 1
 585 732 l 1xa480
 585 805 l 1xa440
292 1244 m 1x8510
 292 1318 l 1
 585 1318 l 1
 878 1318 l 1
 878 1244 l 1
 878 1171 l 1
 951 1171 l 1
 1025 1171 l 1
 1025 659 l 1
 1025 147 l 1
 951 147 l 1
 878 147 l 1
 878 74 l 1
 878 1 l 1
 585 1 l 1
 292 1 l 1
 292 74 l 1
 292 147 l 1
 219 147 l 1
 146 147 l 1
 146 659 l 1
 146 1171 l 1
 219 1171 l 1
 292 1171 l 1
 292 1244 l 1x8510
878 1098 m 1
 878 1171 l 1
 585 1171 l 1
 292 1171 l 1
 292 878 l 1
 292 585 l 1xcd10
 366 585 l 1
 439 585 l 1
 439 513 l 1
 439 439 l 1xce
 366 439 l 1
 292 439 l 1
 292 293 l 1
 292 147 l 1
 585 147 l 1
 878 147 l 1
 878 513 l 1
 878 878 l 1
 805 878 l 1xcd10
 731 878 l 1x9550
 731 951 l 1
 731 1024 l 1x8c20
 805 1024 l 1
 878 1024 l 1x8c10
 878 1098 l 1
EndSplineSet
Validated: 5
EndChar

StartChar: one
Encoding: 49 49 17
Width: 1170
VWidth: 0
Flags: HW
HStem: 1 21G<585.436 731.721> 732 146<146.286 292.571> 878 146<292.571 439.149> 1025 146<439.149 585.436> 1297 20G<585.436 731.721>
VStem: 146 146<731.993 878.279> 293 147<878.279 1024.56> 439 293<1024.56 1170.85> 585 146<0.857422 1024.56 1170.85 1317.43>
LayerCount: 2
Back
Fore
SplineSet
585 1244 m 1x9880
 585 1317 l 1
 659 1317 l 1
 732 1317 l 1
 732 659 l 1
 732 1 l 1
 659 1 l 1
 585 1 l 1
 585 513 l 1
 585 1024 l 1
 512 1024 l 1x9880
 440 1024 l 1
 440 951 l 1
 440 878 l 1
 366 878 l 1xaa80
 292 878 l 1
 292 805 l 1
 292 732 l 1
 219 732 l 1
 146 732 l 1
 146 805 l 1
 146 878 l 1
 219 878 l 1
 292 878 l 1xcc
 292 951 l 1
 292 1024 l 1
 366 1024 l 1
 440 1024 l 1xaa
 440 1098 l 1
 440 1171 l 1x99
 512 1171 l 1
 585 1171 l 1
 585 1244 l 1x9880
EndSplineSet
Validated: 5
EndChar

StartChar: two
Encoding: 50 50 18
Width: 1170
VWidth: 0
Flags: HW
HStem: 1 292<146.286 292.571> 1 146<292.571 1024.29> 293 146<292.571 439.149> 439 146<439.149 585.436> 586 146<585.436 731.721> 732 146<731.721 878.007> 878 293<146.286 292.571 878.007 1024.29> 1171 147<292.571 878.007>
VStem: 146 146<147.143 293.136 878.279 1170.85> 293 147<293.136 439.422> 439 146<439.422 585.707> 585 146<585.707 731.993> 732 146<731.993 878.279> 878 146<878.279 1170.85>
LayerCount: 2
Back
Fore
SplineSet
292 1244 m 1x0240
 292 1318 l 1
 585 1318 l 1
 878 1318 l 1x0144
 878 1244 l 1
 878 1171 l 1
 951 1171 l 1
 1024 1171 l 1
 1024 1025 l 1
 1024 878 l 1
 951 878 l 1x0244
 878 878 l 1
 878 805 l 1
 878 732 l 1
 805 732 l 1x0408
 731 732 l 1
 731 659 l 1
 731 585 l 1
 659 585 l 1x0810
 585 585 l 1
 585 513 l 1
 585 439 l 1
 512 439 l 1x1020
 440 439 l 1
 440 366 l 1
 440 293 l 1
 366 293 l 1x2040
 292 293 l 1x8080
 292 220 l 1
 292 147 l 1
 658 147 l 1
 1024 147 l 1
 1024 74 l 1
 1024 1 l 1
 585 1 l 1x4084
 146 1 l 1
 146 147 l 1
 146 293 l 1
 219 293 l 1
 292 293 l 1x8084
 292 366 l 1
 292 439 l 1
 366 439 l 1
 440 439 l 1x2040
 440 513 l 1
 440 585 l 1
 512 585 l 1
 585 585 l 1x1020
 585 659 l 1
 585 732 l 1
 659 732 l 1
 731 732 l 1x0810
 731 805 l 1
 731 878 l 1
 805 878 l 1
 878 878 l 1x0408
 878 1025 l 1
 878 1171 l 1x0204
 585 1171 l 1x0104
 292 1171 l 1
 292 1025 l 1
 292 878 l 1
 219 878 l 1
 146 878 l 1
 146 1025 l 1
 146 1171 l 1
 219 1171 l 1
 292 1171 l 1x0284
 292 1244 l 1x0240
EndSplineSet
Validated: 5
EndChar

StartChar: three
Encoding: 51 51 19
Width: 1170
VWidth: 0
Flags: HW
HStem: 1 146<292.571 878.007> 147 146<146.286 292.571> 586 146<439.149 878.007> 1025 146<146.286 292.571> 1171 147<292.571 878.007>
VStem: 146 146<147.143 293.136 1024.56 1170.85> 878 146<147.143 585.707 731.993 1170.85>
LayerCount: 2
Back
Fore
SplineSet
292 1244 m 1x36
 292 1318 l 1
 585 1318 l 1
 878 1318 l 1
 878 1244 l 1
 878 1171 l 1
 951 1171 l 1
 1024 1171 l 1
 1024 951 l 1
 1024 732 l 1
 951 732 l 1
 878 732 l 1
 878 659 l 1
 878 586 l 1
 951 586 l 1
 1024 586 l 1
 1024 366 l 1
 1024 147 l 1
 951 147 l 1x6e
 878 147 l 1
 878 74 l 1
 878 1 l 1
 585 1 l 1
 292 1 l 1
 292 74 l 1
 292 147 l 1xa6
 219 147 l 1
 146 147 l 1
 146 220 l 1
 146 293 l 1
 219 293 l 1
 292 293 l 1x66
 292 220 l 1
 292 147 l 1
 585 147 l 1
 878 147 l 1
 878 366 l 1
 878 586 l 1
 659 586 l 1
 439 586 l 1
 439 659 l 1
 439 732 l 1
 659 732 l 1
 878 732 l 1
 878 951 l 1
 878 1171 l 1
 585 1171 l 1xae
 292 1171 l 1
 292 1098 l 1
 292 1025 l 1
 219 1025 l 1
 146 1025 l 1
 146 1098 l 1
 146 1171 l 1
 219 1171 l 1
 292 1171 l 1
 292 1244 l 1x36
EndSplineSet
Validated: 5
EndChar

StartChar: four
Encoding: 52 52 20
Width: 1170
VWidth: 0
Flags: HW
HStem: 1 21G<731.721 878.007> 439 293<146.286 292.571> 439 146<292.571 731.721 878.007 1024.29> 732 146<292.571 439.149> 878 146<439.149 585.436> 1025 146<585.436 731.721> 1297 20G<731.721 878.007>
VStem: 146 146<585.707 731.993> 293 147<731.993 878.279> 439 146<878.279 1024.56> 585 293<1024.56 1170.85> 732 146<0.857422 439.422 585.707 1024.56 1170.85 1317.43>
LayerCount: 2
Back
Fore
SplineSet
732 1244 m 1x8610
 732 1317 l 1
 805 1317 l 1
 878 1317 l 1
 878 952 l 1
 878 585 l 1
 951 585 l 1
 1024 585 l 1
 1024 513 l 1
 1024 439 l 1
 951 439 l 1
 878 439 l 1
 878 220 l 1
 878 1 l 1
 805 1 l 1
 732 1 l 1
 732 220 l 1
 732 439 l 1
 439 439 l 1xa610
 146 439 l 1xc310
 146 585 l 1xa310
 146 732 l 1
 219 732 l 1
 292 732 l 1xc310
 292 805 l 1
 292 878 l 1
 366 878 l 1
 440 878 l 1x9280
 440 951 l 1
 440 1024 l 1
 512 1024 l 1
 585 1024 l 1x8a40
 585 1098 l 1
 585 1171 l 1x8620
 659 1171 l 1
 732 1171 l 1
 732 1244 l 1x8610
732 805 m 1
 732 1024 l 1
 659 1024 l 1xa710
 585 1024 l 1
 585 951 l 1
 585 878 l 1
 512 878 l 1x8b50
 440 878 l 1
 440 805 l 1
 440 732 l 1
 366 732 l 1x9280
 292 732 l 1xc3
 292 659 l 1
 292 585 l 1xa3
 512 585 l 1
 732 585 l 1
 732 805 l 1
EndSplineSet
Validated: 5
EndChar

StartChar: five
Encoding: 53 53 21
Width: 1170
VWidth: 0
Flags: HW
HStem: 1 146<292.571 878.007> 147 146<146.286 292.571> 732 146<292.571 878.007> 1171 147<292.571 1024.29>
VStem: 146 146<147.143 293.136 878.279 1170.85> 878 146<147.143 731.993>
LayerCount: 2
Back
Fore
SplineSet
146 1025 m 1xbc
 146 1318 l 1
 585 1318 l 1
 1024 1318 l 1
 1024 1244 l 1
 1024 1171 l 1
 658 1171 l 1
 292 1171 l 1
 292 1025 l 1
 292 878 l 1
 585 878 l 1
 878 878 l 1
 878 805 l 1
 878 732 l 1
 951 732 l 1
 1024 732 l 1
 1024 440 l 1
 1024 147 l 1
 951 147 l 1x7c
 878 147 l 1
 878 74 l 1
 878 1 l 1
 585 1 l 1
 292 1 l 1
 292 74 l 1
 292 147 l 1xbc
 219 147 l 1
 146 147 l 1
 146 220 l 1
 146 293 l 1
 219 293 l 1
 292 293 l 1x7c
 292 220 l 1
 292 147 l 1
 585 147 l 1
 878 147 l 1
 878 440 l 1
 878 732 l 1
 512 732 l 1
 146 732 l 1
 146 1025 l 1xbc
EndSplineSet
Validated: 5
EndChar

StartChar: six
Encoding: 54 54 22
Width: 1170
VWidth: 0
Flags: HW
HStem: 1 146<292.571 878.007> 732 146<292.571 878.007> 1171 147<292.571 878.007>
VStem: 146 146<147.143 731.993 878.279 1170.85> 878 146<147.143 731.993>
LayerCount: 2
Back
Fore
SplineSet
292 1244 m 1
 292 1318 l 1
 585 1318 l 1
 878 1318 l 1
 878 1244 l 1
 878 1171 l 1
 585 1171 l 1
 292 1171 l 1
 292 1025 l 1
 292 878 l 1
 585 878 l 1
 878 878 l 1
 878 805 l 1
 878 732 l 1
 951 732 l 1
 1024 732 l 1
 1024 440 l 1
 1024 147 l 1
 951 147 l 1
 878 147 l 1
 878 74 l 1
 878 1 l 1
 585 1 l 1
 292 1 l 1
 292 74 l 1
 292 147 l 1
 219 147 l 1
 146 147 l 1
 146 659 l 1
 146 1171 l 1
 219 1171 l 1
 292 1171 l 1
 292 1244 l 1
878 440 m 1
 878 732 l 1
 585 732 l 1
 292 732 l 1
 292 440 l 1
 292 147 l 1
 585 147 l 1
 878 147 l 1
 878 440 l 1
EndSplineSet
Validated: 5
EndChar

StartChar: seven
Encoding: 55 55 23
Width: 1170
VWidth: 0
Flags: HW
HStem: 1 21G<439.149 585.436> 439 293<585.436 731.721> 732 293<731.721 878.007> 1025 293<878.007 1024.29> 1171 147<146.286 878.007>
VStem: 439 146<0.857422 439.422> 585 146<439.422 731.993> 732 146<731.993 1024.56> 878 146<1024.56 1170.85>
LayerCount: 2
Back
Fore
SplineSet
146 1244 m 1xa880
 146 1318 l 1
 585 1318 l 1xa880
 1024 1318 l 1
 1024 1171 l 1
 1024 1025 l 1
 951 1025 l 1x9080
 878 1025 l 1
 878 878 l 1
 878 732 l 1
 805 732 l 1xa1
 731 732 l 1
 731 586 l 1
 731 439 l 1xc2
 659 439 l 1
 585 439 l 1
 585 220 l 1
 585 1 l 1
 512 1 l 1
 439 1 l 1
 439 220 l 1
 439 439 l 1
 512 439 l 1
 585 439 l 1xc4
 585 586 l 1
 585 732 l 1
 659 732 l 1
 731 732 l 1xc2
 731 878 l 1
 731 1025 l 1
 805 1025 l 1
 878 1025 l 1xa1
 878 1098 l 1
 878 1171 l 1
 512 1171 l 1
 146 1171 l 1
 146 1244 l 1xa880
EndSplineSet
Validated: 5
EndChar

StartChar: eight
Encoding: 56 56 24
Width: 1170
VWidth: 0
Flags: HW
HStem: 1 146<292.571 878.007> 147 439<146.286 292.571 878.007 1024.29> 586 146<292.571 878.007> 732 439<146.286 292.571 878.007 1024.29> 1171 147<292.571 878.007>
VStem: 146 146<147.143 585.707 731.993 1170.85> 293 585<0.857422 147.143 585.707 731.993 1170.85 1317.43> 878 146<147.143 585.707 731.993 1170.85>
LayerCount: 2
Back
Fore
SplineSet
292 1244 m 1x12
 292 1318 l 1
 585 1318 l 1
 878 1318 l 1x0a
 878 1244 l 1
 878 1171 l 1x12
 951 1171 l 1
 1024 1171 l 1
 1024 951 l 1
 1024 732 l 1
 951 732 l 1x11
 878 732 l 1x22
 878 659 l 1
 878 586 l 1x42
 951 586 l 1
 1024 586 l 1
 1024 366 l 1
 1024 147 l 1
 951 147 l 1x41
 878 147 l 1
 878 74 l 1
 878 1 l 1
 585 1 l 1
 292 1 l 1
 292 74 l 1x82
 292 147 l 1x84
 219 147 l 1
 146 147 l 1
 146 366 l 1
 146 586 l 1
 219 586 l 1
 292 586 l 1x44
 292 659 l 1x42
 292 732 l 1x24
 219 732 l 1
 146 732 l 1
 146 951 l 1
 146 1171 l 1
 219 1171 l 1
 292 1171 l 1x14
 292 1244 l 1x12
878 951 m 1x21
 878 1171 l 1x12
 585 1171 l 1x0a
 292 1171 l 1x14
 292 951 l 1
 292 732 l 1x24
 585 732 l 1
 878 732 l 1x22
 878 951 l 1x21
878 366 m 1x81
 878 586 l 1x42
 585 586 l 1x22
 292 586 l 1x44
 292 366 l 1
 292 147 l 1x84
 585 147 l 1
 878 147 l 1x82
 878 366 l 1x81
EndSplineSet
Validated: 5
EndChar

StartChar: nine
Encoding: 57 57 25
Width: 1170
VWidth: 0
Flags: HW
HStem: 1 146<292.571 731.721> 147 146<731.721 878.007> 586 146<292.571 878.007> 1171 147<292.571 878.007>
VStem: 146 146<731.993 1170.85> 732 146<147.143 293.136> 878 146<293.136 585.707 731.993 1170.85>
LayerCount: 2
Back
Fore
SplineSet
292 1244 m 1x7a
 292 1318 l 1
 585 1318 l 1
 878 1318 l 1
 878 1244 l 1
 878 1171 l 1
 951 1171 l 1
 1024 1171 l 1
 1024 732 l 1
 1024 293 l 1x7a
 951 293 l 1
 878 293 l 1
 878 220 l 1
 878 147 l 1
 805 147 l 1x7c
 732 147 l 1
 732 74 l 1
 732 1 l 1
 512 1 l 1
 292 1 l 1
 292 74 l 1
 292 147 l 1
 512 147 l 1
 732 147 l 1xbc
 732 220 l 1
 732 293 l 1
 805 293 l 1
 878 293 l 1x7c
 878 439 l 1
 878 586 l 1
 585 586 l 1
 292 586 l 1
 292 659 l 1
 292 732 l 1
 219 732 l 1
 146 732 l 1
 146 951 l 1
 146 1171 l 1
 219 1171 l 1
 292 1171 l 1
 292 1244 l 1x7a
878 951 m 1
 878 1171 l 1
 585 1171 l 1
 292 1171 l 1
 292 951 l 1
 292 732 l 1
 585 732 l 1
 878 732 l 1
 878 951 l 1
EndSplineSet
Validated: 5
EndChar

StartChar: colon
Encoding: 58 58 26
Width: 1170
VWidth: 0
Flags: HW
HStem: 1 292<439.149 731.721> 732 293<439.149 731.721>
VStem: 439 293<0.857422 293.136 731.993 1024.56>
LayerCount: 2
Back
Fore
SplineSet
439 147 m 1
 439 293 l 1
 585 293 l 1
 732 293 l 1
 732 147 l 1
 732 1 l 1
 585 1 l 1
 439 1 l 1
 439 147 l 1
439 878 m 1
 439 1025 l 1
 585 1025 l 1
 732 1025 l 1
 732 878 l 1
 732 732 l 1
 585 732 l 1
 439 732 l 1
 439 878 l 1
EndSplineSet
Validated: 1
EndChar

StartChar: semicolon
Encoding: 59 59 27
Width: 1170
VWidth: 0
Flags: HW
HStem: -292 146<292.571 439.149> 1 292<292.571 439.149> 732 293<292.571 585.436>
VStem: 293 147<-291.714 -145.429> 439 146<-145.429 0.857422>
LayerCount: 2
Back
Fore
SplineSet
293 147 m 1xf0
 293 293 l 1xf0
 439 293 l 1
 585 293 l 1
 585 74 l 1
 585 -146 l 1xe8
 512 -146 l 1
 440 -146 l 1
 440 -219 l 1
 440 -292 l 1
 366 -292 l 1
 293 -292 l 1
 293 -219 l 1
 293 -146 l 1
 366 -146 l 1
 440 -146 l 1xf0
 440 -72 l 1
 440 1 l 1xe8
 366 1 l 1
 293 1 l 1
 293 147 l 1xf0
293 878 m 1
 293 1025 l 1xf0
 439 1025 l 1
 585 1025 l 1
 585 878 l 1
 585 732 l 1xe8
 439 732 l 1
 293 732 l 1
 293 878 l 1
EndSplineSet
Validated: 5
EndChar

StartChar: less
Encoding: 60 60 28
Width: 1170
VWidth: 0
Flags: HW
HStem: -145 146<731.721 878.007> 1 146<585.436 731.721> 147 146<439.149 585.436> 293 146<292.571 439.149> 439 146<146.286 292.571> 586 146<292.571 439.149> 732 146<439.149 585.436> 878 146<585.436 731.721> 1025 146<731.721 878.007>
VStem: 146 146<439.422 585.707> 293 147<293.136 439.422 585.707 731.993> 439 146<147.143 293.136 731.993 878.279> 585 146<0.857422 147.143 878.279 1024.56> 732 146<-145.429 0.857422 1024.56 1170.85>
LayerCount: 2
Back
Fore
SplineSet
731 1098 m 1x0104
 731 1171 l 1
 805 1171 l 1
 878 1171 l 1
 878 1098 l 1
 878 1024 l 1
 805 1024 l 1x0084
 731 1024 l 1
 731 951 l 1
 731 878 l 1
 659 878 l 1x0108
 585 878 l 1
 585 805 l 1
 585 732 l 1
 512 732 l 1x0210
 440 732 l 1
 440 659 l 1
 440 585 l 1
 366 585 l 1x0420
 292 585 l 1x0840
 292 513 l 1
 292 439 l 1x1040
 366 439 l 1
 440 439 l 1x1020
 440 366 l 1
 440 293 l 1x2020
 512 293 l 1
 585 293 l 1x2010
 585 220 l 1
 585 147 l 1x4010
 659 147 l 1
 731 147 l 1x4008
 731 74 l 1
 731 1 l 1x8008
 805 1 l 1
 878 1 l 1
 878 -72 l 1
 878 -145 l 1
 805 -145 l 1
 731 -145 l 1
 731 -72 l 1x8004
 731 1 l 1x8008
 659 1 l 1
 585 1 l 1
 585 74 l 1x4008
 585 147 l 1x4010
 512 147 l 1
 440 147 l 1
 440 220 l 1x2010
 440 293 l 1x2020
 366 293 l 1
 292 293 l 1
 292 366 l 1x1020
 292 439 l 1x1040
 219 439 l 1
 146 439 l 1
 146 513 l 1
 146 585 l 1
 219 585 l 1
 292 585 l 1x0840
 292 659 l 1
 292 732 l 1
 366 732 l 1
 440 732 l 1x0420
 440 805 l 1
 440 878 l 1
 512 878 l 1
 585 878 l 1x0210
 585 951 l 1
 585 1024 l 1
 659 1024 l 1
 731 1024 l 1x0108
 731 1098 l 1x0104
EndSplineSet
Validated: 5
EndChar

StartChar: equal
Encoding: 61 61 29
Width: 1170
VWidth: 0
Flags: HW
HStem: 293 146<146.286 1024.29> 878 146<146.286 1024.29>
LayerCount: 2
Back
Fore
SplineSet
146 366 m 1
 146 439 l 1
 585 439 l 1
 1024 439 l 1
 1024 366 l 1
 1024 293 l 1
 585 293 l 1
 146 293 l 1
 146 366 l 1
146 951 m 1
 146 1024 l 1
 585 1024 l 1
 1024 1024 l 1
 1024 951 l 1
 1024 878 l 1
 585 878 l 1
 146 878 l 1
 146 951 l 1
EndSplineSet
Validated: 1
EndChar

StartChar: greater
Encoding: 62 62 30
Width: 1170
VWidth: 0
Flags: HW
HStem: -145 146<146.286 292.571> 1 146<292.571 439.149> 147 146<439.149 585.436> 293 146<585.436 731.721> 439 146<731.721 878.007> 586 146<585.436 731.721> 732 146<439.149 585.436> 878 146<292.571 439.149> 1025 146<146.286 292.571>
VStem: 146 146<-145.429 0.857422 1024.56 1170.85> 293 147<0.857422 147.143 878.279 1024.56> 439 146<147.143 293.136 731.993 878.279> 585 146<293.136 439.422 585.707 731.993> 732 146<439.422 585.707>
LayerCount: 2
Back
Fore
SplineSet
146 1098 m 1x00c0
 146 1171 l 1
 219 1171 l 1
 292 1171 l 1x00c0
 292 1098 l 1
 292 1024 l 1x0140
 366 1024 l 1
 440 1024 l 1x0120
 440 951 l 1
 440 878 l 1x0220
 512 878 l 1
 585 878 l 1x0210
 585 805 l 1
 585 732 l 1x0410
 659 732 l 1
 731 732 l 1x0408
 731 659 l 1
 731 585 l 1x0808
 805 585 l 1
 878 585 l 1
 878 513 l 1
 878 439 l 1
 805 439 l 1x0804
 731 439 l 1
 731 366 l 1
 731 293 l 1
 659 293 l 1x1008
 585 293 l 1
 585 220 l 1
 585 147 l 1
 512 147 l 1x2010
 440 147 l 1
 440 74 l 1
 440 1 l 1
 366 1 l 1x4020
 292 1 l 1
 292 -72 l 1
 292 -145 l 1
 219 -145 l 1
 146 -145 l 1
 146 -72 l 1
 146 1 l 1
 219 1 l 1
 292 1 l 1x8040
 292 74 l 1
 292 147 l 1
 366 147 l 1
 440 147 l 1x4020
 440 220 l 1
 440 293 l 1
 512 293 l 1
 585 293 l 1x2010
 585 366 l 1
 585 439 l 1
 659 439 l 1
 731 439 l 1x1008
 731 513 l 1x1004
 731 585 l 1x0808
 659 585 l 1
 585 585 l 1
 585 659 l 1x0408
 585 732 l 1x0410
 512 732 l 1
 440 732 l 1
 440 805 l 1x0210
 440 878 l 1x0220
 366 878 l 1
 292 878 l 1
 292 951 l 1x0120
 292 1024 l 1x0140
 219 1024 l 1
 146 1024 l 1
 146 1098 l 1x00c0
EndSplineSet
Validated: 5
EndChar

StartChar: question
Encoding: 63 63 31
Width: 1170
VWidth: 0
Flags: HW
HStem: 1 292<439.149 585.436> 439 146<439.149 585.436> 586 146<585.436 731.721> 732 146<731.721 878.007> 1171 147<146.286 292.571> 1317 146<292.571 878.007>
VStem: 146 146<1170.85 1317.43> 439 146<0.857422 293.136 439.422 585.707> 585 146<585.707 731.993> 732 146<731.993 878.279> 878 146<878.279 1317.43>
LayerCount: 2
Back
Fore
SplineSet
439 147 m 1x83
 439 293 l 1
 512 293 l 1
 585 293 l 1
 585 147 l 1
 585 1 l 1
 512 1 l 1
 439 1 l 1
 439 147 l 1x83
292 1391 m 1
 292 1463 l 1
 585 1463 l 1
 878 1463 l 1
 878 1391 l 1
 878 1318 l 1
 951 1318 l 1
 1024 1318 l 1
 1024 1098 l 1
 1024 878 l 1x9620
 951 878 l 1
 878 878 l 1
 878 805 l 1
 878 732 l 1
 805 732 l 1x9640
 731 732 l 1
 731 659 l 1
 731 585 l 1
 659 585 l 1xa280
 585 585 l 1
 585 513 l 1
 585 439 l 1
 512 439 l 1
 439 439 l 1
 439 513 l 1
 439 585 l 1
 512 585 l 1
 585 585 l 1xc3
 585 659 l 1
 585 732 l 1
 659 732 l 1
 731 732 l 1xa280
 731 805 l 1
 731 878 l 1
 805 878 l 1
 878 878 l 1x9240
 878 1098 l 1
 878 1318 l 1
 585 1318 l 1x9620
 292 1318 l 1
 292 1244 l 1
 292 1171 l 1
 219 1171 l 1
 146 1171 l 1
 146 1244 l 1
 146 1318 l 1
 219 1318 l 1
 292 1318 l 1x8a20
 292 1391 l 1
EndSplineSet
Validated: 6291461
EndChar

StartChar: at
Encoding: 64 64 32
Width: 1170
VWidth: 0
Flags: HW
HStem: 1 146<146.286 1024.29> 293 146<439.149 731.721> 439 146<731.721 878.007> 1025 146<439.149 878.007> 1317 146<146.286 878.007>
VStem: 0 146<147.143 1317.43> 293 147<439.422 1024.56> 439 293<293.136 439.422> 732 293<439.422 585.707> 878 146<293.136 439.422 585.707 1024.56 1170.85 1317.43>
LayerCount: 2
Back
Fore
SplineSet
146 1391 m 1xbd40
 146 1463 l 1
 512 1463 l 1
 878 1463 l 1
 878 1391 l 1
 878 1317 l 1
 951 1317 l 1
 1025 1317 l 1
 1025 805 l 1
 1025 293 l 1
 951 293 l 1
 878 293 l 1xdd40
 878 366 l 1
 878 439 l 1
 805 439 l 1xbd40
 732 439 l 1
 732 366 l 1
 732 293 l 1
 585 293 l 1
 440 293 l 1
 440 366 l 1xdd40
 440 439 l 1xde
 366 439 l 1
 293 439 l 1
 293 732 l 1
 293 1025 l 1
 366 1025 l 1
 440 1025 l 1xbe
 440 1098 l 1
 440 1171 l 1
 659 1171 l 1
 878 1171 l 1
 878 1244 l 1
 878 1317 l 1
 512 1317 l 1
 146 1317 l 1
 146 732 l 1
 146 147 l 1
 585 147 l 1
 1025 147 l 1
 1025 74 l 1
 1025 1 l 1
 585 1 l 1
 146 1 l 1
 146 74 l 1
 146 147 l 1
 73 147 l 1
 0 147 l 1
 0 732 l 1
 0 1317 l 1
 73 1317 l 1
 146 1317 l 1
 146 1391 l 1xbd40
878 805 m 1
 878 1025 l 1
 659 1025 l 1
 440 1025 l 1
 440 732 l 1
 440 439 l 1xde40
 585 439 l 1
 732 439 l 1xdd
 732 513 l 1
 732 585 l 1xbc80
 805 585 l 1
 878 585 l 1xbc40
 878 805 l 1
EndSplineSet
Validated: 5
EndChar

StartChar: A
Encoding: 65 65 33
Width: 1170
VWidth: 0
Flags: HW
HStem: 1 21G<146.286 292.571 878.007 1024.29> 586 146<292.571 878.007> 1171 147<292.571 878.007>
VStem: 146 146<0.857422 585.707 731.993 1170.85> 878 146<0.857422 585.707 731.993 1170.85>
LayerCount: 2
Back
Fore
SplineSet
292 1244 m 1
 292 1318 l 1
 585 1318 l 1
 878 1318 l 1
 878 1244 l 1
 878 1171 l 1
 951 1171 l 1
 1024 1171 l 1
 1024 586 l 1
 1024 1 l 1
 951 1 l 1
 878 1 l 1
 878 293 l 1
 878 586 l 1
 585 586 l 1
 292 586 l 1
 292 293 l 1
 292 1 l 1
 219 1 l 1
 146 1 l 1
 146 586 l 1
 146 1171 l 1
 219 1171 l 1
 292 1171 l 1
 292 1244 l 1
878 951 m 1
 878 1171 l 1
 585 1171 l 1
 292 1171 l 1
 292 951 l 1
 292 732 l 1
 585 732 l 1
 878 732 l 1
 878 951 l 1
EndSplineSet
Validated: 5
EndChar

StartChar: B
Encoding: 66 66 34
Width: 1170
VWidth: 0
Flags: HW
HStem: 1 146<292.571 878.007> 586 146<292.571 878.007> 1171 147<292.571 878.007>
VStem: 146 146<147.143 585.707 731.993 1170.85> 878 146<147.143 585.707 731.993 1170.85>
LayerCount: 2
Back
Fore
SplineSet
146 659 m 1
 146 1318 l 1
 512 1318 l 1
 878 1318 l 1
 878 1244 l 1
 878 1171 l 1
 951 1171 l 1
 1024 1171 l 1
 1024 951 l 1
 1024 732 l 1
 951 732 l 1
 878 732 l 1
 878 659 l 1
 878 586 l 1
 951 586 l 1
 1024 586 l 1
 1024 366 l 1
 1024 147 l 1
 951 147 l 1
 878 147 l 1
 878 74 l 1
 878 1 l 1
 512 1 l 1
 146 1 l 1
 146 659 l 1
878 951 m 1
 878 1171 l 1
 585 1171 l 1
 292 1171 l 1
 292 951 l 1
 292 732 l 1
 585 732 l 1
 878 732 l 1
 878 951 l 1
878 366 m 1
 878 586 l 1
 585 586 l 1
 292 586 l 1
 292 366 l 1
 292 147 l 1
 585 147 l 1
 878 147 l 1
 878 366 l 1
EndSplineSet
Validated: 5
EndChar

StartChar: C
Encoding: 67 67 35
Width: 1170
VWidth: 0
Flags: HW
HStem: 1 146<292.571 878.007> 147 146<878.007 1024.29> 1025 146<878.007 1024.29> 1171 147<292.571 878.007>
VStem: 146 146<147.143 1170.85> 878 146<147.143 293.136 1024.56 1170.85>
LayerCount: 2
Back
Fore
SplineSet
292 1244 m 1x5c
 292 1318 l 1
 585 1318 l 1
 878 1318 l 1x5c
 878 1244 l 1
 878 1171 l 1
 951 1171 l 1
 1024 1171 l 1
 1024 1098 l 1
 1024 1025 l 1
 951 1025 l 1
 878 1025 l 1
 878 1098 l 1
 878 1171 l 1x2c
 585 1171 l 1
 292 1171 l 1
 292 659 l 1
 292 147 l 1
 585 147 l 1
 878 147 l 1x9c
 878 220 l 1
 878 293 l 1
 951 293 l 1
 1024 293 l 1
 1024 220 l 1
 1024 147 l 1
 951 147 l 1x4c
 878 147 l 1
 878 74 l 1
 878 1 l 1
 585 1 l 1
 292 1 l 1
 292 74 l 1
 292 147 l 1x8c
 219 147 l 1
 146 147 l 1
 146 659 l 1
 146 1171 l 1
 219 1171 l 1
 292 1171 l 1
 292 1244 l 1x5c
EndSplineSet
Validated: 5
EndChar

StartChar: D
Encoding: 68 68 36
Width: 1170
VWidth: 0
Flags: HW
HStem: 1 146<292.571 731.721> 147 146<731.721 878.007> 1025 146<731.721 878.007> 1171 147<292.571 731.721>
VStem: 146 146<147.143 1170.85> 732 146<147.143 293.136 1024.56 1170.85> 878 146<293.136 1024.56>
LayerCount: 2
Back
Fore
SplineSet
146 659 m 1x8c
 146 1318 l 1
 439 1318 l 1
 732 1318 l 1x9c
 732 1244 l 1
 732 1171 l 1
 805 1171 l 1
 878 1171 l 1
 878 1098 l 1
 878 1025 l 1x2c
 951 1025 l 1
 1024 1025 l 1
 1024 659 l 1
 1024 293 l 1x6a
 951 293 l 1
 878 293 l 1
 878 220 l 1
 878 147 l 1
 805 147 l 1x6c
 732 147 l 1
 732 74 l 1
 732 1 l 1
 439 1 l 1
 146 1 l 1
 146 659 l 1x8c
732 1098 m 1
 732 1171 l 1x6c
 512 1171 l 1
 292 1171 l 1
 292 659 l 1
 292 147 l 1
 512 147 l 1
 732 147 l 1x9c
 732 220 l 1
 732 293 l 1
 805 293 l 1
 878 293 l 1x4c
 878 659 l 1x4a
 878 1025 l 1
 805 1025 l 1
 732 1025 l 1x6c
 732 1098 l 1
EndSplineSet
Validated: 5
EndChar

StartChar: E
Encoding: 69 69 37
Width: 1170
VWidth: 0
Flags: HW
HStem: 1 146<292.571 1024.29> 586 146<292.571 731.721> 1171 147<292.571 1024.29>
VStem: 146 146<147.143 585.707 731.993 1170.85>
LayerCount: 2
Back
Fore
SplineSet
146 659 m 1
 146 1318 l 1
 585 1318 l 1
 1024 1318 l 1
 1024 1244 l 1
 1024 1171 l 1
 658 1171 l 1
 292 1171 l 1
 292 951 l 1
 292 732 l 1
 512 732 l 1
 732 732 l 1
 732 659 l 1
 732 586 l 1
 512 586 l 1
 292 586 l 1
 292 366 l 1
 292 147 l 1
 658 147 l 1
 1024 147 l 1
 1024 74 l 1
 1024 1 l 1
 585 1 l 1
 146 1 l 1
 146 659 l 1
EndSplineSet
Validated: 1
EndChar

StartChar: F
Encoding: 70 70 38
Width: 1170
VWidth: 0
Flags: HW
HStem: 1 21G<146.286 292.571> 586 146<292.571 731.721> 1171 147<292.571 1024.29>
VStem: 146 146<0.857422 585.707 731.993 1170.85>
LayerCount: 2
Back
Fore
SplineSet
146 659 m 1
 146 1318 l 1
 585 1318 l 1
 1024 1318 l 1
 1024 1244 l 1
 1024 1171 l 1
 658 1171 l 1
 292 1171 l 1
 292 951 l 1
 292 732 l 1
 512 732 l 1
 732 732 l 1
 732 659 l 1
 732 586 l 1
 512 586 l 1
 292 586 l 1
 292 293 l 1
 292 1 l 1
 219 1 l 1
 146 1 l 1
 146 659 l 1
EndSplineSet
Validated: 1
EndChar

StartChar: G
Encoding: 71 71 39
Width: 1170
VWidth: 0
Flags: HW
HStem: 1 146<292.571 878.007> 586 146<585.436 878.007> 1025 146<878.007 1024.29> 1171 147<292.571 878.007>
VStem: 146 146<147.143 1170.85> 878 146<147.143 585.707 1024.56 1170.85>
LayerCount: 2
Back
Fore
SplineSet
292 1244 m 1xdc
 292 1318 l 1
 585 1318 l 1
 878 1318 l 1xdc
 878 1244 l 1
 878 1171 l 1
 951 1171 l 1
 1024 1171 l 1
 1024 1098 l 1
 1024 1025 l 1
 951 1025 l 1
 878 1025 l 1
 878 1098 l 1
 878 1171 l 1xec
 585 1171 l 1
 292 1171 l 1
 292 659 l 1
 292 147 l 1
 585 147 l 1
 878 147 l 1
 878 366 l 1
 878 586 l 1
 732 586 l 1
 585 586 l 1
 585 659 l 1
 585 732 l 1
 805 732 l 1
 1024 732 l 1
 1024 440 l 1
 1024 147 l 1
 951 147 l 1
 878 147 l 1
 878 74 l 1
 878 1 l 1
 585 1 l 1
 292 1 l 1
 292 74 l 1
 292 147 l 1
 219 147 l 1
 146 147 l 1
 146 659 l 1
 146 1171 l 1
 219 1171 l 1
 292 1171 l 1
 292 1244 l 1xdc
EndSplineSet
Validated: 5
EndChar

StartChar: H
Encoding: 72 72 40
Width: 1170
VWidth: 0
Flags: HW
HStem: 1 21G<146.286 292.571 878.007 1024.29> 586 146<292.571 878.007> 1297 20G<146.286 292.571 878.007 1024.29>
VStem: 146 146<0.857422 585.707 731.993 1317.43> 878 146<0.857422 585.707 731.993 1317.43>
LayerCount: 2
Back
Fore
SplineSet
146 659 m 1
 146 1317 l 1
 219 1317 l 1
 292 1317 l 1
 292 1025 l 1
 292 732 l 1
 585 732 l 1
 878 732 l 1
 878 1025 l 1
 878 1317 l 1
 951 1317 l 1
 1024 1317 l 1
 1024 659 l 1
 1024 1 l 1
 951 1 l 1
 878 1 l 1
 878 293 l 1
 878 586 l 1
 585 586 l 1
 292 586 l 1
 292 293 l 1
 292 1 l 1
 219 1 l 1
 146 1 l 1
 146 659 l 1
EndSplineSet
Validated: 1
EndChar

StartChar: I
Encoding: 73 73 41
Width: 1170
VWidth: 0
Flags: HW
HStem: 1 146<292.571 439.149 585.436 731.721> 1171 147<292.571 439.149 585.436 731.721>
VStem: 293 439<0.857422 147.143 1170.85 1317.43> 439 146<147.143 1170.85>
LayerCount: 2
Back
Fore
SplineSet
293 1244 m 1xe0
 293 1318 l 1
 512 1318 l 1
 732 1318 l 1
 732 1244 l 1
 732 1171 l 1xe0
 659 1171 l 1
 585 1171 l 1
 585 659 l 1
 585 147 l 1xd0
 659 147 l 1
 732 147 l 1
 732 74 l 1
 732 1 l 1
 512 1 l 1
 293 1 l 1
 293 74 l 1
 293 147 l 1xe0
 366 147 l 1
 439 147 l 1
 439 659 l 1
 439 1171 l 1xd0
 366 1171 l 1
 293 1171 l 1
 293 1244 l 1xe0
EndSplineSet
Validated: 1
EndChar

StartChar: J
Encoding: 74 74 42
Width: 1170
VWidth: 0
Flags: HW
HStem: 1 146<292.571 878.007> 147 292<146.286 292.571> 1297 20G<878.007 1024.29>
VStem: 146 146<147.143 439.422> 878 146<147.143 1317.43>
LayerCount: 2
Back
Fore
SplineSet
878 732 m 1xb8
 878 1317 l 1
 951 1317 l 1
 1024 1317 l 1
 1024 732 l 1
 1024 147 l 1
 951 147 l 1x78
 878 147 l 1
 878 74 l 1
 878 1 l 1
 585 1 l 1
 292 1 l 1
 292 74 l 1
 292 147 l 1xb8
 219 147 l 1
 146 147 l 1
 146 293 l 1
 146 439 l 1
 219 439 l 1
 292 439 l 1x78
 292 293 l 1
 292 147 l 1
 585 147 l 1
 878 147 l 1
 878 732 l 1xb8
EndSplineSet
Validated: 5
EndChar

StartChar: K
Encoding: 75 75 43
Width: 1170
VWidth: 0
Flags: HW
HStem: 1 146<878.007 1024.29> 147 146<731.721 878.007> 293 146<585.436 731.721> 439 146<439.149 585.436> 586 146<292.571 439.149> 732 146<439.149 585.436> 878 146<585.436 731.721> 1025 146<731.721 878.007> 1171 147<878.007 1024.29>
VStem: 146 293<585.707 731.993> 146 146<0.857422 585.707 731.993 1317.43> 439 146<439.422 585.707 731.993 878.279> 585 146<293.136 439.422 878.279 1024.56> 732 146<147.143 293.136 1024.56 1170.85> 878 146<0.857422 147.143 1170.85 1317.43>
LayerCount: 2
Back
Fore
SplineSet
146 659 m 1x8840
 146 1318 l 1
 219 1318 l 1
 292 1318 l 1
 292 1025 l 1
 292 732 l 1x88a0
 366 732 l 1
 439 732 l 1x88c0
 439 805 l 1
 439 878 l 1
 512 878 l 1
 585 878 l 1x0410
 585 951 l 1
 585 1024 l 1
 659 1024 l 1
 731 1024 l 1x0208
 731 1098 l 1
 731 1171 l 1
 805 1171 l 1
 878 1171 l 1x0104
 878 1244 l 1
 878 1318 l 1
 951 1318 l 1
 1024 1318 l 1
 1024 1244 l 1
 1024 1171 l 1
 951 1171 l 1x0082
 878 1171 l 1
 878 1098 l 1
 878 1024 l 1
 805 1024 l 1x0104
 731 1024 l 1
 731 951 l 1
 731 878 l 1
 659 878 l 1x0208
 585 878 l 1
 585 805 l 1
 585 732 l 1
 512 732 l 1x0410
 439 732 l 1x0840
 439 659 l 1
 439 585 l 1x1040
 512 585 l 1
 585 585 l 1x1010
 585 513 l 1
 585 439 l 1x2010
 659 439 l 1
 731 439 l 1x2008
 731 366 l 1
 731 293 l 1x4008
 805 293 l 1
 878 293 l 1x4004
 878 220 l 1
 878 147 l 1x8004
 951 147 l 1
 1024 147 l 1
 1024 74 l 1
 1024 1 l 1
 951 1 l 1
 878 1 l 1
 878 74 l 1x8002
 878 147 l 1x8004
 805 147 l 1
 731 147 l 1
 731 220 l 1x4004
 731 293 l 1x4008
 659 293 l 1
 585 293 l 1
 585 366 l 1x2008
 585 439 l 1x2010
 512 439 l 1
 439 439 l 1
 439 513 l 1x1010
 439 585 l 1x1040
 366 585 l 1
 292 585 l 1
 292 293 l 1
 292 1 l 1
 219 1 l 1
 146 1 l 1x8820
 146 659 l 1x8840
EndSplineSet
Validated: 5
EndChar

StartChar: L
Encoding: 76 76 44
Width: 1170
VWidth: 0
Flags: HW
HStem: 1 146<292.571 1024.29> 1297 20G<146.286 292.571>
VStem: 146 146<147.143 1317.43>
LayerCount: 2
Back
Fore
SplineSet
146 659 m 1
 146 1317 l 1
 219 1317 l 1
 292 1317 l 1
 292 732 l 1
 292 147 l 1
 658 147 l 1
 1024 147 l 1
 1024 74 l 1
 1024 1 l 1
 585 1 l 1
 146 1 l 1
 146 659 l 1
EndSplineSet
Validated: 1
EndChar

StartChar: M
Encoding: 77 77 45
Width: 1170
VWidth: 0
Flags: HW
HStem: 1 21G<0 146.286 878.007 1024.29> 586 293<439.149 585.436> 878 146<292.571 439.149 585.436 731.721> 1025 146<146.286 292.571 731.721 878.007> 1297 20G<0 146.286 878.007 1024.29>
VStem: 0 293<1024.56 1170.85> 0 146<0.857422 1024.56 1170.85 1317.43> 293 147<878.279 1024.56> 439 146<585.707 878.279> 585 146<878.279 1024.56> 732 293<1024.56 1170.85> 878 146<0.857422 1024.56 1170.85 1317.43>
LayerCount: 2
Back
Fore
SplineSet
0 659 m 1x9a
 0 1317 l 1
 73 1317 l 1
 146 1317 l 1
 146 1244 l 1
 146 1171 l 1x9a
 219 1171 l 1
 293 1171 l 1x9c
 293 1098 l 1
 293 1024 l 1xac
 366 1024 l 1
 440 1024 l 1xa9
 440 951 l 1
 440 879 l 1xc9
 512 879 l 1
 585 879 l 1xc880
 585 951 l 1
 585 1024 l 1
 659 1024 l 1
 731 1024 l 1xa840
 731 1098 l 1
 731 1171 l 1x9820
 805 1171 l 1
 878 1171 l 1
 878 1244 l 1
 878 1317 l 1
 951 1317 l 1
 1025 1317 l 1
 1025 659 l 1
 1025 1 l 1
 951 1 l 1
 878 1 l 1
 878 513 l 1
 878 1024 l 1
 805 1024 l 1x9810
 731 1024 l 1
 731 951 l 1
 731 879 l 1
 659 879 l 1xa850
 585 879 l 1
 585 732 l 1
 585 586 l 1
 512 586 l 1
 440 586 l 1
 440 732 l 1xc880
 440 879 l 1xc9
 366 879 l 1
 293 879 l 1
 293 951 l 1xa9
 293 1024 l 1xac
 219 1024 l 1
 146 1024 l 1
 146 513 l 1
 146 1 l 1
 73 1 l 1
 0 1 l 1
 0 659 l 1x9a
EndSplineSet
Validated: 5
EndChar

StartChar: N
Encoding: 78 78 46
Width: 1170
VWidth: 0
Flags: HW
HStem: 1 292<731.721 878.007> 293 293<585.436 731.721> 586 293<439.149 585.436> 878 293<292.571 439.149> 1297 20G<146.286 292.571 878.007 1024.29>
VStem: 146 293<878.279 1170.85> 146 146<0.857422 878.279 1170.85 1317.43> 439 146<585.707 878.279> 585 146<293.136 585.707> 732 293<0.857422 293.136> 878 146<293.136 1317.43>
LayerCount: 2
Back
Fore
SplineSet
146 659 m 1x9a
 146 1317 l 1
 219 1317 l 1
 292 1317 l 1
 292 1244 l 1
 292 1171 l 1x9a
 366 1171 l 1
 439 1171 l 1x9c
 439 1025 l 1
 439 879 l 1x2c
 512 879 l 1
 585 879 l 1x29
 585 732 l 1
 585 586 l 1x49
 659 586 l 1
 731 586 l 1x4880
 731 439 l 1
 731 293 l 1
 805 293 l 1
 878 293 l 1
 878 805 l 1
 878 1317 l 1
 951 1317 l 1
 1025 1317 l 1
 1025 659 l 1x88a0
 1025 1 l 1x8840
 878 1 l 1x8820
 731 1 l 1
 731 147 l 1x8840
 731 293 l 1x8880
 659 293 l 1
 585 293 l 1
 585 439 l 1x4880
 585 586 l 1x49
 512 586 l 1
 439 586 l 1
 439 732 l 1x29
 439 879 l 1x2c
 366 879 l 1
 292 879 l 1
 292 440 l 1
 292 1 l 1
 219 1 l 1
 146 1 l 1
 146 659 l 1x9a
EndSplineSet
Validated: 5
EndChar

StartChar: O
Encoding: 79 79 47
Width: 1170
VWidth: 0
Flags: HW
HStem: 1 146<292.571 878.007> 1171 147<292.571 878.007>
VStem: 146 146<147.143 1170.85> 878 146<147.143 1170.85>
LayerCount: 2
Back
Fore
SplineSet
292 1244 m 1
 292 1318 l 1
 585 1318 l 1
 878 1318 l 1
 878 1244 l 1
 878 1171 l 1
 951 1171 l 1
 1024 1171 l 1
 1024 659 l 1
 1024 147 l 1
 951 147 l 1
 878 147 l 1
 878 74 l 1
 878 1 l 1
 585 1 l 1
 292 1 l 1
 292 74 l 1
 292 147 l 1
 219 147 l 1
 146 147 l 1
 146 659 l 1
 146 1171 l 1
 219 1171 l 1
 292 1171 l 1
 292 1244 l 1
878 659 m 1
 878 1171 l 1
 585 1171 l 1
 292 1171 l 1
 292 659 l 1
 292 147 l 1
 585 147 l 1
 878 147 l 1
 878 659 l 1
EndSplineSet
Validated: 5
EndChar

StartChar: P
Encoding: 80 80 48
Width: 1170
VWidth: 0
Flags: HW
HStem: 1 21G<146.286 292.571> 586 146<292.571 878.007> 1171 147<292.571 878.007>
VStem: 146 146<0.857422 585.707 731.993 1170.85> 878 146<731.993 1170.85>
LayerCount: 2
Back
Fore
SplineSet
146 659 m 1
 146 1318 l 1
 512 1318 l 1
 878 1318 l 1
 878 1244 l 1
 878 1171 l 1
 951 1171 l 1
 1024 1171 l 1
 1024 951 l 1
 1024 732 l 1
 951 732 l 1
 878 732 l 1
 878 659 l 1
 878 586 l 1
 585 586 l 1
 292 586 l 1
 292 293 l 1
 292 1 l 1
 219 1 l 1
 146 1 l 1
 146 659 l 1
878 951 m 1
 878 1171 l 1
 585 1171 l 1
 292 1171 l 1
 292 951 l 1
 292 732 l 1
 585 732 l 1
 878 732 l 1
 878 951 l 1
EndSplineSet
Validated: 5
EndChar

StartChar: Q
Encoding: 81 81 49
Width: 1170
VWidth: 0
Flags: HW
HStem: -145 293<878.007 1024.29> 1 146<292.571 731.721> 147 146<731.721 878.007> 293 293<585.436 731.721> 1171 147<292.571 878.007>
VStem: 146 146<147.143 1170.85> 585 146<293.136 585.707> 732 146<147.143 293.136> 878 146<-145.429 147.143 293.136 1170.85>
LayerCount: 2
Back
Fore
SplineSet
585 439 m 1x1e
 585 586 l 1
 659 586 l 1
 731 586 l 1x1e
 731 439 l 1
 731 293 l 1x2e
 659 293 l 1
 585 293 l 1
 585 439 l 1x1e
292 1244 m 1
 292 1318 l 1
 585 1318 l 1
 878 1318 l 1
 878 1244 l 1
 878 1171 l 1
 951 1171 l 1
 1024 1171 l 1
 1024 732 l 1
 1024 293 l 1
 951 293 l 1x1c80
 878 293 l 1x2d
 878 220 l 1
 878 148 l 1x8d
 951 148 l 1
 1024 148 l 1x8c80
 1024 1 l 1x4c80
 1024 -145 l 1
 951 -145 l 1
 878 -145 l 1x8c80
 878 1 l 1x4c80
 878 148 l 1x8d
 805 148 l 1x2d
 731 148 l 1
 731 74 l 1
 731 1 l 1
 512 1 l 1
 292 1 l 1
 292 74 l 1
 292 148 l 1x4d
 219 148 l 1
 146 148 l 1x2d
 146 659 l 1
 146 1171 l 1
 219 1171 l 1
 292 1171 l 1
 292 1244 l 1
878 732 m 1
 878 1171 l 1x2c80
 585 1171 l 1
 292 1171 l 1
 292 659 l 1
 292 148 l 1
 512 148 l 1
 731 148 l 1
 731 220 l 1x4d
 731 293 l 1x2e
 805 293 l 1
 878 293 l 1x2d
 878 732 l 1
EndSplineSet
Validated: 5
EndChar

StartChar: R
Encoding: 82 82 50
Width: 1170
VWidth: 0
Flags: HW
HStem: 1 292<878.007 1024.29> 293 146<731.721 878.007> 439 293<585.436 731.721> 586 146<292.571 585.436 731.721 878.007> 1171 147<292.571 878.007>
VStem: 146 146<0.857422 585.707 731.993 1170.85> 585 146<439.422 585.707> 732 146<293.136 439.422> 878 146<0.857422 293.136 731.993 1170.85>
LayerCount: 2
Back
Fore
SplineSet
146 659 m 1x9e
 146 1318 l 1
 512 1318 l 1
 878 1318 l 1
 878 1244 l 1
 878 1171 l 1
 951 1171 l 1
 1024 1171 l 1
 1024 951 l 1
 1024 732 l 1
 951 732 l 1
 878 732 l 1
 878 659 l 1
 878 586 l 1
 805 586 l 1
 731 586 l 1
 731 513 l 1
 731 439 l 1x5e80
 805 439 l 1
 878 439 l 1x5d
 878 366 l 1
 878 293 l 1x8d
 951 293 l 1
 1024 293 l 1
 1024 147 l 1
 1024 1 l 1
 951 1 l 1
 878 1 l 1
 878 147 l 1x8c80
 878 293 l 1x8d
 805 293 l 1
 731 293 l 1
 731 366 l 1x4d
 731 439 l 1x4e
 659 439 l 1
 585 439 l 1x2e
 585 513 l 1
 585 586 l 1
 439 586 l 1
 292 586 l 1
 292 293 l 1
 292 1 l 1
 219 1 l 1
 146 1 l 1
 146 659 l 1x9e
878 951 m 1
 878 1171 l 1
 585 1171 l 1
 292 1171 l 1
 292 951 l 1
 292 732 l 1
 585 732 l 1
 878 732 l 1
 878 951 l 1
EndSplineSet
Validated: 5
EndChar

StartChar: S
Encoding: 83 83 51
Width: 1170
VWidth: 0
Flags: HW
HStem: 1 146<292.571 878.007> 147 146<146.286 292.571> 586 146<292.571 878.007> 1025 146<878.007 1024.29> 1171 147<292.571 878.007>
VStem: 146 146<147.143 293.136 731.993 1170.85> 293 585<0.857422 147.143 585.707 731.993 1170.85 1317.43> 878 146<147.143 585.707 1024.56 1170.85>
LayerCount: 2
Back
Fore
SplineSet
292 1244 m 1xaa
 292 1318 l 1
 585 1318 l 1
 878 1318 l 1xaa
 878 1244 l 1
 878 1171 l 1x32
 951 1171 l 1
 1024 1171 l 1
 1024 1098 l 1
 1024 1025 l 1
 951 1025 l 1
 878 1025 l 1
 878 1098 l 1x31
 878 1171 l 1x32
 585 1171 l 1
 292 1171 l 1
 292 951 l 1
 292 732 l 1x2c
 585 732 l 1
 878 732 l 1
 878 659 l 1
 878 586 l 1x2a
 951 586 l 1
 1024 586 l 1
 1024 366 l 1
 1024 147 l 1
 951 147 l 1x69
 878 147 l 1
 878 74 l 1
 878 1 l 1
 585 1 l 1
 292 1 l 1
 292 74 l 1xa2
 292 147 l 1xa4
 219 147 l 1
 146 147 l 1
 146 220 l 1
 146 293 l 1
 219 293 l 1
 292 293 l 1x64
 292 220 l 1
 292 147 l 1xa4
 585 147 l 1
 878 147 l 1xa2
 878 366 l 1xa1
 878 586 l 1
 585 586 l 1
 292 586 l 1
 292 659 l 1xa2
 292 732 l 1
 219 732 l 1
 146 732 l 1
 146 951 l 1
 146 1171 l 1
 219 1171 l 1
 292 1171 l 1xac
 292 1244 l 1xaa
EndSplineSet
Validated: 5
EndChar

StartChar: T
Encoding: 84 84 52
Width: 1170
VWidth: 0
Flags: HW
HStem: 1 21G<439.149 585.436> 1171 147<0 439.149 585.436 1024.29>
VStem: 439 146<0.857422 1170.85>
LayerCount: 2
Back
Fore
SplineSet
0 1244 m 1
 0 1318 l 1
 512 1318 l 1
 1024 1318 l 1
 1024 1244 l 1
 1024 1171 l 1
 805 1171 l 1
 585 1171 l 1
 585 586 l 1
 585 1 l 1
 512 1 l 1
 439 1 l 1
 439 586 l 1
 439 1171 l 1
 220 1171 l 1
 0 1171 l 1
 0 1244 l 1
EndSplineSet
Validated: 1
EndChar

StartChar: U
Encoding: 85 85 53
Width: 1170
VWidth: 0
Flags: HW
HStem: 1 146<292.571 878.007> 1297 20G<146.286 292.571 878.007 1024.29>
VStem: 146 146<147.143 1317.43> 878 146<147.143 1317.43>
LayerCount: 2
Back
Fore
SplineSet
146 732 m 1
 146 1317 l 1
 219 1317 l 1
 292 1317 l 1
 292 732 l 1
 292 147 l 1
 585 147 l 1
 878 147 l 1
 878 732 l 1
 878 1317 l 1
 951 1317 l 1
 1024 1317 l 1
 1024 732 l 1
 1024 147 l 1
 951 147 l 1
 878 147 l 1
 878 74 l 1
 878 1 l 1
 585 1 l 1
 292 1 l 1
 292 74 l 1
 292 147 l 1
 219 147 l 1
 146 147 l 1
 146 732 l 1
EndSplineSet
Validated: 5
EndChar

StartChar: V
Encoding: 86 86 54
Width: 1170
VWidth: 0
Flags: HW
HStem: 1 292<439.149 731.721> 293 439<292.571 439.149 731.721 878.007> 1297 20G<146.286 292.571 878.007 1024.29>
VStem: 146 146<731.993 1317.43> 293 147<293.136 731.993> 439 293<0.857422 293.136> 732 146<293.136 731.993> 878 146<731.993 1317.43>
LayerCount: 2
Back
Fore
SplineSet
146 1025 m 1x70
 146 1317 l 1
 219 1317 l 1
 292 1317 l 1
 292 1025 l 1
 292 732 l 1x70
 366 732 l 1
 440 732 l 1x68
 440 513 l 1
 440 293 l 1xa8
 585 293 l 1
 732 293 l 1xa4
 732 513 l 1
 732 732 l 1
 805 732 l 1
 878 732 l 1x62
 878 1025 l 1
 878 1317 l 1
 951 1317 l 1
 1024 1317 l 1
 1024 1025 l 1
 1024 732 l 1x61
 951 732 l 1
 878 732 l 1
 878 513 l 1
 878 293 l 1
 805 293 l 1x62
 732 293 l 1
 732 147 l 1
 732 1 l 1
 585 1 l 1
 440 1 l 1
 440 147 l 1xa4
 440 293 l 1xa8
 366 293 l 1
 292 293 l 1
 292 513 l 1x68
 292 732 l 1
 219 732 l 1
 146 732 l 1
 146 1025 l 1x70
EndSplineSet
Validated: 5
EndChar

StartChar: W
Encoding: 87 87 55
Width: 1170
VWidth: 0
Flags: HW
HStem: 1 439<146.286 292.571 731.721 878.007> 439 146<292.571 439.149 585.436 731.721> 1005 20G<439.149 585.436> 1297 20G<0 146.286 878.007 1024.29>
VStem: 0 146<439.422 1317.43> 146 146<0.857422 439.422> 293 147<439.422 585.707> 439 146<585.707 1024.56> 585 146<439.422 585.707> 732 146<0.857422 439.422> 878 146<439.422 1317.43>
LayerCount: 2
Back
Fore
SplineSet
0 878 m 1x78
 0 1317 l 1
 73 1317 l 1
 146 1317 l 1
 146 878 l 1
 146 440 l 1xb8
 219 440 l 1
 292 440 l 1xb4
 292 513 l 1
 292 585 l 1
 366 585 l 1
 440 585 l 1x72
 440 805 l 1
 440 1025 l 1
 512 1025 l 1
 585 1025 l 1
 585 805 l 1
 585 585 l 1x71
 659 585 l 1
 731 585 l 1x7080
 731 513 l 1
 731 440 l 1xb080
 805 440 l 1
 878 440 l 1xb040
 878 878 l 1
 878 1317 l 1
 951 1317 l 1
 1024 1317 l 1
 1024 878 l 1
 1024 440 l 1
 951 440 l 1x7020
 878 440 l 1
 878 220 l 1
 878 1 l 1
 805 1 l 1
 731 1 l 1
 731 220 l 1xb040
 731 440 l 1xb080
 659 440 l 1
 585 440 l 1
 585 513 l 1x7080
 585 585 l 1x71
 512 585 l 1
 440 585 l 1
 440 513 l 1
 440 440 l 1
 366 440 l 1x72
 292 440 l 1
 292 220 l 1
 292 1 l 1
 219 1 l 1
 146 1 l 1
 146 220 l 1xb4
 146 440 l 1xb8
 73 440 l 1
 0 440 l 1
 0 878 l 1x78
EndSplineSet
Validated: 5
EndChar

StartChar: X
Encoding: 88 88 56
Width: 1170
VWidth: 0
Flags: HW
HStem: 1 292<146.286 292.571 878.007 1024.29> 293 293<292.571 439.149 731.721 878.007> 586 146<439.149 731.721> 732 293<292.571 439.149 731.721 878.007> 1025 293<146.286 292.571 878.007 1024.29>
VStem: 146 146<0.857422 293.136 1024.56 1317.43> 293 147<293.136 585.707 731.993 1024.56> 439 293<585.707 731.993> 732 146<293.136 585.707 731.993 1024.56> 878 146<0.857422 293.136 1024.56 1317.43>
LayerCount: 2
Back
Fore
SplineSet
146 1171 m 1x0c
 146 1318 l 1
 219 1318 l 1
 292 1318 l 1x0c
 292 1171 l 1
 292 1025 l 1x14
 366 1025 l 1
 440 1025 l 1x12
 440 878 l 1
 440 732 l 1x22
 585 732 l 1
 732 732 l 1x21
 732 878 l 1
 732 1025 l 1
 805 1025 l 1
 878 1025 l 1x1080
 878 1171 l 1
 878 1318 l 1
 951 1318 l 1
 1024 1318 l 1
 1024 1171 l 1
 1024 1025 l 1
 951 1025 l 1x0840
 878 1025 l 1
 878 878 l 1
 878 732 l 1
 805 732 l 1x1080
 732 732 l 1x21
 732 659 l 1
 732 586 l 1x41
 805 586 l 1
 878 586 l 1x4080
 878 439 l 1
 878 293 l 1x8080
 951 293 l 1
 1024 293 l 1
 1024 147 l 1
 1024 1 l 1
 951 1 l 1
 878 1 l 1
 878 147 l 1x8040
 878 293 l 1x8080
 805 293 l 1
 732 293 l 1
 732 439 l 1x4080
 732 586 l 1x41
 585 586 l 1x21
 440 586 l 1
 440 439 l 1
 440 293 l 1
 366 293 l 1x42
 292 293 l 1
 292 147 l 1
 292 1 l 1
 219 1 l 1
 146 1 l 1
 146 147 l 1
 146 293 l 1
 219 293 l 1
 292 293 l 1x84
 292 439 l 1
 292 586 l 1
 366 586 l 1
 440 586 l 1x42
 440 659 l 1x41
 440 732 l 1x22
 366 732 l 1
 292 732 l 1
 292 878 l 1x12
 292 1025 l 1x14
 219 1025 l 1
 146 1025 l 1
 146 1171 l 1x0c
EndSplineSet
Validated: 5
EndChar

StartChar: Y
Encoding: 89 89 57
Width: 1170
VWidth: 0
Flags: HW
HStem: 1 21G<439.149 585.436> 586 146<292.571 439.149 585.436 731.721> 732 293<146.286 292.571 731.721 878.007> 1025 293<0 146.286 878.007 1024.29>
VStem: 0 146<1024.56 1317.43> 146 146<731.993 1024.56> 293 147<585.707 731.993> 439 146<0.857422 585.707> 585 146<585.707 731.993> 732 146<731.993 1024.56> 878 146<1024.56 1317.43>
LayerCount: 2
Back
Fore
SplineSet
0 1171 m 1x98
 0 1318 l 1
 73 1318 l 1
 146 1318 l 1x98
 146 1171 l 1
 146 1025 l 1xa8
 219 1025 l 1
 292 1025 l 1xa4
 292 878 l 1
 292 732 l 1xc4
 366 732 l 1
 440 732 l 1
 440 659 l 1
 440 586 l 1xc2
 512 586 l 1
 585 586 l 1xc1
 585 659 l 1
 585 732 l 1
 659 732 l 1
 731 732 l 1xc080
 731 878 l 1
 731 1025 l 1
 805 1025 l 1
 878 1025 l 1xa040
 878 1171 l 1
 878 1318 l 1
 951 1318 l 1
 1024 1318 l 1
 1024 1171 l 1
 1024 1025 l 1
 951 1025 l 1x9020
 878 1025 l 1
 878 878 l 1
 878 732 l 1
 805 732 l 1xa040
 731 732 l 1
 731 659 l 1
 731 586 l 1xc080
 659 586 l 1
 585 586 l 1
 585 293 l 1
 585 1 l 1
 512 1 l 1
 440 1 l 1
 440 293 l 1xc1
 440 586 l 1
 366 586 l 1
 292 586 l 1
 292 659 l 1xc2
 292 732 l 1xc4
 219 732 l 1
 146 732 l 1
 146 878 l 1xa4
 146 1025 l 1xa8
 73 1025 l 1
 0 1025 l 1
 0 1171 l 1x98
EndSplineSet
Validated: 5
EndChar

StartChar: Z
Encoding: 90 90 58
Width: 1170
VWidth: 0
Flags: HW
HStem: 1 146<292.571 1024.29> 439 146<292.571 439.149> 586 146<439.149 585.436> 732 146<585.436 731.721> 878 146<731.721 878.007> 1025 293<878.007 1024.29> 1171 147<146.286 878.007>
VStem: 146 146<147.143 439.422> 293 147<439.422 585.707> 439 146<585.707 731.993> 585 146<731.993 878.279> 732 146<878.279 1024.56> 878 146<1024.56 1170.85>
LayerCount: 2
Back
Fore
SplineSet
146 1244 m 1x8b08
 146 1318 l 1
 585 1318 l 1x8b08
 1024 1318 l 1
 1024 1171 l 1
 1024 1024 l 1
 951 1024 l 1x8508
 878 1024 l 1
 878 951 l 1
 878 878 l 1
 805 878 l 1x8810
 731 878 l 1
 731 805 l 1
 731 732 l 1
 659 732 l 1x9020
 585 732 l 1
 585 659 l 1
 585 585 l 1
 512 585 l 1xa040
 440 585 l 1
 440 513 l 1
 440 439 l 1xc080
 366 439 l 1
 292 439 l 1
 292 293 l 1
 292 147 l 1
 658 147 l 1
 1024 147 l 1
 1024 74 l 1
 1024 1 l 1
 585 1 l 1
 146 1 l 1
 146 220 l 1
 146 439 l 1
 219 439 l 1
 292 439 l 1xc108
 292 513 l 1
 292 585 l 1
 366 585 l 1
 440 585 l 1xc080
 440 659 l 1
 440 732 l 1
 512 732 l 1
 585 732 l 1xa040
 585 805 l 1
 585 878 l 1
 659 878 l 1
 731 878 l 1x9020
 731 951 l 1
 731 1024 l 1
 805 1024 l 1
 878 1024 l 1x8810
 878 1098 l 1
 878 1171 l 1
 512 1171 l 1
 146 1171 l 1
 146 1244 l 1x8b08
EndSplineSet
Validated: 5
EndChar

StartChar: bracketleft
Encoding: 91 91 59
Width: 1170
VWidth: 0
Flags: HW
HStem: -145 146<585.436 878.007> 1317 146<585.436 878.007>
VStem: 439 439<-145.429 0.857422 1317.43 1463.71> 439 146<0.857422 1317.43>
LayerCount: 2
Back
Fore
SplineSet
439 659 m 1xd0
 439 1463 l 1
 659 1463 l 1
 878 1463 l 1
 878 1391 l 1
 878 1317 l 1xe0
 732 1317 l 1
 585 1317 l 1
 585 659 l 1
 585 1 l 1xd0
 732 1 l 1
 878 1 l 1
 878 -72 l 1
 878 -145 l 1
 659 -145 l 1
 439 -145 l 1xe0
 439 659 l 1xd0
EndSplineSet
Validated: 1
EndChar

StartChar: backslash
Encoding: 92 92 60
Width: 1170
VWidth: 0
Flags: HW
HStem: -145 293<878.007 1024.29> 147 292<731.721 878.007> 439 293<585.436 731.721> 732 293<439.149 585.436> 1025 293<292.571 439.149> 1317 293<146.286 292.571>
VStem: 146 146<1317.43 1610> 293 147<1024.56 1317.43> 439 146<731.993 1024.56> 585 146<439.422 731.993> 732 146<147.143 439.422> 878 146<-145.429 147.143>
LayerCount: 2
Back
Fore
SplineSet
146 1464 m 1x06
 146 1610 l 1
 219 1610 l 1
 292 1610 l 1x06
 292 1464 l 1
 292 1318 l 1x0a
 366 1318 l 1
 440 1318 l 1x09
 440 1171 l 1
 440 1025 l 1x11
 512 1025 l 1
 585 1025 l 1x1080
 585 878 l 1
 585 732 l 1x2080
 659 732 l 1
 731 732 l 1x2040
 731 586 l 1
 731 439 l 1x4040
 805 439 l 1
 878 439 l 1x4020
 878 293 l 1
 878 148 l 1x8020
 951 148 l 1
 1024 148 l 1
 1024 1 l 1
 1024 -145 l 1
 951 -145 l 1
 878 -145 l 1
 878 1 l 1x8010
 878 148 l 1x8020
 805 148 l 1
 731 148 l 1
 731 293 l 1x4020
 731 439 l 1x4040
 659 439 l 1
 585 439 l 1
 585 586 l 1x2040
 585 732 l 1x2080
 512 732 l 1
 440 732 l 1
 440 878 l 1x1080
 440 1025 l 1x11
 366 1025 l 1
 292 1025 l 1
 292 1171 l 1x09
 292 1318 l 1x0a
 219 1318 l 1
 146 1318 l 1
 146 1464 l 1x06
EndSplineSet
Validated: 5
EndChar

StartChar: bracketright
Encoding: 93 93 61
Width: 1170
VWidth: 0
Flags: HW
HStem: -145 146<292.571 585.436> 1317 146<292.571 585.436>
VStem: 293 439<-145.429 0.857422 1317.43 1463.71> 585 146<0.857422 1317.43>
LayerCount: 2
Back
Fore
SplineSet
293 1391 m 1xe0
 293 1463 l 1
 512 1463 l 1
 732 1463 l 1xe0
 732 659 l 1xd0
 732 -145 l 1
 512 -145 l 1
 293 -145 l 1
 293 -72 l 1
 293 1 l 1xe0
 439 1 l 1
 585 1 l 1
 585 659 l 1
 585 1317 l 1xd0
 439 1317 l 1
 293 1317 l 1
 293 1391 l 1xe0
EndSplineSet
Validated: 1
EndChar

StartChar: asciicircum
Encoding: 94 94 62
Width: 1170
VWidth: 0
Flags: HW
HStem: 1025 146<146.286 292.571 731.721 878.007> 1171 147<292.571 439.149 585.436 731.721> 1317 146<439.149 585.436>
VStem: 146 146<1024.56 1170.85> 293 147<1170.85 1317.43> 439 146<1317.43 1463.71> 585 146<1170.85 1317.43> 732 146<1024.56 1170.85>
LayerCount: 2
Back
Fore
SplineSet
440 1391 m 1x44
 440 1463 l 1
 512 1463 l 1
 585 1463 l 1x24
 585 1391 l 1
 585 1318 l 1x44
 659 1318 l 1
 731 1318 l 1x42
 731 1244 l 1
 731 1171 l 1x82
 805 1171 l 1
 878 1171 l 1
 878 1098 l 1
 878 1025 l 1
 805 1025 l 1
 731 1025 l 1
 731 1098 l 1x81
 731 1171 l 1x82
 659 1171 l 1
 585 1171 l 1
 585 1244 l 1x42
 585 1318 l 1x44
 512 1318 l 1x24
 440 1318 l 1
 440 1244 l 1
 440 1171 l 1
 366 1171 l 1x48
 292 1171 l 1
 292 1098 l 1
 292 1025 l 1
 219 1025 l 1
 146 1025 l 1
 146 1098 l 1
 146 1171 l 1
 219 1171 l 1
 292 1171 l 1x90
 292 1244 l 1
 292 1318 l 1
 366 1318 l 1
 440 1318 l 1x48
 440 1391 l 1x44
EndSplineSet
Validated: 5
EndChar

StartChar: underscore
Encoding: 95 95 63
Width: 1170
VWidth: 0
Flags: HW
HStem: -145 146<0 1170.29>
LayerCount: 2
Back
Fore
SplineSet
0 -72 m 1
 0 1 l 1
 585 1 l 1
 1170 1 l 1
 1170 -72 l 1
 1170 -145 l 1
 585 -145 l 1
 0 -145 l 1
 0 -72 l 1
EndSplineSet
Validated: 1
EndChar

StartChar: grave
Encoding: 96 96 64
Width: 1170
VWidth: 0
Flags: HW
HStem: 1025 146<439.149 585.436> 1171 147<292.571 439.149> 1317 146<146.286 292.571>
VStem: 146 146<1317.43 1463.71> 293 147<1170.85 1317.43> 439 146<1024.56 1170.85>
LayerCount: 2
Back
Fore
SplineSet
146 1391 m 1x30
 146 1463 l 1
 219 1463 l 1
 292 1463 l 1x30
 292 1391 l 1
 292 1318 l 1x50
 366 1318 l 1
 440 1318 l 1x48
 440 1244 l 1
 440 1171 l 1x88
 512 1171 l 1
 585 1171 l 1
 585 1098 l 1
 585 1025 l 1
 512 1025 l 1
 440 1025 l 1
 440 1098 l 1x84
 440 1171 l 1x88
 366 1171 l 1
 292 1171 l 1
 292 1244 l 1x48
 292 1318 l 1x50
 219 1318 l 1
 146 1318 l 1
 146 1391 l 1x30
EndSplineSet
Validated: 5
EndChar

StartChar: a
Encoding: 97 97 65
Width: 1170
VWidth: 0
Flags: HW
HStem: 1 146<292.571 731.721> 147 146<731.721 878.007> 586 146<292.571 878.007> 878 146<292.571 878.007>
VStem: 146 146<147.143 585.707> 732 293<147.143 293.136> 878 146<0.857422 147.143 293.136 585.707 731.993 878.279>
LayerCount: 2
Back
Fore
SplineSet
292 951 m 1x7a
 292 1024 l 1
 585 1024 l 1
 878 1024 l 1
 878 951 l 1
 878 878 l 1
 951 878 l 1
 1025 878 l 1
 1025 440 l 1
 1025 1 l 1
 951 1 l 1
 878 1 l 1xba
 878 74 l 1
 878 147 l 1
 805 147 l 1x7a
 732 147 l 1
 732 74 l 1
 732 1 l 1
 512 1 l 1
 292 1 l 1
 292 74 l 1
 292 147 l 1xbc
 219 147 l 1
 146 147 l 1
 146 366 l 1
 146 586 l 1
 219 586 l 1
 292 586 l 1
 292 659 l 1
 292 732 l 1
 585 732 l 1
 878 732 l 1
 878 805 l 1
 878 878 l 1
 585 878 l 1
 292 878 l 1
 292 951 l 1x7a
878 439 m 1
 878 586 l 1x7a
 585 586 l 1
 292 586 l 1
 292 366 l 1
 292 147 l 1
 512 147 l 1
 732 147 l 1xbc
 732 220 l 1
 732 293 l 1x7c
 805 293 l 1
 878 293 l 1x7a
 878 439 l 1
EndSplineSet
Validated: 5
EndChar

StartChar: b
Encoding: 98 98 66
Width: 1170
VWidth: 0
Flags: HW
HStem: 1 146<292.571 878.007> 732 146<292.571 439.149> 878 146<439.149 878.007> 1444 20G<146.286 292.571>
VStem: 146 146<147.143 731.993 878.279 1463.71> 878 146<147.143 878.279>
LayerCount: 2
Back
Fore
SplineSet
146 732 m 1xbc
 146 1464 l 1
 219 1464 l 1
 292 1464 l 1
 292 1171 l 1
 292 878 l 1
 366 878 l 1
 439 878 l 1xdc
 439 951 l 1
 439 1024 l 1
 659 1024 l 1
 878 1024 l 1
 878 951 l 1
 878 878 l 1
 951 878 l 1
 1024 878 l 1
 1024 513 l 1
 1024 147 l 1
 951 147 l 1
 878 147 l 1
 878 74 l 1
 878 1 l 1
 512 1 l 1
 146 1 l 1
 146 732 l 1xbc
878 513 m 1
 878 878 l 1
 659 878 l 1xbc
 439 878 l 1
 439 805 l 1
 439 732 l 1
 366 732 l 1
 292 732 l 1
 292 440 l 1
 292 147 l 1
 585 147 l 1
 878 147 l 1
 878 513 l 1
EndSplineSet
Validated: 5
EndChar

StartChar: c
Encoding: 99 99 67
Width: 1170
VWidth: 0
Flags: HW
HStem: 1 146<292.571 878.007> 147 146<878.007 1024.29> 732 146<878.007 1024.29> 878 146<292.571 878.007>
VStem: 146 146<147.143 878.279> 878 146<147.143 293.136 731.993 878.279>
LayerCount: 2
Back
Fore
SplineSet
292 951 m 1x5c
 292 1024 l 1
 585 1024 l 1
 878 1024 l 1x5c
 878 951 l 1
 878 878 l 1
 951 878 l 1
 1024 878 l 1
 1024 805 l 1
 1024 732 l 1
 951 732 l 1
 878 732 l 1
 878 805 l 1
 878 878 l 1x2c
 585 878 l 1
 292 878 l 1
 292 513 l 1
 292 147 l 1
 585 147 l 1
 878 147 l 1x9c
 878 220 l 1
 878 293 l 1
 951 293 l 1
 1024 293 l 1
 1024 220 l 1
 1024 147 l 1
 951 147 l 1x4c
 878 147 l 1
 878 74 l 1
 878 1 l 1
 585 1 l 1
 292 1 l 1
 292 74 l 1
 292 147 l 1x8c
 219 147 l 1
 146 147 l 1
 146 513 l 1
 146 878 l 1
 219 878 l 1
 292 878 l 1
 292 951 l 1x5c
EndSplineSet
Validated: 5
EndChar

StartChar: d
Encoding: 100 100 68
Width: 1170
VWidth: 0
Flags: HW
HStem: 1 146<292.571 731.721> 147 146<731.721 878.007> 878 146<292.571 878.007> 1444 20G<878.007 1024.29>
VStem: 146 146<147.143 878.279> 732 293<147.143 293.136> 878 146<0.857422 147.143 293.136 878.279 1024.56 1463.71>
LayerCount: 2
Back
Fore
SplineSet
878 1244 m 1x7a
 878 1464 l 1
 951 1464 l 1
 1025 1464 l 1
 1025 732 l 1
 1025 1 l 1
 951 1 l 1
 878 1 l 1xba
 878 74 l 1
 878 147 l 1
 805 147 l 1x7a
 732 147 l 1
 732 74 l 1
 732 1 l 1
 512 1 l 1
 292 1 l 1
 292 74 l 1
 292 147 l 1xbc
 219 147 l 1
 146 147 l 1
 146 513 l 1
 146 878 l 1
 219 878 l 1
 292 878 l 1
 292 951 l 1
 292 1024 l 1
 585 1024 l 1
 878 1024 l 1
 878 1244 l 1x7a
878 586 m 1
 878 878 l 1x7a
 585 878 l 1
 292 878 l 1
 292 513 l 1
 292 147 l 1
 512 147 l 1
 732 147 l 1xbc
 732 220 l 1
 732 293 l 1x7c
 805 293 l 1
 878 293 l 1x7a
 878 586 l 1
EndSplineSet
Validated: 5
EndChar

StartChar: e
Encoding: 101 101 69
Width: 1170
VWidth: 0
Flags: HW
HStem: 1 146<292.571 1024.29> 439 146<292.571 878.007> 878 146<292.571 878.007>
VStem: 146 146<147.143 439.422 585.707 878.279> 878 146<585.707 878.279>
LayerCount: 2
Back
Fore
SplineSet
292 951 m 1
 292 1024 l 1
 585 1024 l 1
 878 1024 l 1
 878 951 l 1
 878 878 l 1
 951 878 l 1
 1024 878 l 1
 1024 659 l 1
 1024 439 l 1
 658 439 l 1
 292 439 l 1
 292 293 l 1
 292 147 l 1
 658 147 l 1
 1024 147 l 1
 1024 74 l 1
 1024 1 l 1
 658 1 l 1
 292 1 l 1
 292 74 l 1
 292 147 l 1
 219 147 l 1
 146 147 l 1
 146 513 l 1
 146 878 l 1
 219 878 l 1
 292 878 l 1
 292 951 l 1
878 732 m 1
 878 878 l 1
 585 878 l 1
 292 878 l 1
 292 732 l 1
 292 585 l 1
 585 585 l 1
 878 585 l 1
 878 732 l 1
EndSplineSet
Validated: 5
EndChar

StartChar: f
Encoding: 102 102 70
Width: 1170
VWidth: 0
Flags: HW
HStem: 1 21G<292.571 439.149> 732 146<439.149 878.007> 1317 146<439.149 878.007>
VStem: 293 147<0.857422 731.993 878.279 1317.43>
LayerCount: 2
Back
Fore
SplineSet
440 1391 m 1
 440 1463 l 1
 659 1463 l 1
 878 1463 l 1
 878 1391 l 1
 878 1317 l 1
 659 1317 l 1
 440 1317 l 1
 440 1098 l 1
 440 878 l 1
 659 878 l 1
 878 878 l 1
 878 805 l 1
 878 732 l 1
 659 732 l 1
 440 732 l 1
 440 366 l 1
 440 1 l 1
 366 1 l 1
 293 1 l 1
 293 659 l 1
 293 1317 l 1
 366 1317 l 1
 440 1317 l 1
 440 1391 l 1
EndSplineSet
Validated: 5
EndChar

StartChar: g
Encoding: 103 103 71
Width: 1170
VWidth: 0
Flags: HW
HStem: -438 146<292.571 878.007> 1 146<292.571 731.721> 147 146<731.721 878.007> 878 146<292.571 878.007>
VStem: 146 146<147.143 878.279> 732 293<147.143 293.136> 878 146<-291.714 147.143 293.136 878.279>
LayerCount: 2
Back
Fore
SplineSet
292 951 m 1xbc
 292 1024 l 1
 658 1024 l 1
 1025 1024 l 1
 1025 366 l 1
 1025 -292 l 1
 951 -292 l 1
 878 -292 l 1
 878 -365 l 1
 878 -438 l 1
 585 -438 l 1
 292 -438 l 1
 292 -365 l 1
 292 -292 l 1
 585 -292 l 1
 878 -292 l 1
 878 -72 l 1
 878 147 l 1
 805 147 l 1xba
 732 147 l 1
 732 74 l 1
 732 1 l 1
 512 1 l 1
 292 1 l 1
 292 74 l 1
 292 147 l 1xdc
 219 147 l 1
 146 147 l 1
 146 513 l 1
 146 878 l 1
 219 878 l 1
 292 878 l 1
 292 951 l 1xbc
878 586 m 1
 878 878 l 1xba
 585 878 l 1
 292 878 l 1
 292 513 l 1
 292 147 l 1
 512 147 l 1
 732 147 l 1xdc
 732 220 l 1
 732 293 l 1xbc
 805 293 l 1
 878 293 l 1
 878 586 l 1
EndSplineSet
Validated: 5
EndChar

StartChar: h
Encoding: 104 104 72
Width: 1170
VWidth: 0
Flags: HW
HStem: 1 21G<146.286 292.571 878.007 1024.29> 732 146<292.571 439.149> 878 146<439.149 878.007> 1444 20G<146.286 292.571>
VStem: 146 146<0.857422 731.993 878.279 1463.71> 878 146<0.857422 878.279>
LayerCount: 2
Back
Fore
SplineSet
146 732 m 1xdc
 146 1464 l 1
 219 1464 l 1
 292 1464 l 1
 292 1171 l 1
 292 878 l 1
 366 878 l 1
 439 878 l 1xdc
 439 951 l 1
 439 1024 l 1
 659 1024 l 1
 878 1024 l 1
 878 951 l 1
 878 878 l 1
 951 878 l 1
 1024 878 l 1
 1024 440 l 1
 1024 1 l 1
 951 1 l 1
 878 1 l 1
 878 440 l 1
 878 878 l 1
 659 878 l 1xbc
 439 878 l 1
 439 805 l 1
 439 732 l 1
 366 732 l 1
 292 732 l 1
 292 366 l 1
 292 1 l 1
 219 1 l 1
 146 1 l 1
 146 732 l 1xdc
EndSplineSet
Validated: 5
EndChar

StartChar: i
Encoding: 105 105 73
Width: 1170
VWidth: 0
Flags: HW
HStem: 1 146<585.436 878.007> 878 146<146.286 439.149> 1171 293<439.149 585.436>
VStem: 439 146<147.143 878.279 1170.85 1463.71>
LayerCount: 2
Back
Fore
SplineSet
146 951 m 1
 146 1024 l 1
 366 1024 l 1
 585 1024 l 1
 585 586 l 1
 585 147 l 1
 732 147 l 1
 878 147 l 1
 878 74 l 1
 878 1 l 1
 659 1 l 1
 439 1 l 1
 439 440 l 1
 439 878 l 1
 293 878 l 1
 146 878 l 1
 146 951 l 1
439 1317 m 1
 439 1464 l 1
 512 1464 l 1
 585 1464 l 1
 585 1317 l 1
 585 1171 l 1
 512 1171 l 1
 439 1171 l 1
 439 1317 l 1
EndSplineSet
Validated: 1
EndChar

StartChar: j
Encoding: 106 106 74
Width: 1170
VWidth: 0
Flags: HW
HStem: -438 146<146.286 585.436> 878 146<439.149 585.436> 1171 293<585.436 731.721>
VStem: 439 293<878.279 1024.56> 585 146<-291.714 878.279 1170.85 1463.71>
LayerCount: 2
Back
Fore
SplineSet
439 951 m 1xf0
 439 1024 l 1xf0
 585 1024 l 1xe8
 732 1024 l 1xf0
 732 366 l 1
 732 -292 l 1
 659 -292 l 1
 585 -292 l 1
 585 -365 l 1
 585 -438 l 1
 366 -438 l 1
 146 -438 l 1
 146 -365 l 1
 146 -292 l 1
 366 -292 l 1
 585 -292 l 1
 585 293 l 1
 585 878 l 1xe8
 512 878 l 1
 439 878 l 1
 439 951 l 1xf0
585 1317 m 1xe8
 585 1464 l 1
 659 1464 l 1
 732 1464 l 1
 732 1317 l 1
 732 1171 l 1
 659 1171 l 1
 585 1171 l 1
 585 1317 l 1xe8
EndSplineSet
Validated: 5
EndChar

StartChar: k
Encoding: 107 107 75
Width: 1170
VWidth: 0
Flags: HW
HStem: 1 146<878.007 1024.29> 147 146<731.721 878.007> 293 146<585.436 731.721> 439 146<292.571 585.436> 586 146<585.436 731.721> 732 146<731.721 878.007> 1444 20G<146.286 292.571>
VStem: 146 146<0.857422 439.422 585.707 1463.71> 585 146<293.136 439.422 585.707 731.993> 732 146<147.143 293.136 731.993 878.279> 878 146<0.857422 147.143>
LayerCount: 2
Back
Fore
SplineSet
146 732 m 1x9380
 146 1464 l 1
 219 1464 l 1
 292 1464 l 1
 292 1025 l 1
 292 585 l 1
 439 585 l 1
 585 585 l 1x9380
 585 659 l 1
 585 732 l 1
 659 732 l 1
 731 732 l 1x0b80
 731 805 l 1
 731 878 l 1
 805 878 l 1
 878 878 l 1
 878 805 l 1
 878 732 l 1
 805 732 l 1x0740
 731 732 l 1
 731 659 l 1
 731 585 l 1
 659 585 l 1x0b80
 585 585 l 1x1380
 585 513 l 1
 585 439 l 1
 659 439 l 1
 731 439 l 1x2380
 731 366 l 1
 731 293 l 1x4380
 805 293 l 1
 878 293 l 1x4340
 878 220 l 1
 878 147 l 1x8340
 951 147 l 1
 1024 147 l 1
 1024 74 l 1
 1024 1 l 1
 951 1 l 1
 878 1 l 1
 878 74 l 1x8320
 878 147 l 1x8340
 805 147 l 1
 731 147 l 1
 731 220 l 1x4340
 731 293 l 1x4380
 659 293 l 1
 585 293 l 1
 585 366 l 1
 585 439 l 1x2380
 439 439 l 1
 292 439 l 1
 292 220 l 1
 292 1 l 1
 219 1 l 1
 146 1 l 1
 146 732 l 1x9380
EndSplineSet
Validated: 5
EndChar

StartChar: l
Encoding: 108 108 76
Width: 1170
VWidth: 0
Flags: HW
HStem: 1 146<585.436 1024.29> 1317 146<292.571 439.149>
VStem: 293 293<1317.43 1463.71> 439 146<147.143 1317.43>
LayerCount: 2
Back
Fore
SplineSet
293 1391 m 1xe0
 293 1463 l 1
 439 1463 l 1
 586 1463 l 1xe0
 586 805 l 1
 586 147 l 1
 805 147 l 1
 1024 147 l 1
 1024 74 l 1
 1024 1 l 1
 805 1 l 1
 586 1 l 1
 586 74 l 1
 586 147 l 1
 512 147 l 1
 439 147 l 1
 439 732 l 1
 439 1317 l 1xd0
 366 1317 l 1
 293 1317 l 1
 293 1391 l 1xe0
EndSplineSet
Validated: 5
EndChar

StartChar: m
Encoding: 109 109 77
Width: 1170
VWidth: 0
Flags: HW
HStem: 1 21G<0 146.286 439.149 585.436 878.007 1024.29> 878 146<146.286 439.149 585.436 878.007>
VStem: 0 146<0.857422 878.279> 439 146<0.857422 878.279> 878 146<0.857422 878.279>
LayerCount: 2
Back
Fore
SplineSet
0 513 m 1
 0 1024 l 1
 439 1024 l 1
 878 1024 l 1
 878 951 l 1
 878 878 l 1
 951 878 l 1
 1024 878 l 1
 1024 440 l 1
 1024 1 l 1
 951 1 l 1
 878 1 l 1
 878 440 l 1
 878 878 l 1
 732 878 l 1
 585 878 l 1
 585 440 l 1
 585 1 l 1
 512 1 l 1
 439 1 l 1
 439 440 l 1
 439 878 l 1
 293 878 l 1
 146 878 l 1
 146 440 l 1
 146 1 l 1
 73 1 l 1
 0 1 l 1
 0 513 l 1
EndSplineSet
Validated: 5
EndChar

StartChar: n
Encoding: 110 110 78
Width: 1170
VWidth: 0
Flags: HW
HStem: 1 21G<146.286 292.571 878.007 1024.29> 878 146<292.571 878.007>
VStem: 146 146<0.857422 878.279> 878 146<0.857422 878.279>
LayerCount: 2
Back
Fore
SplineSet
146 513 m 1
 146 1024 l 1
 512 1024 l 1
 878 1024 l 1
 878 951 l 1
 878 878 l 1
 951 878 l 1
 1024 878 l 1
 1024 440 l 1
 1024 1 l 1
 951 1 l 1
 878 1 l 1
 878 440 l 1
 878 878 l 1
 585 878 l 1
 292 878 l 1
 292 440 l 1
 292 1 l 1
 219 1 l 1
 146 1 l 1
 146 513 l 1
EndSplineSet
Validated: 5
EndChar

StartChar: o
Encoding: 111 111 79
Width: 1170
VWidth: 0
Flags: HW
HStem: 1 146<292.571 878.007> 878 146<292.571 878.007>
VStem: 146 146<147.143 878.279> 878 146<147.143 878.279>
LayerCount: 2
Back
Fore
SplineSet
292 951 m 1
 292 1024 l 1
 585 1024 l 1
 878 1024 l 1
 878 951 l 1
 878 878 l 1
 951 878 l 1
 1024 878 l 1
 1024 513 l 1
 1024 147 l 1
 951 147 l 1
 878 147 l 1
 878 74 l 1
 878 1 l 1
 585 1 l 1
 292 1 l 1
 292 74 l 1
 292 147 l 1
 219 147 l 1
 146 147 l 1
 146 513 l 1
 146 878 l 1
 219 878 l 1
 292 878 l 1
 292 951 l 1
878 513 m 1
 878 878 l 1
 585 878 l 1
 292 878 l 1
 292 513 l 1
 292 147 l 1
 585 147 l 1
 878 147 l 1
 878 513 l 1
EndSplineSet
Validated: 5
EndChar

StartChar: p
Encoding: 112 112 80
Width: 1170
VWidth: 0
Flags: HW
HStem: -438 21G<146.286 292.571> 1 146<292.571 878.007> 732 146<292.571 439.149> 878 146<439.149 878.007>
VStem: 146 293<731.993 878.279> 146 146<-438 0.857422 147.143 731.993 878.279 1024.56> 878 146<147.143 878.279>
LayerCount: 2
Back
Fore
SplineSet
146 293 m 1xd6
 146 1024 l 1
 219 1024 l 1
 292 1024 l 1xd6
 292 951 l 1
 292 878 l 1xe6
 366 878 l 1
 439 878 l 1xea
 439 951 l 1
 439 1024 l 1xda
 659 1024 l 1
 878 1024 l 1
 878 951 l 1
 878 878 l 1
 951 878 l 1
 1024 878 l 1
 1024 513 l 1
 1024 147 l 1
 951 147 l 1
 878 147 l 1
 878 74 l 1
 878 1 l 1
 585 1 l 1
 292 1 l 1
 292 -219 l 1
 292 -438 l 1
 219 -438 l 1
 146 -438 l 1
 146 293 l 1xd6
878 513 m 1
 878 878 l 1
 659 878 l 1xd6
 439 878 l 1
 439 805 l 1
 439 732 l 1xea
 366 732 l 1
 292 732 l 1xe6
 292 440 l 1
 292 147 l 1
 585 147 l 1
 878 147 l 1
 878 513 l 1
EndSplineSet
Validated: 5
EndChar

StartChar: q
Encoding: 113 113 81
Width: 1170
VWidth: 0
Flags: HW
HStem: -438 21G<878.007 1024.29> 1 146<292.571 731.721> 147 146<731.721 878.007> 878 146<292.571 878.007>
VStem: 146 146<147.143 878.279> 732 293<147.143 293.136> 878 146<-438 147.143 293.282 878.279>
LayerCount: 2
Back
Fore
SplineSet
292 951 m 1xbc
 292 1024 l 1
 658 1024 l 1
 1025 1024 l 1
 1025 293 l 1
 1025 -438 l 1
 951 -438 l 1
 878 -438 l 1
 878 -145 l 1
 878 147 l 1
 805 147 l 1xba
 732 147 l 1
 732 74 l 1
 732 1 l 1
 512 1 l 1
 292 1 l 1
 292 74 l 1
 292 147 l 1xdc
 219 147 l 1
 146 147 l 1
 146 513 l 1
 146 878 l 1
 219 878 l 1
 292 878 l 1
 292 951 l 1xbc
878 586 m 1
 878 878 l 1xba
 585 878 l 1
 292 878 l 1
 292 513 l 1
 292 147 l 1
 512 147 l 1
 732 147 l 1xdc
 732 220 l 1
 732 293 l 1xbc
 805 293 l 1
 878 293 l 1
 878 586 l 1
EndSplineSet
Validated: 5
EndChar

StartChar: r
Encoding: 114 114 82
Width: 1170
VWidth: 0
Flags: HW
HStem: 1 21G<146.286 292.571> 732 146<292.571 439.149 878.007 1024.29> 878 146<439.149 878.007>
VStem: 146 293<731.993 878.279> 146 146<0.857422 731.993 878.279 1024.56> 878 146<731.993 878.279>
LayerCount: 2
Back
Fore
SplineSet
146 513 m 1xcc
 146 1024 l 1
 219 1024 l 1
 292 1024 l 1xac
 292 951 l 1
 292 878 l 1xcc
 366 878 l 1
 439 878 l 1xd4
 439 951 l 1
 439 1024 l 1
 659 1024 l 1
 878 1024 l 1xb4
 878 951 l 1
 878 878 l 1
 951 878 l 1
 1024 878 l 1
 1024 805 l 1
 1024 732 l 1
 951 732 l 1
 878 732 l 1
 878 805 l 1
 878 878 l 1xd4
 659 878 l 1xb4
 439 878 l 1
 439 805 l 1
 439 732 l 1xd4
 366 732 l 1
 292 732 l 1
 292 366 l 1
 292 1 l 1
 219 1 l 1
 146 1 l 1
 146 513 l 1xcc
EndSplineSet
Validated: 5
EndChar

StartChar: s
Encoding: 115 115 83
Width: 1170
VWidth: 0
Flags: HW
HStem: 1 146<146.286 878.007> 147 292<878.007 1024.29> 439 146<292.571 878.007> 586 293<146.286 292.571> 878 146<292.571 878.007>
VStem: 146 146<585.707 878.279> 878 146<147.143 439.422>
LayerCount: 2
Back
Fore
SplineSet
292 951 m 1x16
 292 1024 l 1
 585 1024 l 1
 878 1024 l 1
 878 951 l 1
 878 879 l 1
 585 879 l 1x0e
 292 879 l 1x16
 292 732 l 1
 292 585 l 1
 585 585 l 1
 878 585 l 1x26
 878 513 l 1
 878 439 l 1
 951 439 l 1
 1024 439 l 1
 1024 293 l 1
 1024 147 l 1
 951 147 l 1x46
 878 147 l 1
 878 74 l 1
 878 1 l 1
 512 1 l 1
 146 1 l 1
 146 74 l 1
 146 147 l 1
 512 147 l 1
 878 147 l 1x86
 878 293 l 1
 878 439 l 1x46
 585 439 l 1
 292 439 l 1
 292 513 l 1
 292 585 l 1x26
 219 585 l 1
 146 585 l 1
 146 732 l 1
 146 879 l 1
 219 879 l 1
 292 879 l 1
 292 951 l 1x16
EndSplineSet
Validated: 5
EndChar

StartChar: t
Encoding: 116 116 84
Width: 1170
VWidth: 0
Flags: HW
HStem: 1 146<585.436 878.007> 878 146<292.571 439.149 585.436 878.007> 1444 20G<439.149 585.436>
VStem: 439 146<147.143 878.279 1024.56 1463.71> 585 293<0.857422 147.143>
LayerCount: 2
Back
Fore
SplineSet
439 1244 m 1xf0
 439 1464 l 1
 512 1464 l 1
 585 1464 l 1
 585 1244 l 1
 585 1024 l 1xf0
 732 1024 l 1
 878 1024 l 1
 878 951 l 1
 878 878 l 1xe8
 732 878 l 1
 585 878 l 1
 585 513 l 1
 585 147 l 1xf0
 732 147 l 1
 878 147 l 1
 878 74 l 1
 878 1 l 1
 732 1 l 1
 585 1 l 1
 585 74 l 1xe8
 585 147 l 1
 512 147 l 1
 439 147 l 1
 439 513 l 1
 439 878 l 1
 366 878 l 1
 293 878 l 1
 293 951 l 1
 293 1024 l 1
 366 1024 l 1
 439 1024 l 1
 439 1244 l 1xf0
EndSplineSet
Validated: 5
EndChar

StartChar: u
Encoding: 117 117 85
Width: 1170
VWidth: 0
Flags: HW
HStem: 1 146<292.571 731.721> 147 146<731.721 878.007> 1005 20G<146.286 292.571 878.007 1024.29>
VStem: 146 146<147.143 1024.56> 732 293<147.143 293.136> 878 146<0.857422 147.143 293.136 1024.56>
LayerCount: 2
Back
Fore
SplineSet
146 586 m 1x78
 146 1025 l 1
 219 1025 l 1
 292 1025 l 1
 292 586 l 1
 292 147 l 1
 512 147 l 1
 732 147 l 1xb8
 732 220 l 1
 732 293 l 1x78
 805 293 l 1
 878 293 l 1x74
 878 659 l 1
 878 1025 l 1
 951 1025 l 1
 1025 1025 l 1
 1025 513 l 1
 1025 1 l 1
 951 1 l 1
 878 1 l 1xb4
 878 74 l 1
 878 147 l 1
 805 147 l 1x74
 732 147 l 1
 732 74 l 1
 732 1 l 1
 512 1 l 1
 292 1 l 1
 292 74 l 1
 292 147 l 1xb8
 219 147 l 1
 146 147 l 1
 146 586 l 1x78
EndSplineSet
Validated: 5
EndChar

StartChar: v
Encoding: 118 118 86
Width: 1170
VWidth: 0
Flags: HW
HStem: 1 292<439.149 731.721> 293 293<292.571 439.149 731.721 878.007> 586 439<146.286 292.571 878.007 1024.29>
VStem: 146 146<585.707 1024.56> 293 147<293.136 585.707> 439 293<0.857422 293.136> 732 146<293.136 585.707> 878 146<585.707 1024.56>
LayerCount: 2
Back
Fore
SplineSet
146 805 m 1x30
 146 1025 l 1
 219 1025 l 1
 292 1025 l 1x30
 292 805 l 1
 292 586 l 1x50
 366 586 l 1
 440 586 l 1x48
 440 439 l 1
 440 293 l 1x88
 585 293 l 1
 732 293 l 1x84
 732 439 l 1
 732 586 l 1
 805 586 l 1
 878 586 l 1x42
 878 805 l 1
 878 1025 l 1
 951 1025 l 1
 1024 1025 l 1
 1024 805 l 1
 1024 586 l 1
 951 586 l 1x21
 878 586 l 1
 878 439 l 1
 878 293 l 1
 805 293 l 1x42
 732 293 l 1
 732 147 l 1
 732 1 l 1
 585 1 l 1
 440 1 l 1
 440 147 l 1x84
 440 293 l 1x88
 366 293 l 1
 292 293 l 1
 292 439 l 1x48
 292 586 l 1x50
 219 586 l 1
 146 586 l 1
 146 805 l 1x30
EndSplineSet
Validated: 5
EndChar

StartChar: w
Encoding: 119 119 87
Width: 1170
VWidth: 0
Flags: HW
HStem: 1 292<146.286 292.571 731.721 878.007> 293 146<292.571 439.149 585.436 731.721> 439 293<439.149 585.436> 1005 20G<0 146.286 878.007 1024.29>
VStem: 0 146<293.136 1024.56> 146 146<0.857422 293.136> 293 147<293.136 439.422> 439 146<439.422 731.993> 585 146<293.136 439.422> 732 146<0.857422 293.136> 878 146<293.136 1024.56>
LayerCount: 2
Back
Fore
SplineSet
0 659 m 1x58
 0 1025 l 1
 73 1025 l 1
 146 1025 l 1
 146 659 l 1
 146 293 l 1x98
 219 293 l 1
 292 293 l 1x94
 292 366 l 1
 292 439 l 1
 366 439 l 1
 440 439 l 1x52
 440 586 l 1
 440 732 l 1
 512 732 l 1
 585 732 l 1x31
 585 586 l 1
 585 439 l 1x51
 659 439 l 1
 731 439 l 1x5080
 731 366 l 1
 731 293 l 1x9080
 805 293 l 1
 878 293 l 1x9040
 878 659 l 1
 878 1025 l 1
 951 1025 l 1
 1024 1025 l 1
 1024 659 l 1
 1024 293 l 1
 951 293 l 1x5020
 878 293 l 1
 878 147 l 1
 878 1 l 1
 805 1 l 1
 731 1 l 1
 731 147 l 1x9040
 731 293 l 1x9080
 659 293 l 1
 585 293 l 1
 585 366 l 1x5080
 585 439 l 1x51
 512 439 l 1x31
 440 439 l 1
 440 366 l 1
 440 293 l 1
 366 293 l 1x52
 292 293 l 1
 292 147 l 1
 292 1 l 1
 219 1 l 1
 146 1 l 1
 146 147 l 1x94
 146 293 l 1x98
 73 293 l 1
 0 293 l 1
 0 659 l 1x58
EndSplineSet
Validated: 5
EndChar

StartChar: x
Encoding: 120 120 88
Width: 1170
VWidth: 0
Flags: HW
HStem: 1 292<146.286 292.571 878.007 1024.29> 293 146<292.571 439.149 731.721 878.007> 439 146<439.149 731.721> 586 146<292.571 439.149 731.721 878.007> 732 293<146.286 292.571 878.007 1024.29>
VStem: 146 146<0.857422 293.136 731.993 1024.56> 293 147<293.136 439.422 585.707 731.993> 439 293<439.422 585.707> 732 146<293.136 439.422 585.707 731.993> 878 146<0.857422 293.136 731.993 1024.56>
LayerCount: 2
Back
Fore
SplineSet
146 878 m 1x0c
 146 1025 l 1
 219 1025 l 1
 292 1025 l 1x0c
 292 878 l 1
 292 732 l 1x14
 366 732 l 1
 440 732 l 1x12
 440 659 l 1
 440 585 l 1x22
 585 585 l 1
 732 585 l 1x21
 732 659 l 1
 732 732 l 1
 805 732 l 1
 878 732 l 1x1080
 878 878 l 1
 878 1025 l 1
 951 1025 l 1
 1024 1025 l 1
 1024 878 l 1
 1024 732 l 1
 951 732 l 1x0840
 878 732 l 1
 878 659 l 1
 878 585 l 1
 805 585 l 1x1080
 732 585 l 1x21
 732 513 l 1
 732 439 l 1x41
 805 439 l 1
 878 439 l 1x4080
 878 366 l 1
 878 293 l 1x8080
 951 293 l 1
 1024 293 l 1
 1024 147 l 1
 1024 1 l 1
 951 1 l 1
 878 1 l 1
 878 147 l 1x8040
 878 293 l 1x8080
 805 293 l 1
 732 293 l 1
 732 366 l 1x4080
 732 439 l 1x41
 585 439 l 1x21
 440 439 l 1
 440 366 l 1
 440 293 l 1
 366 293 l 1x42
 292 293 l 1
 292 147 l 1
 292 1 l 1
 219 1 l 1
 146 1 l 1
 146 147 l 1
 146 293 l 1
 219 293 l 1
 292 293 l 1x84
 292 366 l 1
 292 439 l 1
 366 439 l 1
 440 439 l 1x42
 440 513 l 1x41
 440 585 l 1x22
 366 585 l 1
 292 585 l 1
 292 659 l 1x12
 292 732 l 1x14
 219 732 l 1
 146 732 l 1
 146 878 l 1x0c
EndSplineSet
Validated: 5
EndChar

StartChar: y
Encoding: 121 121 89
Width: 1170
VWidth: 0
Flags: HW
HStem: -438 146<292.571 878.007> 1 146<292.571 731.721> 147 146<731.721 878.007> 1005 20G<146.286 292.571 878.007 1024.29>
VStem: 146 146<147.143 1024.56> 732 293<147.143 293.136> 878 146<-291.714 147.143 293.136 1024.56>
LayerCount: 2
Back
Fore
SplineSet
146 586 m 1xbc
 146 1025 l 1
 219 1025 l 1
 292 1025 l 1
 292 586 l 1
 292 147 l 1
 512 147 l 1
 732 147 l 1xdc
 732 220 l 1
 732 293 l 1xbc
 805 293 l 1
 878 293 l 1
 878 659 l 1
 878 1025 l 1
 951 1025 l 1
 1025 1025 l 1
 1025 366 l 1
 1025 -292 l 1
 951 -292 l 1
 878 -292 l 1
 878 -365 l 1
 878 -438 l 1
 585 -438 l 1
 292 -438 l 1
 292 -365 l 1
 292 -292 l 1
 585 -292 l 1
 878 -292 l 1
 878 -72 l 1
 878 147 l 1
 805 147 l 1xba
 732 147 l 1
 732 74 l 1
 732 1 l 1
 512 1 l 1
 292 1 l 1
 292 74 l 1
 292 147 l 1xdc
 219 147 l 1
 146 147 l 1
 146 586 l 1xbc
EndSplineSet
Validated: 5
EndChar

StartChar: z
Encoding: 122 122 90
Width: 1170
VWidth: 0
Flags: HW
HStem: 1 292<146.286 292.571> 1 146<292.571 1024.29> 293 146<292.571 439.149> 439 146<439.149 585.436> 586 146<585.436 731.721> 732 293<731.721 878.007> 878 146<146.286 731.721 878.007 1024.29>
VStem: 146 146<147.143 293.136> 293 147<293.136 439.422> 439 146<439.422 585.707> 585 146<585.707 731.993> 732 146<731.993 878.279>
LayerCount: 2
Back
Fore
SplineSet
146 951 m 1x0b10
 146 1025 l 1
 585 1025 l 1
 1024 1025 l 1
 1024 951 l 1
 1024 878 l 1
 951 878 l 1
 878 878 l 1x0b10
 878 805 l 1
 878 732 l 1
 805 732 l 1x0510
 731 732 l 1
 731 659 l 1
 731 585 l 1
 659 585 l 1x0820
 585 585 l 1
 585 513 l 1
 585 439 l 1
 512 439 l 1x1040
 440 439 l 1
 440 366 l 1
 440 293 l 1
 366 293 l 1x2080
 292 293 l 1x81
 292 220 l 1
 292 147 l 1
 658 147 l 1
 1024 147 l 1
 1024 74 l 1
 1024 1 l 1
 585 1 l 1x41
 146 1 l 1
 146 147 l 1
 146 293 l 1
 219 293 l 1
 292 293 l 1x81
 292 366 l 1
 292 439 l 1
 366 439 l 1
 440 439 l 1x2080
 440 513 l 1
 440 585 l 1
 512 585 l 1
 585 585 l 1x1040
 585 659 l 1
 585 732 l 1
 659 732 l 1
 731 732 l 1x0820
 731 805 l 1
 731 878 l 1
 439 878 l 1
 146 878 l 1
 146 951 l 1x0b10
EndSplineSet
Validated: 5
EndChar

StartChar: braceleft
Encoding: 123 123 91
Width: 1170
VWidth: 0
Flags: HW
HStem: -292 146<585.436 1024.29> 439 146<0 439.149> 1317 146<585.436 1024.29>
VStem: 439 146<-145.429 439.422 585.707 1317.43> 585 439<-291.714 -145.429 1317.43 1463.71>
LayerCount: 2
Back
Fore
SplineSet
585 1391 m 1xe8
 585 1463 l 1
 805 1463 l 1
 1024 1463 l 1
 1024 1391 l 1
 1024 1317 l 1xe8
 805 1317 l 1
 585 1317 l 1
 585 952 l 1
 585 585 l 1
 512 585 l 1
 439 585 l 1
 439 513 l 1
 439 439 l 1
 512 439 l 1
 585 439 l 1
 585 147 l 1
 585 -146 l 1xf0
 805 -146 l 1
 1024 -146 l 1
 1024 -219 l 1
 1024 -292 l 1
 805 -292 l 1
 585 -292 l 1
 585 -219 l 1xe8
 585 -146 l 1
 512 -146 l 1
 439 -146 l 1
 439 147 l 1
 439 439 l 1
 220 439 l 1
 0 439 l 1
 0 513 l 1
 0 585 l 1
 220 585 l 1
 439 585 l 1
 439 952 l 1
 439 1317 l 1
 512 1317 l 1
 585 1317 l 1xf0
 585 1391 l 1xe8
EndSplineSet
Validated: 5
EndChar

StartChar: bar
Encoding: 124 124 92
Width: 1170
VWidth: 0
Flags: HW
HStem: 1444 20G<439.149 585.436>
VStem: 439 146<-291.714 1463.71>
LayerCount: 2
Back
Fore
SplineSet
439 586 m 1
 439 1464 l 1
 512 1464 l 1
 585 1464 l 1
 585 586 l 1
 585 -292 l 1
 512 -292 l 1
 439 -292 l 1
 439 586 l 1
EndSplineSet
Validated: 1
EndChar

StartChar: braceright
Encoding: 125 125 93
Width: 1170
VWidth: 0
Flags: HW
HStem: -292 146<146.286 585.436> 439 146<731.721 1170.29> 1317 146<146.286 585.436>
VStem: 146 439<-291.714 -145.429 1317.43 1463.71> 585 146<-145.429 439.422 585.707 1317.43>
LayerCount: 2
Back
Fore
SplineSet
146 1391 m 1xf0
 146 1463 l 1
 366 1463 l 1
 585 1463 l 1
 585 1391 l 1
 585 1317 l 1xf0
 659 1317 l 1
 731 1317 l 1
 731 952 l 1
 731 585 l 1
 951 585 l 1
 1170 585 l 1
 1170 513 l 1
 1170 439 l 1
 951 439 l 1
 731 439 l 1
 731 147 l 1
 731 -146 l 1xe8
 659 -146 l 1
 585 -146 l 1
 585 -219 l 1
 585 -292 l 1
 366 -292 l 1
 146 -292 l 1
 146 -219 l 1
 146 -146 l 1
 366 -146 l 1
 585 -146 l 1xf0
 585 147 l 1
 585 439 l 1
 659 439 l 1
 731 439 l 1
 731 513 l 1
 731 585 l 1
 659 585 l 1
 585 585 l 1
 585 952 l 1xe8
 585 1317 l 1
 366 1317 l 1
 146 1317 l 1
 146 1391 l 1xf0
EndSplineSet
Validated: 5
EndChar

StartChar: asciitilde
Encoding: 126 126 94
Width: 1170
VWidth: 0
Flags: HW
HStem: 439 146<585.436 878.007> 586 146<439.149 585.436> 732 146<146.286 439.149>
VStem: 0 146<439.422 731.993> 146 293<731.993 878.279> 439 146<585.707 731.993> 585 293<439.422 585.707> 878 146<585.707 878.279>
LayerCount: 2
Back
Fore
SplineSet
146 805 m 1x28
 146 878 l 1
 293 878 l 1
 439 878 l 1x28
 439 805 l 1
 439 732 l 1x48
 512 732 l 1
 585 732 l 1x44
 585 659 l 1
 585 585 l 1x84
 732 585 l 1
 878 585 l 1x82
 878 732 l 1
 878 878 l 1
 951 878 l 1
 1024 878 l 1
 1024 732 l 1xa1
 1024 585 l 1
 951 585 l 1x41
 878 585 l 1
 878 513 l 1
 878 439 l 1
 732 439 l 1
 585 439 l 1
 585 513 l 1x82
 585 585 l 1x84
 512 585 l 1
 439 585 l 1
 439 659 l 1x44
 439 732 l 1x48
 293 732 l 1
 146 732 l 1x30
 146 585 l 1x50
 146 439 l 1
 73 439 l 1
 0 439 l 1x90
 0 585 l 1x50
 0 732 l 1
 73 732 l 1
 146 732 l 1x30
 146 805 l 1x28
EndSplineSet
Validated: 5
EndChar

StartChar: exclamdown
Encoding: 161 161 96
Width: 1170
VWidth: 0
Flags: HW
HStem: 1 21G<439.149 585.436> 1005 20G<439.149 585.436> 1171 293<439.149 585.436>
VStem: 439 146<0.857422 1024.56 1170.85 1463.71>
LayerCount: 2
Back
Fore
SplineSet
439 513 m 1
 439 1025 l 1
 512 1025 l 1
 585 1025 l 1
 585 513 l 1
 585 1 l 1
 512 1 l 1
 439 1 l 1
 439 513 l 1
439 1317 m 1
 439 1464 l 1
 512 1464 l 1
 585 1464 l 1
 585 1317 l 1
 585 1171 l 1
 512 1171 l 1
 439 1171 l 1
 439 1317 l 1
EndSplineSet
Validated: 1
EndChar

StartChar: cent
Encoding: 162 162 97
Width: 1170
VWidth: 0
Flags: HW
HStem: 1 146<146.286 439.149 585.436 878.007> 147 146<878.007 1024.29> 732 146<878.007 1024.29> 878 146<146.286 439.149 585.436 878.007> 1297 20G<439.149 585.436>
VStem: 0 146<147.143 878.279> 439 146<-291.714 0.857422 147.143 878.279 1024.56 1317.43> 878 146<147.143 293.136 731.993 878.279>
LayerCount: 2
Back
Fore
SplineSet
439 1171 m 1x5f
 439 1317 l 1
 512 1317 l 1
 585 1317 l 1
 585 1171 l 1
 585 1024 l 1
 732 1024 l 1
 878 1024 l 1x5f
 878 951 l 1
 878 878 l 1
 951 878 l 1
 1024 878 l 1
 1024 805 l 1
 1024 732 l 1
 951 732 l 1
 878 732 l 1
 878 805 l 1
 878 878 l 1x2f
 732 878 l 1
 585 878 l 1
 585 513 l 1
 585 147 l 1
 732 147 l 1
 878 147 l 1x9f
 878 220 l 1
 878 293 l 1
 951 293 l 1
 1024 293 l 1
 1024 220 l 1
 1024 147 l 1
 951 147 l 1x4f
 878 147 l 1
 878 74 l 1
 878 1 l 1
 732 1 l 1
 585 1 l 1
 585 -145 l 1
 585 -292 l 1
 512 -292 l 1
 439 -292 l 1
 439 -145 l 1
 439 1 l 1
 293 1 l 1
 146 1 l 1
 146 74 l 1
 146 147 l 1x8f
 73 147 l 1
 0 147 l 1
 0 513 l 1
 0 878 l 1
 73 878 l 1
 146 878 l 1
 146 951 l 1
 146 1024 l 1
 293 1024 l 1
 439 1024 l 1
 439 1171 l 1x5f
439 513 m 1
 439 878 l 1
 293 878 l 1
 146 878 l 1
 146 513 l 1
 146 147 l 1
 293 147 l 1
 439 147 l 1x9f
 439 513 l 1
EndSplineSet
Validated: 5
EndChar

StartChar: sterling
Encoding: 163 163 98
Width: 1170
VWidth: 0
Flags: HW
HStem: 1 146<146.286 292.571 439.149 878.007> 147 146<878.007 1024.29> 732 146<146.286 292.571 439.149 731.721> 1171 147<731.721 878.007> 1317 146<439.149 731.721>
VStem: 146 146<0.857422 147.143> 293 147<147.143 731.993 878.279 1317.43> 439 293<1317.43 1463.71> 732 146<1170.85 1317.43> 878 146<147.143 293.136>
LayerCount: 2
Back
Fore
SplineSet
440 1391 m 1xa9
 440 1463 l 1
 585 1463 l 1
 732 1463 l 1xa9
 732 1391 l 1
 732 1318 l 1x31
 805 1318 l 1
 878 1318 l 1
 878 1244 l 1
 878 1171 l 1
 805 1171 l 1
 732 1171 l 1
 732 1244 l 1x3080
 732 1318 l 1x31
 585 1318 l 1
 440 1318 l 1
 440 1098 l 1
 440 878 l 1
 585 878 l 1
 732 878 l 1
 732 805 l 1
 732 732 l 1x2a80
 585 732 l 1
 440 732 l 1
 440 440 l 1
 440 147 l 1
 659 147 l 1
 878 147 l 1xaa40
 878 220 l 1
 878 293 l 1
 951 293 l 1
 1024 293 l 1
 1024 220 l 1
 1024 147 l 1
 951 147 l 1x6240
 878 147 l 1
 878 74 l 1
 878 1 l 1
 659 1 l 1
 440 1 l 1
 440 74 l 1xa140
 440 147 l 1xa2
 366 147 l 1x62
 292 147 l 1
 292 74 l 1
 292 1 l 1
 219 1 l 1
 146 1 l 1
 146 74 l 1
 146 147 l 1
 219 147 l 1
 292 147 l 1xa4
 292 440 l 1
 292 732 l 1xa2
 219 732 l 1
 146 732 l 1
 146 805 l 1
 146 878 l 1xa4
 219 878 l 1
 292 878 l 1
 292 1098 l 1
 292 1318 l 1
 366 1318 l 1
 440 1318 l 1xaa
 440 1391 l 1xa9
EndSplineSet
Validated: 5
EndChar

StartChar: currency
Encoding: 164 164 99
Width: 1170
VWidth: 0
Flags: HW
HStem: 1 146<0 146.286 878.007 1024.29> 147 146<292.571 731.721> 732 146<292.571 731.721> 878 146<0 146.286 878.007 1024.29>
VStem: 0 146<0.857422 147.143 878.279 1024.56> 146 146<293.136 731.993> 732 146<293.136 731.993> 878 146<0.857422 147.143 878.279 1024.56>
LayerCount: 2
Back
Fore
SplineSet
0 951 m 1x98
 0 1024 l 1
 73 1024 l 1
 146 1024 l 1
 146 951 l 1
 146 878 l 1x98
 512 878 l 1x28
 878 878 l 1
 878 951 l 1
 878 1024 l 1
 951 1024 l 1
 1024 1024 l 1
 1024 951 l 1
 1024 878 l 1
 951 878 l 1
 878 878 l 1x19
 878 513 l 1x12
 878 147 l 1
 951 147 l 1
 1024 147 l 1
 1024 74 l 1
 1024 1 l 1
 951 1 l 1
 878 1 l 1
 878 74 l 1
 878 147 l 1x91
 512 147 l 1x41
 146 147 l 1
 146 74 l 1
 146 1 l 1
 73 1 l 1
 0 1 l 1
 0 74 l 1
 0 147 l 1
 73 147 l 1
 146 147 l 1x89
 146 513 l 1x84
 146 878 l 1
 73 878 l 1
 0 878 l 1
 0 951 l 1x98
732 513 m 1x66
 732 732 l 1
 512 732 l 1
 292 732 l 1
 292 513 l 1
 292 293 l 1
 512 293 l 1
 732 293 l 1
 732 513 l 1x66
EndSplineSet
Validated: 5
EndChar

StartChar: yen
Encoding: 165 165 100
Width: 1170
VWidth: 0
Flags: HW
HStem: 1 21G<439.149 585.436> 293 146<146.286 439.149 585.436 878.007> 586 146<146.286 439.149 585.436 878.007> 878 146<292.571 439.149 585.436 731.721> 1025 146<146.286 292.571 731.721 878.007> 1171 293<0 146.286 878.007 1024.29>
VStem: 0 146<1170.85 1463.71> 146 146<1024.56 1170.85> 293 147<878.279 1024.56> 439 146<0.857422 293.136 439.422 585.707 731.993 878.279> 585 146<878.279 1024.56> 732 146<1024.56 1170.85> 878 146<1170.85 1463.71>
LayerCount: 2
Back
Fore
SplineSet
0 1317 m 1xe6
 0 1464 l 1
 73 1464 l 1
 146 1464 l 1xe6
 146 1317 l 1
 146 1171 l 1xea
 219 1171 l 1
 292 1171 l 1xe9
 292 1098 l 1
 292 1024 l 1xf1
 366 1024 l 1
 440 1024 l 1
 440 951 l 1
 440 878 l 1xf080
 512 878 l 1
 585 878 l 1xf040
 585 951 l 1
 585 1024 l 1
 659 1024 l 1
 731 1024 l 1xf020
 731 1098 l 1
 731 1171 l 1
 805 1171 l 1
 878 1171 l 1xe810
 878 1317 l 1
 878 1464 l 1
 951 1464 l 1
 1024 1464 l 1
 1024 1317 l 1
 1024 1171 l 1
 951 1171 l 1xe408
 878 1171 l 1
 878 1098 l 1
 878 1024 l 1
 805 1024 l 1xe810
 731 1024 l 1
 731 951 l 1
 731 878 l 1xf020
 659 878 l 1
 585 878 l 1
 585 805 l 1
 585 732 l 1
 731 732 l 1xf050
 878 732 l 1
 878 659 l 1
 878 586 l 1xf008
 731 586 l 1
 585 586 l 1
 585 513 l 1
 585 439 l 1
 731 439 l 1xf050
 878 439 l 1
 878 366 l 1
 878 293 l 1xf008
 731 293 l 1
 585 293 l 1
 585 147 l 1
 585 1 l 1
 512 1 l 1
 440 1 l 1
 440 147 l 1
 440 293 l 1
 293 293 l 1
 146 293 l 1
 146 366 l 1
 146 439 l 1
 293 439 l 1
 440 439 l 1
 440 513 l 1
 440 586 l 1
 293 586 l 1
 146 586 l 1
 146 659 l 1
 146 732 l 1
 293 732 l 1
 440 732 l 1
 440 805 l 1xf150
 440 878 l 1
 366 878 l 1
 292 878 l 1
 292 951 l 1xf080
 292 1024 l 1xf1
 219 1024 l 1
 146 1024 l 1
 146 1098 l 1xe9
 146 1171 l 1xea
 73 1171 l 1
 0 1171 l 1
 0 1317 l 1xe6
EndSplineSet
Validated: 5
EndChar

StartChar: brokenbar
Encoding: 166 166 101
Width: 1170
VWidth: 0
Flags: HW
HStem: 1444 20G<439.149 585.436>
VStem: 439 146<-291.714 439.422 731.993 1463.71>
LayerCount: 2
Back
Fore
SplineSet
439 74 m 1
 439 439 l 1
 512 439 l 1
 585 439 l 1
 585 74 l 1
 585 -292 l 1
 512 -292 l 1
 439 -292 l 1
 439 74 l 1
439 1098 m 1
 439 1464 l 1
 512 1464 l 1
 585 1464 l 1
 585 1098 l 1
 585 732 l 1
 512 732 l 1
 439 732 l 1
 439 1098 l 1
EndSplineSet
Validated: 1
EndChar

StartChar: section
Encoding: 167 167 102
Width: 1170
VWidth: 0
Flags: HW
HStem: -292 146<292.571 731.721> -145 293<731.721 878.007> -145 146<146.286 292.571> 147 146<439.149 731.721> 293 146<292.571 439.149> 732 146<585.436 731.721> 878 146<292.571 585.436> 1025 293<146.286 292.571> 1171 147<731.721 878.007> 1317 146<292.571 731.721>
VStem: 146 146<-145.429 0.857422 439.422 878.279 1024.56 1317.43> 293 293<878.279 1024.56> 293 147<293.136 439.422> 439 293<147.143 293.136> 585 146<731.993 878.279> 732 146<-145.429 147.143 293.136 731.993 1170.85 1317.43>
LayerCount: 2
Back
Fore
SplineSet
292 1391 m 1x0108
 292 1463 l 1
 512 1463 l 1
 732 1463 l 1x0049
 732 1391 l 1
 732 1318 l 1
 805 1318 l 1
 878 1318 l 1
 878 1244 l 1
 878 1171 l 1
 805 1171 l 1
 732 1171 l 1
 732 1244 l 1
 732 1318 l 1x0089
 512 1318 l 1x0049
 292 1318 l 1x0121
 292 1171 l 1
 292 1024 l 1x0221
 439 1024 l 1
 586 1024 l 1x0210
 586 951 l 1
 586 878 l 1x0410
 659 878 l 1
 732 878 l 1
 732 805 l 1
 732 732 l 1x0402
 805 732 l 1
 878 732 l 1
 878 513 l 1
 878 293 l 1
 805 293 l 1x0c01
 732 293 l 1x1004
 732 220 l 1
 732 148 l 1x4004
 805 148 l 1
 878 148 l 1x4001
 878 1 l 1x2001
 878 -146 l 1
 805 -146 l 1x4001
 732 -146 l 1
 732 -219 l 1
 732 -292 l 1
 512 -292 l 1
 292 -292 l 1
 292 -219 l 1x8009
 292 -146 l 1x8020
 219 -146 l 1
 146 -146 l 1
 146 -72 l 1
 146 1 l 1
 219 1 l 1
 292 1 l 1x2020
 292 -72 l 1
 292 -146 l 1
 512 -146 l 1
 732 -146 l 1x8021
 732 1 l 1x2021
 732 148 l 1x4004
 586 148 l 1x1002
 440 148 l 1
 440 220 l 1x1004
 440 293 l 1x1008
 366 293 l 1
 292 293 l 1
 292 366 l 1x0808
 292 439 l 1
 219 439 l 1
 146 439 l 1
 146 659 l 1
 146 878 l 1
 219 878 l 1
 292 878 l 1x0a20
 292 951 l 1x0a10
 292 1024 l 1x0a20
 219 1024 l 1
 146 1024 l 1
 146 1171 l 1
 146 1318 l 1
 219 1318 l 1
 292 1318 l 1x0120
 292 1391 l 1x0108
586 805 m 1x1402
 586 878 l 1x1410
 439 878 l 1
 292 878 l 1
 292 659 l 1
 292 439 l 1x0a20
 366 439 l 1
 440 439 l 1x0a08
 440 366 l 1
 440 293 l 1
 586 293 l 1x100a
 732 293 l 1x1004
 732 513 l 1x1001
 732 732 l 1
 659 732 l 1
 586 732 l 1
 586 805 l 1x1402
EndSplineSet
Validated: 5
EndChar

StartChar: dieresis
Encoding: 168 168 103
Width: 1170
VWidth: 0
Flags: HW
HStem: 1171 293<292.571 439.149 731.721 878.007>
VStem: 293 147<1170.85 1463.71> 732 146<1170.85 1463.71>
LayerCount: 2
Back
Fore
SplineSet
732 1317 m 1
 732 1464 l 1
 805 1464 l 1
 878 1464 l 1
 878 1317 l 1
 878 1171 l 1
 805 1171 l 1
 732 1171 l 1
 732 1317 l 1
293 1317 m 1
 293 1464 l 1
 366 1464 l 1
 440 1464 l 1
 440 1317 l 1
 440 1171 l 1
 366 1171 l 1
 293 1171 l 1
 293 1317 l 1
EndSplineSet
Validated: 1
EndChar

StartChar: copyright
Encoding: 169 169 104
Width: 1170
VWidth: 0
Flags: HW
HStem: 1 146<292.571 878.007> 147 146<146.286 292.571 878.007 1024.29> 293 146<439.149 731.721> 439 146<731.721 878.007> 732 146<731.721 878.007> 878 146<439.149 731.721> 1025 146<146.286 292.571 878.007 1024.29> 1171 147<292.571 878.007>
VStem: 0 146<293.136 1024.56> 146 146<147.143 293.136 1024.56 1170.85> 293 147<439.422 878.279> 439 293<293.136 439.422 878.279 1024.56> 732 146<439.422 585.707 731.993 878.279> 878 146<147.143 293.136 1024.56 1170.85> 1024 146<293.136 1024.56>
LayerCount: 2
Back
Fore
SplineSet
440 951 m 1x1410
 440 1024 l 1
 585 1024 l 1
 732 1024 l 1x1410
 732 951 l 1
 732 878 l 1x0810
 805 878 l 1
 878 878 l 1
 878 805 l 1
 878 732 l 1
 805 732 l 1
 732 732 l 1
 732 805 l 1x0808
 732 878 l 1x0810
 585 878 l 1
 440 878 l 1
 440 659 l 1
 440 439 l 1x2420
 585 439 l 1
 732 439 l 1x2410
 732 513 l 1
 732 585 l 1
 805 585 l 1
 878 585 l 1
 878 513 l 1
 878 439 l 1
 805 439 l 1x1008
 732 439 l 1
 732 366 l 1
 732 293 l 1
 585 293 l 1
 440 293 l 1
 440 366 l 1x2010
 440 439 l 1x2020
 366 439 l 1
 292 439 l 1
 292 659 l 1
 292 878 l 1
 366 878 l 1
 440 878 l 1x1420
 440 951 l 1x1410
292 1244 m 1x2220
 292 1318 l 1
 585 1318 l 1
 878 1318 l 1x0124
 878 1244 l 1
 878 1171 l 1
 951 1171 l 1
 1024 1171 l 1
 1024 1098 l 1
 1024 1024 l 1x0224
 1097 1024 l 1
 1170 1024 l 1
 1170 659 l 1
 1170 293 l 1
 1097 293 l 1x2202
 1024 293 l 1
 1024 220 l 1
 1024 147 l 1
 951 147 l 1x4004
 878 147 l 1
 878 74 l 1
 878 1 l 1
 585 1 l 1
 292 1 l 1
 292 74 l 1x8024
 292 147 l 1x8040
 219 147 l 1
 146 147 l 1
 146 220 l 1x4040
 146 293 l 1x4080
 73 293 l 1
 0 293 l 1
 0 659 l 1
 0 1024 l 1
 73 1024 l 1
 146 1024 l 1x2280
 146 1098 l 1
 146 1171 l 1
 219 1171 l 1
 292 1171 l 1x2240
 292 1244 l 1x2220
878 1098 m 1
 878 1171 l 1x4204
 585 1171 l 1x0104
 292 1171 l 1
 292 1098 l 1
 292 1024 l 1x0244
 219 1024 l 1
 146 1024 l 1
 146 659 l 1
 146 293 l 1x4280
 219 293 l 1
 292 293 l 1x4240
 292 220 l 1
 292 147 l 1
 585 147 l 1
 878 147 l 1x8044
 878 220 l 1
 878 293 l 1
 951 293 l 1
 1024 293 l 1x4044
 1024 659 l 1x4002
 1024 1024 l 1
 951 1024 l 1
 878 1024 l 1x4204
 878 1098 l 1
EndSplineSet
Validated: 5
EndChar

StartChar: ordfeminine
Encoding: 170 170 105
Width: 1170
VWidth: 0
Flags: HW
HStem: 439 146<146.286 878.007> 732 146<292.571 731.721> 878 146<146.286 292.571> 1025 146<292.571 731.721> 1317 146<292.571 731.721>
VStem: 146 146<878.279 1024.56> 732 146<878.279 1024.56 1170.85 1317.43>
LayerCount: 2
Back
Fore
SplineSet
146 513 m 1x8e
 146 585 l 1
 512 585 l 1
 878 585 l 1
 878 513 l 1
 878 439 l 1
 512 439 l 1
 146 439 l 1
 146 513 l 1x8e
292 1391 m 1
 292 1463 l 1
 512 1463 l 1
 732 1463 l 1
 732 1391 l 1
 732 1317 l 1
 805 1317 l 1
 878 1317 l 1
 878 1025 l 1
 878 732 l 1
 585 732 l 1
 292 732 l 1
 292 805 l 1
 292 878 l 1xde
 219 878 l 1
 146 878 l 1
 146 951 l 1
 146 1024 l 1
 219 1024 l 1
 292 1024 l 1xae
 292 1098 l 1
 292 1171 l 1
 512 1171 l 1
 732 1171 l 1x9e
 732 1244 l 1
 732 1317 l 1
 512 1317 l 1
 292 1317 l 1
 292 1391 l 1
732 951 m 1
 732 1024 l 1
 512 1024 l 1xde
 292 1024 l 1xae
 292 951 l 1
 292 878 l 1
 512 878 l 1
 732 878 l 1
 732 951 l 1
EndSplineSet
Validated: 5
EndChar

StartChar: guillemotleft
Encoding: 171 171 106
Width: 1170
VWidth: 0
Flags: HW
HStem: 1 146<439.149 585.436 878.007 1024.29> 147 146<292.571 439.149 731.721 878.007> 293 146<146.286 292.571 585.436 731.721> 439 146<0 146.286 439.149 585.436> 586 146<146.286 292.571 585.436 731.721> 732 146<292.571 439.149 731.721 878.007> 878 146<439.149 585.436 878.007 1024.29>
VStem: 0 146<439.422 585.707> 146 146<293.136 439.422 585.707 731.993> 293 147<147.143 293.136 731.993 878.279> 439 146<0.857422 147.143 439.422 585.707 878.279 1024.56> 585 146<293.136 439.422 585.707 731.993> 732 146<147.143 293.136 731.993 878.279> 878 146<0.857422 147.143 878.279 1024.56>
LayerCount: 2
Back
Fore
SplineSet
878 951 m 1x0404
 878 1024 l 1
 951 1024 l 1
 1024 1024 l 1
 1024 951 l 1
 1024 878 l 1
 951 878 l 1x0204
 878 878 l 1
 878 805 l 1
 878 732 l 1
 805 732 l 1x0408
 731 732 l 1
 731 659 l 1
 731 585 l 1
 659 585 l 1x0810
 585 585 l 1x1020
 585 513 l 1
 585 439 l 1x2020
 659 439 l 1
 731 439 l 1x2010
 731 366 l 1
 731 293 l 1x4010
 805 293 l 1
 878 293 l 1x4008
 878 220 l 1
 878 147 l 1x8008
 951 147 l 1
 1024 147 l 1
 1024 74 l 1
 1024 1 l 1
 951 1 l 1
 878 1 l 1
 878 74 l 1x8004
 878 147 l 1x8008
 805 147 l 1
 731 147 l 1
 731 220 l 1x4008
 731 293 l 1x4010
 659 293 l 1
 585 293 l 1
 585 366 l 1x2010
 585 439 l 1x2020
 512 439 l 1
 440 439 l 1
 440 513 l 1
 440 585 l 1
 512 585 l 1
 585 585 l 1x1020
 585 659 l 1
 585 732 l 1
 659 732 l 1
 731 732 l 1x0810
 731 805 l 1
 731 878 l 1
 805 878 l 1
 878 878 l 1x0408
 878 951 l 1x0404
440 951 m 1x0420
 440 1024 l 1
 512 1024 l 1
 585 1024 l 1
 585 951 l 1
 585 878 l 1
 512 878 l 1x0220
 440 878 l 1
 440 805 l 1
 440 732 l 1
 366 732 l 1x0440
 292 732 l 1
 292 659 l 1
 292 585 l 1
 219 585 l 1x0880
 146 585 l 1x11
 146 513 l 1
 146 439 l 1x21
 219 439 l 1
 292 439 l 1x2080
 292 366 l 1
 292 293 l 1x4080
 366 293 l 1
 440 293 l 1x4040
 440 220 l 1
 440 147 l 1x8040
 512 147 l 1
 585 147 l 1
 585 74 l 1
 585 1 l 1
 512 1 l 1
 440 1 l 1
 440 74 l 1x8020
 440 147 l 1x8040
 366 147 l 1
 292 147 l 1
 292 220 l 1x4040
 292 293 l 1x4080
 219 293 l 1
 146 293 l 1
 146 366 l 1x2080
 146 439 l 1x21
 73 439 l 1
 0 439 l 1
 0 513 l 1
 0 585 l 1
 73 585 l 1
 146 585 l 1x11
 146 659 l 1
 146 732 l 1
 219 732 l 1
 292 732 l 1x0880
 292 805 l 1
 292 878 l 1
 366 878 l 1
 440 878 l 1x0440
 440 951 l 1x0420
EndSplineSet
Validated: 5
EndChar

StartChar: logicalnot
Encoding: 172 172 107
Width: 1170
VWidth: 0
Flags: HW
HStem: 732 146<146.286 878.007>
VStem: 878 146<293.136 731.993>
LayerCount: 2
Back
Fore
SplineSet
146 805 m 1
 146 878 l 1
 585 878 l 1
 1024 878 l 1
 1024 586 l 1
 1024 293 l 1
 951 293 l 1
 878 293 l 1
 878 513 l 1
 878 732 l 1
 512 732 l 1
 146 732 l 1
 146 805 l 1
EndSplineSet
Validated: 1
EndChar

StartChar: softhyphen
Encoding: 173 173 108
Width: 1170
VWidth: 0
Flags: HW
HStem: 439 146<292.571 878.007>
VStem: 293 585<439.422 585.707>
LayerCount: 2
Back
Fore
SplineSet
293 513 m 1
 293 585 l 1
 585 585 l 1
 878 585 l 1
 878 513 l 1
 878 439 l 1
 585 439 l 1
 293 439 l 1
 293 513 l 1
EndSplineSet
Validated: 1
EndChar

StartChar: registered
Encoding: 174 174 109
Width: 1170
VWidth: 0
Flags: HW
HStem: 1 146<292.571 878.007> 147 146<146.286 292.571 878.007 1024.29> 293 146<731.721 878.007> 439 293<585.436 731.721> 586 146<439.149 585.436> 732 146<731.721 878.007> 878 146<439.149 731.721> 1025 146<146.286 292.571 878.007 1024.29> 1171 147<292.571 878.007>
VStem: 0 146<293.136 1024.56> 146 146<147.143 293.136 1024.56 1170.85> 293 147<293.136 585.707 731.993 878.279> 585 146<439.422 585.707> 732 146<293.136 439.422 731.993 878.279> 878 146<147.143 293.136 1024.56 1170.85> 1024 146<293.136 1024.56>
LayerCount: 2
Back
Fore
SplineSet
292 659 m 1x4010
 292 1024 l 1x4120
 512 1024 l 1
 731 1024 l 1x0224
 731 951 l 1
 731 878 l 1
 805 878 l 1
 878 878 l 1
 878 805 l 1
 878 732 l 1
 805 732 l 1x0424
 731 732 l 1x1024
 731 586 l 1
 731 439 l 1x2808
 805 439 l 1
 878 439 l 1x2804
 878 366 l 1
 878 293 l 1x4004
 805 293 l 1
 731 293 l 1
 731 366 l 1x2004
 731 439 l 1x2008
 659 439 l 1
 585 439 l 1x1008
 585 513 l 1
 585 586 l 1
 512 586 l 1
 440 586 l 1x0818
 440 439 l 1x1018
 440 293 l 1
 366 293 l 1x2018
 292 293 l 1x4020
 292 659 l 1x4010
731 805 m 1x1004
 731 878 l 1x0404
 585 878 l 1
 440 878 l 1
 440 805 l 1
 440 732 l 1x0a18
 585 732 l 1x1018
 731 732 l 1
 731 805 l 1x1004
292 1244 m 1x2110
 292 1318 l 1
 585 1318 l 1
 878 1318 l 1x0092
 878 1244 l 1
 878 1171 l 1
 951 1171 l 1
 1024 1171 l 1
 1024 1098 l 1
 1024 1024 l 1x0112
 1097 1024 l 1
 1170 1024 l 1
 1170 659 l 1
 1170 293 l 1
 1097 293 l 1x2101
 1024 293 l 1
 1024 220 l 1
 1024 147 l 1
 951 147 l 1x4002
 878 147 l 1
 878 74 l 1
 878 1 l 1
 585 1 l 1
 292 1 l 1
 292 74 l 1x8012
 292 147 l 1x8020
 219 147 l 1
 146 147 l 1
 146 220 l 1x4020
 146 293 l 1x4040
 73 293 l 1
 0 293 l 1
 0 659 l 1
 0 1024 l 1
 73 1024 l 1
 146 1024 l 1x2140
 146 1098 l 1
 146 1171 l 1
 219 1171 l 1
 292 1171 l 1x2120
 292 1244 l 1x2110
878 1098 m 1
 878 1171 l 1x4102
 585 1171 l 1x0082
 292 1171 l 1
 292 1098 l 1
 292 1024 l 1x0122
 219 1024 l 1
 146 1024 l 1
 146 659 l 1
 146 293 l 1x4140
 219 293 l 1
 292 293 l 1x4120
 292 220 l 1
 292 147 l 1
 585 147 l 1
 878 147 l 1
 878 220 l 1x8022
 878 293 l 1x4004
 951 293 l 1
 1024 293 l 1x4002
 1024 659 l 1x4001
 1024 1024 l 1
 951 1024 l 1
 878 1024 l 1x4102
 878 1098 l 1
EndSplineSet
Validated: 5
EndChar

StartChar: macron
Encoding: 175 175 110
Width: 1170
VWidth: 0
Flags: HW
HStem: 1317 146<146.286 1024.29>
LayerCount: 2
Back
Fore
SplineSet
146 1391 m 1
 146 1463 l 1
 585 1463 l 1
 1024 1463 l 1
 1024 1391 l 1
 1024 1317 l 1
 585 1317 l 1
 146 1317 l 1
 146 1391 l 1
EndSplineSet
Validated: 1
EndChar

StartChar: degree
Encoding: 176 176 111
Width: 1170
VWidth: 0
Flags: HW
HStem: 878 146<439.149 731.721> 1025 293<292.571 439.149 731.721 878.007> 1317 146<439.149 731.721>
VStem: 293 147<1024.56 1317.43> 439 293<878.279 1024.56 1317.43 1463.71> 732 146<1024.56 1317.43>
LayerCount: 2
Back
Fore
SplineSet
440 1391 m 1x48
 440 1463 l 1
 585 1463 l 1
 732 1463 l 1x28
 732 1391 l 1
 732 1318 l 1x48
 805 1318 l 1
 878 1318 l 1
 878 1171 l 1
 878 1024 l 1
 805 1024 l 1x44
 732 1024 l 1
 732 951 l 1
 732 878 l 1
 585 878 l 1
 440 878 l 1
 440 951 l 1x88
 440 1024 l 1x90
 366 1024 l 1
 293 1024 l 1
 293 1171 l 1
 293 1318 l 1
 366 1318 l 1
 440 1318 l 1x50
 440 1391 l 1x48
732 1171 m 1x84
 732 1318 l 1x48
 585 1318 l 1x28
 440 1318 l 1x50
 440 1171 l 1
 440 1024 l 1x90
 585 1024 l 1
 732 1024 l 1x88
 732 1171 l 1x84
EndSplineSet
Validated: 5
EndChar

StartChar: plusminus
Encoding: 177 177 112
Width: 1170
VWidth: 0
Flags: HW
HStem: 1 146<146.286 878.007> 586 146<146.286 439.149 585.436 878.007> 1005 20G<439.149 585.436>
VStem: 439 146<293.136 585.707 731.993 1024.56>
LayerCount: 2
Back
Fore
SplineSet
146 74 m 1
 146 147 l 1
 512 147 l 1
 878 147 l 1
 878 74 l 1
 878 1 l 1
 512 1 l 1
 146 1 l 1
 146 74 l 1
439 878 m 1
 439 1025 l 1
 512 1025 l 1
 585 1025 l 1
 585 878 l 1
 585 732 l 1
 732 732 l 1
 878 732 l 1
 878 659 l 1
 878 586 l 1
 732 586 l 1
 585 586 l 1
 585 439 l 1
 585 293 l 1
 512 293 l 1
 439 293 l 1
 439 439 l 1
 439 586 l 1
 293 586 l 1
 146 586 l 1
 146 659 l 1
 146 732 l 1
 293 732 l 1
 439 732 l 1
 439 878 l 1
EndSplineSet
Validated: 1
EndChar

StartChar: twosuperior
Encoding: 178 178 113
Width: 1170
VWidth: 0
Flags: HW
HStem: 732 146<292.571 439.149 585.436 878.007> 1025 146<585.436 731.721> 1171 147<292.571 439.149 731.721 878.007> 1317 146<439.149 731.721>
VStem: 293 147<1170.85 1317.43> 439 146<878.279 1024.56> 585 146<1024.56 1170.85> 732 146<1170.85 1317.43>
LayerCount: 2
Back
Fore
SplineSet
440 1391 m 1xa4
 440 1463 l 1x94
 585 1463 l 1x92
 731 1463 l 1x91
 731 1391 l 1
 731 1318 l 1
 805 1318 l 1
 878 1318 l 1
 878 1244 l 1
 878 1171 l 1
 805 1171 l 1xa1
 731 1171 l 1
 731 1098 l 1
 731 1025 l 1xc2
 659 1025 l 1
 585 1025 l 1
 585 951 l 1
 585 878 l 1xc4
 731 878 l 1
 878 878 l 1
 878 805 l 1
 878 732 l 1
 585 732 l 1
 293 732 l 1
 293 805 l 1
 293 878 l 1xc9
 366 878 l 1
 440 878 l 1
 440 951 l 1
 440 1025 l 1
 512 1025 l 1
 585 1025 l 1xc4
 585 1098 l 1
 585 1171 l 1
 659 1171 l 1
 731 1171 l 1xc2
 731 1244 l 1
 731 1318 l 1xa1
 585 1318 l 1x92
 440 1318 l 1
 440 1244 l 1
 440 1171 l 1
 366 1171 l 1
 293 1171 l 1
 293 1244 l 1
 293 1318 l 1
 366 1318 l 1
 440 1318 l 1xaa
 440 1391 l 1xa4
EndSplineSet
Validated: 5
EndChar

StartChar: threesuperior
Encoding: 179 179 114
Width: 1170
VWidth: 0
Flags: HW
HStem: 732 146<292.571 731.721> 878 146<731.721 878.007> 1025 146<439.149 731.721> 1171 147<731.721 878.007> 1317 146<292.571 731.721>
VStem: 293 439<731.993 878.279 1317.43 1463.71> 439 293<1024.56 1170.85> 732 146<878.279 1024.56 1170.85 1317.43>
LayerCount: 2
Back
Fore
SplineSet
293 1391 m 1x0c
 293 1463 l 1
 512 1463 l 1
 732 1463 l 1x0c
 732 1391 l 1
 732 1318 l 1x14
 805 1318 l 1
 878 1318 l 1
 878 1244 l 1
 878 1171 l 1
 805 1171 l 1x11
 732 1171 l 1x22
 732 1098 l 1
 732 1024 l 1x42
 805 1024 l 1
 878 1024 l 1
 878 951 l 1
 878 878 l 1
 805 878 l 1x41
 732 878 l 1
 732 805 l 1
 732 732 l 1
 512 732 l 1
 293 732 l 1
 293 805 l 1
 293 878 l 1
 512 878 l 1
 732 878 l 1x84
 732 951 l 1x81
 732 1024 l 1x42
 585 1024 l 1
 439 1024 l 1
 439 1098 l 1
 439 1171 l 1
 585 1171 l 1
 732 1171 l 1x22
 732 1244 l 1x21
 732 1318 l 1x14
 512 1318 l 1
 293 1318 l 1
 293 1391 l 1x0c
EndSplineSet
Validated: 5
EndChar

StartChar: acute
Encoding: 180 180 115
Width: 1170
VWidth: 0
Flags: HW
HStem: 1317 146<439.149 585.436> 1464 146<585.436 731.721>
VStem: 439 146<1317.43 1463.71> 585 146<1463.71 1610>
LayerCount: 2
Back
Fore
SplineSet
585 1537 m 1x90
 585 1610 l 1
 659 1610 l 1
 731 1610 l 1
 731 1537 l 1
 731 1463 l 1
 659 1463 l 1x50
 585 1463 l 1
 585 1391 l 1
 585 1317 l 1
 512 1317 l 1
 439 1317 l 1
 439 1391 l 1
 439 1463 l 1
 512 1463 l 1
 585 1463 l 1xa0
 585 1537 l 1x90
EndSplineSet
Validated: 5
EndChar

StartChar: mu
Encoding: 956 956 116
Width: 1170
VWidth: 0
Flags: HW
HStem: -438 21G<146.286 292.571> 1 146<292.571 731.721> 147 146<731.721 878.007> 1005 20G<146.286 292.571 878.007 1024.29>
VStem: 146 146<-438 0.857422 147.143 1024.56> 732 293<147.143 293.136> 878 146<0.857422 147.143 293.136 1024.56>
LayerCount: 2
Back
Fore
SplineSet
146 293 m 1xdc
 146 1025 l 1
 219 1025 l 1
 292 1025 l 1
 292 586 l 1
 292 147 l 1
 512 147 l 1
 732 147 l 1xdc
 732 220 l 1
 732 293 l 1xbc
 805 293 l 1
 878 293 l 1xba
 878 659 l 1
 878 1025 l 1
 951 1025 l 1
 1025 1025 l 1
 1025 513 l 1
 1025 1 l 1
 951 1 l 1
 878 1 l 1xda
 878 74 l 1
 878 147 l 1
 805 147 l 1xba
 732 147 l 1
 732 74 l 1
 732 1 l 1
 512 1 l 1
 292 1 l 1
 292 -219 l 1
 292 -438 l 1
 219 -438 l 1
 146 -438 l 1
 146 293 l 1xdc
EndSplineSet
Validated: 4194309
EndChar

StartChar: paragraph
Encoding: 182 182 117
Width: 1170
VWidth: 0
Flags: HW
HStem: 1 21G<439.149 585.436 878.007 1024.29> 1317 146<585.436 878.007>
VStem: 0 585<731.993 1317.43> 439 146<0.857422 585.707> 878 146<0.857422 1317.43>
LayerCount: 2
Back
Fore
SplineSet
146 1391 m 1xe8
 146 1463 l 1
 585 1463 l 1
 1024 1463 l 1
 1024 732 l 1
 1024 1 l 1
 951 1 l 1
 878 1 l 1
 878 659 l 1
 878 1317 l 1
 732 1317 l 1
 585 1317 l 1xe8
 585 659 l 1
 585 1 l 1
 512 1 l 1
 439 1 l 1
 439 293 l 1
 439 586 l 1xd8
 293 586 l 1
 146 586 l 1
 146 659 l 1
 146 732 l 1
 73 732 l 1
 0 732 l 1
 0 1025 l 1
 0 1317 l 1
 73 1317 l 1
 146 1317 l 1
 146 1391 l 1xe8
EndSplineSet
Validated: 1
EndChar

StartChar: periodcentered
Encoding: 183 183 118
Width: 1170
VWidth: 0
Flags: HW
HStem: 439 293<292.571 585.436>
VStem: 293 293<439.422 731.993>
LayerCount: 2
Back
Fore
SplineSet
293 586 m 1
 293 732 l 1
 439 732 l 1
 586 732 l 1
 586 586 l 1
 586 439 l 1
 439 439 l 1
 293 439 l 1
 293 586 l 1
EndSplineSet
Validated: 1
EndChar

StartChar: cedilla
Encoding: 184 184 119
Width: 1170
VWidth: 0
Flags: HW
HStem: -438 146<292.571 439.149> -292 293<439.149 585.436>
VStem: 293 147<-438 -291.714> 439 146<-291.714 0.857422>
LayerCount: 2
Back
Fore
SplineSet
440 -145 m 1x90
 440 1 l 1
 512 1 l 1
 585 1 l 1
 585 -145 l 1
 585 -292 l 1
 512 -292 l 1x50
 440 -292 l 1
 440 -365 l 1
 440 -438 l 1
 366 -438 l 1
 293 -438 l 1
 293 -365 l 1
 293 -292 l 1
 366 -292 l 1
 440 -292 l 1xa0
 440 -145 l 1x90
EndSplineSet
Validated: 5
EndChar

StartChar: onesuperior
Encoding: 185 185 120
Width: 1170
VWidth: 0
Flags: HW
HStem: 732 146<292.571 439.149 585.436 731.721> 1171 147<292.571 439.149> 1444 20G<439.149 585.436>
VStem: 293 293<1170.85 1317.43> 439 146<878.279 1170.85 1317.43 1463.71>
LayerCount: 2
Back
Fore
SplineSet
439 1391 m 1xe8
 439 1464 l 1
 512 1464 l 1
 586 1464 l 1xe8
 586 1171 l 1xf0
 586 878 l 1xe8
 659 878 l 1
 732 878 l 1
 732 805 l 1
 732 732 l 1
 512 732 l 1
 293 732 l 1
 293 805 l 1
 293 878 l 1xf0
 366 878 l 1
 439 878 l 1
 439 1025 l 1
 439 1171 l 1xe8
 366 1171 l 1
 293 1171 l 1
 293 1244 l 1
 293 1318 l 1xf0
 366 1318 l 1
 439 1318 l 1
 439 1391 l 1xe8
EndSplineSet
Validated: 1
EndChar

StartChar: ordmasculine
Encoding: 186 186 121
Width: 1170
VWidth: 0
Flags: HW
HStem: 439 146<146.286 878.007> 732 146<292.571 731.721> 878 439<146.286 292.571 731.721 878.007> 1317 146<292.571 731.721>
VStem: 146 146<878.279 1317.43> 293 439<731.993 878.279 1317.43 1463.71> 732 146<878.279 1317.43>
LayerCount: 2
Back
Fore
SplineSet
146 513 m 1x8a
 146 585 l 1
 512 585 l 1
 878 585 l 1
 878 513 l 1
 878 439 l 1
 512 439 l 1
 146 439 l 1
 146 513 l 1x8a
292 1391 m 1xa4
 292 1463 l 1
 512 1463 l 1
 732 1463 l 1x94
 732 1391 l 1
 732 1317 l 1xa4
 805 1317 l 1
 878 1317 l 1
 878 1098 l 1
 878 878 l 1
 805 878 l 1xa2
 732 878 l 1
 732 805 l 1
 732 732 l 1
 512 732 l 1
 292 732 l 1
 292 805 l 1xc4
 292 878 l 1xc8
 219 878 l 1
 146 878 l 1
 146 1098 l 1
 146 1317 l 1
 219 1317 l 1
 292 1317 l 1xa8
 292 1391 l 1xa4
732 1098 m 1xc2
 732 1317 l 1xa4
 512 1317 l 1x94
 292 1317 l 1xa8
 292 1098 l 1
 292 878 l 1xc8
 512 878 l 1
 732 878 l 1xc4
 732 1098 l 1xc2
EndSplineSet
Validated: 5
EndChar

StartChar: guillemotright
Encoding: 187 187 122
Width: 1170
VWidth: 0
Flags: HW
HStem: 1 146<0 146.286 439.149 585.436> 147 146<146.286 292.571 585.436 731.721> 293 146<292.571 439.149 731.721 878.007> 439 146<439.149 585.436 878.007 1024.29> 586 146<292.571 439.149 731.721 878.007> 732 146<146.286 292.571 585.436 731.721> 878 146<0 146.286 439.149 585.436>
VStem: 0 146<0.857422 147.143 878.279 1024.56> 146 146<147.143 293.136 731.993 878.279> 293 147<293.136 439.422 585.707 731.993> 439 146<0.857422 147.143 439.422 585.707 878.279 1024.56> 585 146<147.143 293.136 731.993 878.279> 732 146<293.136 439.422 585.707 731.993> 878 146<439.422 585.707>
LayerCount: 2
Back
Fore
SplineSet
440 951 m 1x0220
 440 1024 l 1
 512 1024 l 1
 585 1024 l 1x0220
 585 951 l 1
 585 878 l 1x0420
 659 878 l 1
 731 878 l 1x0410
 731 805 l 1
 731 732 l 1x0810
 805 732 l 1
 878 732 l 1x0808
 878 659 l 1
 878 585 l 1x1008
 951 585 l 1
 1024 585 l 1
 1024 513 l 1
 1024 439 l 1
 951 439 l 1x1004
 878 439 l 1
 878 366 l 1
 878 293 l 1
 805 293 l 1x2008
 731 293 l 1
 731 220 l 1
 731 147 l 1
 659 147 l 1x4010
 585 147 l 1
 585 74 l 1
 585 1 l 1
 512 1 l 1
 440 1 l 1
 440 74 l 1
 440 147 l 1
 512 147 l 1
 585 147 l 1x8020
 585 220 l 1
 585 293 l 1
 659 293 l 1
 731 293 l 1x4010
 731 366 l 1
 731 439 l 1
 805 439 l 1
 878 439 l 1x2008
 878 513 l 1x2004
 878 585 l 1x1008
 805 585 l 1
 731 585 l 1
 731 659 l 1x0808
 731 732 l 1x0810
 659 732 l 1
 585 732 l 1
 585 805 l 1x0410
 585 878 l 1x0420
 512 878 l 1
 440 878 l 1
 440 951 l 1x0220
0 951 m 1x03
 0 1024 l 1
 73 1024 l 1
 146 1024 l 1x03
 146 951 l 1
 146 878 l 1x05
 219 878 l 1
 292 878 l 1x0480
 292 805 l 1
 292 732 l 1x0880
 366 732 l 1
 440 732 l 1x0840
 440 659 l 1
 440 585 l 1x1040
 512 585 l 1
 585 585 l 1
 585 513 l 1
 585 439 l 1
 512 439 l 1x1020
 440 439 l 1
 440 366 l 1
 440 293 l 1
 366 293 l 1x2040
 292 293 l 1
 292 220 l 1
 292 147 l 1
 219 147 l 1x4080
 146 147 l 1
 146 74 l 1
 146 1 l 1
 73 1 l 1
 0 1 l 1
 0 74 l 1
 0 147 l 1
 73 147 l 1
 146 147 l 1x81
 146 220 l 1
 146 293 l 1
 219 293 l 1
 292 293 l 1x4080
 292 366 l 1
 292 439 l 1
 366 439 l 1
 440 439 l 1x2040
 440 513 l 1x2020
 440 585 l 1x1040
 366 585 l 1
 292 585 l 1
 292 659 l 1x0840
 292 732 l 1x0880
 219 732 l 1
 146 732 l 1
 146 805 l 1x0480
 146 878 l 1x05
 73 878 l 1
 0 878 l 1
 0 951 l 1x03
EndSplineSet
Validated: 5
EndChar

StartChar: onequarter
Encoding: 188 188 123
Width: 1170
VWidth: 0
Flags: HW
HStem: 1 146<439.149 585.436 731.721 878.007> 147 146<0 146.286> 293 146<146.286 292.571 731.721 878.007> 439 146<292.571 439.149> 586 146<439.149 585.436> 732 146<585.436 731.721> 878 146<731.721 878.007> 1025 146<878.007 1024.29> 1317 146<146.286 292.571>
VStem: 0 146<147.143 293.136> 146 146<293.136 439.422> 293 147<439.422 585.707 878.279 1317.43 1463.71 1610> 439 146<585.707 731.993> 585 146<147.143 293.136 731.993 878.279> 732 146<878.279 1024.56> 878 146<-291.714 0.857422 147.143 293.136 439.422 585.707 1024.56 1170.85>
LayerCount: 2
Back
Fore
SplineSet
878 513 m 1xa881
 878 585 l 1
 951 585 l 1
 1024 585 l 1
 1024 147 l 1
 1024 -292 l 1
 951 -292 l 1
 878 -292 l 1
 878 -145 l 1
 878 1 l 1
 659 1 l 1
 440 1 l 1
 440 74 l 1
 440 147 l 1xa889
 512 147 l 1
 585 147 l 1
 585 220 l 1
 585 293 l 1
 659 293 l 1
 731 293 l 1xa884
 731 366 l 1
 731 439 l 1xa882
 805 439 l 1
 878 439 l 1
 878 513 l 1xa881
878 220 m 1
 878 293 l 1
 805 293 l 1
 731 293 l 1
 731 220 l 1
 731 147 l 1xa085
 805 147 l 1
 878 147 l 1
 878 220 l 1
878 1098 m 1
 878 1171 l 1
 951 1171 l 1
 1024 1171 l 1
 1024 1098 l 1
 1024 1024 l 1
 951 1024 l 1x0181
 878 1024 l 1
 878 951 l 1
 878 878 l 1
 805 878 l 1x0282
 731 878 l 1
 731 805 l 1
 731 732 l 1
 659 732 l 1x0484
 585 732 l 1
 585 659 l 1
 585 585 l 1
 512 585 l 1x0888
 440 585 l 1
 440 513 l 1
 440 439 l 1
 366 439 l 1x1090
 292 439 l 1
 292 366 l 1
 292 293 l 1
 219 293 l 1x20a0
 146 293 l 1
 146 220 l 1
 146 147 l 1
 73 147 l 1
 0 147 l 1
 0 220 l 1
 0 293 l 1
 73 293 l 1
 146 293 l 1x40c0
 146 366 l 1
 146 439 l 1
 219 439 l 1
 292 439 l 1x20a0
 292 513 l 1
 292 585 l 1
 366 585 l 1
 440 585 l 1x1090
 440 659 l 1
 440 732 l 1
 512 732 l 1
 585 732 l 1x0888
 585 805 l 1
 585 878 l 1
 659 878 l 1
 731 878 l 1x0484
 731 951 l 1
 731 1024 l 1
 805 1024 l 1
 878 1024 l 1x0282
 878 1098 l 1
292 1537 m 1x0290
 292 1610 l 1
 366 1610 l 1
 440 1610 l 1
 440 1244 l 1
 440 878 l 1
 366 878 l 1
 292 878 l 1
 292 1098 l 1
 292 1317 l 1x0290
 219 1317 l 1
 146 1317 l 1
 146 1391 l 1
 146 1463 l 1x02a0
 219 1463 l 1
 292 1463 l 1
 292 1537 l 1x0290
EndSplineSet
Validated: 5
EndChar

StartChar: onehalf
Encoding: 189 189 124
Width: 1170
VWidth: 0
Flags: HW
HStem: -292 293<585.436 731.721> -292 146<439.149 585.436 731.721 1024.29> 1 146<731.721 878.007> 147 146<0 146.286 439.149 585.436 878.007 1024.29> 293 146<146.286 292.571 585.436 878.007> 439 146<292.571 439.149> 586 146<439.149 585.436> 732 146<585.436 731.721> 878 146<731.721 878.007> 1025 146<878.007 1024.29> 1317 146<146.286 292.571>
VStem: 0 146<147.143 293.136> 146 146<293.136 439.422> 293 147<439.422 585.707 878.279 1317.43 1463.71 1610> 439 146<147.143 293.136 585.707 731.993> 585 146<-145.429 0.857422 731.993 878.279> 732 146<0.857422 147.143 878.279 1024.56> 878 146<147.143 293.136 1024.56 1170.85>
LayerCount: 2
Back
Fore
SplineSet
585 366 m 1x1021
 585 439 l 1x0821
 731 439 l 1x082080
 878 439 l 1x082040
 878 366 l 1
 878 293 l 1
 951 293 l 1
 1024 293 l 1
 1024 220 l 1
 1024 147 l 1
 951 147 l 1x102040
 878 147 l 1
 878 74 l 1
 878 1 l 1
 805 1 l 1x202080
 731 1 l 1x8021
 731 -72 l 1
 731 -146 l 1
 878 -146 l 1
 1024 -146 l 1
 1024 -219 l 1
 1024 -292 l 1x402140
 731 -292 l 1x802080
 440 -292 l 1
 440 -219 l 1
 440 -146 l 1x402280
 512 -146 l 1
 585 -146 l 1x4021
 585 -72 l 1
 585 1 l 1
 659 1 l 1
 731 1 l 1x8021
 731 74 l 1
 731 147 l 1
 805 147 l 1
 878 147 l 1x202080
 878 220 l 1
 878 293 l 1x102040
 731 293 l 1x082080
 585 293 l 1
 585 220 l 1
 585 147 l 1
 512 147 l 1
 440 147 l 1
 440 220 l 1
 440 293 l 1
 512 293 l 1
 585 293 l 1x102280
 585 366 l 1x1021
878 1098 m 1x00a040
 878 1171 l 1
 951 1171 l 1
 1024 1171 l 1
 1024 1098 l 1
 1024 1024 l 1
 951 1024 l 1x006040
 878 1024 l 1
 878 951 l 1
 878 878 l 1
 805 878 l 1x00a080
 731 878 l 1
 731 805 l 1
 731 732 l 1
 659 732 l 1x0121
 585 732 l 1
 585 659 l 1
 585 585 l 1
 512 585 l 1x0222
 440 585 l 1
 440 513 l 1
 440 439 l 1
 366 439 l 1x0424
 292 439 l 1
 292 366 l 1
 292 293 l 1
 219 293 l 1x0828
 146 293 l 1
 146 220 l 1
 146 147 l 1
 73 147 l 1
 0 147 l 1
 0 220 l 1
 0 293 l 1
 73 293 l 1
 146 293 l 1x1030
 146 366 l 1
 146 439 l 1
 219 439 l 1
 292 439 l 1x0828
 292 513 l 1
 292 585 l 1
 366 585 l 1
 440 585 l 1x0424
 440 659 l 1
 440 732 l 1
 512 732 l 1
 585 732 l 1x0222
 585 805 l 1
 585 878 l 1
 659 878 l 1
 731 878 l 1x0121
 731 951 l 1
 731 1024 l 1
 805 1024 l 1
 878 1024 l 1x00a080
 878 1098 l 1x00a040
292 1537 m 1x00a4
 292 1610 l 1
 366 1610 l 1
 440 1610 l 1
 440 1244 l 1
 440 878 l 1
 366 878 l 1
 292 878 l 1
 292 1098 l 1
 292 1317 l 1x00a4
 219 1317 l 1
 146 1317 l 1
 146 1391 l 1
 146 1463 l 1x00a8
 219 1463 l 1
 292 1463 l 1
 292 1537 l 1x00a4
EndSplineSet
Validated: 5
EndChar

StartChar: threequarters
Encoding: 190 190 125
Width: 1170
VWidth: 0
Flags: HW
HStem: 1 146<439.149 585.436 731.721 878.007> 147 146<0 146.286> 293 146<146.286 292.571 731.721 878.007> 439 146<292.571 439.149> 586 146<439.149 585.436> 732 146<585.436 731.721> 878 146<0 439.149 731.721 878.007> 1025 146<439.149 585.436 878.007 1024.29> 1171 147<146.286 439.149> 1317 146<439.149 585.436> 1464 146<0 439.149>
VStem: 0 146<147.143 293.136> 146 146<293.136 439.422> 293 147<439.422 585.707> 439 146<585.707 731.993 1024.56 1170.85 1317.43 1463.71> 585 146<147.143 293.136 731.993 878.279> 732 146<878.279 1024.56> 878 146<-291.714 0.857422 147.143 293.136 439.422 585.707 1024.56 1170.85>
LayerCount: 2
Back
Fore
SplineSet
878 513 m 1xa80040
 878 585 l 1
 951 585 l 1
 1024 585 l 1
 1024 147 l 1
 1024 -292 l 1
 951 -292 l 1
 878 -292 l 1
 878 -145 l 1
 878 1 l 1
 659 1 l 1
 440 1 l 1
 440 74 l 1
 440 147 l 1xa80240
 512 147 l 1
 585 147 l 1
 585 220 l 1
 585 293 l 1
 659 293 l 1
 731 293 l 1xa801
 731 366 l 1
 731 439 l 1xa80080
 805 439 l 1
 878 439 l 1
 878 513 l 1xa80040
878 220 m 1
 878 293 l 1
 805 293 l 1
 731 293 l 1
 731 220 l 1
 731 147 l 1xa00140
 805 147 l 1
 878 147 l 1
 878 220 l 1
878 1098 m 1
 878 1171 l 1
 951 1171 l 1
 1024 1171 l 1
 1024 1098 l 1
 1024 1024 l 1
 951 1024 l 1x010040
 878 1024 l 1
 878 951 l 1
 878 878 l 1
 805 878 l 1x020080
 731 878 l 1
 731 805 l 1
 731 732 l 1
 659 732 l 1x0401
 585 732 l 1
 585 659 l 1
 585 585 l 1
 512 585 l 1x0802
 440 585 l 1
 440 513 l 1
 440 439 l 1
 366 439 l 1x1004
 292 439 l 1
 292 366 l 1
 292 293 l 1
 219 293 l 1x2008
 146 293 l 1
 146 220 l 1
 146 147 l 1
 73 147 l 1
 0 147 l 1
 0 220 l 1
 0 293 l 1
 73 293 l 1
 146 293 l 1x4010
 146 366 l 1
 146 439 l 1
 219 439 l 1
 292 439 l 1x2008
 292 513 l 1
 292 585 l 1
 366 585 l 1
 440 585 l 1x1004
 440 659 l 1
 440 732 l 1
 512 732 l 1
 585 732 l 1x0802
 585 805 l 1
 585 878 l 1
 659 878 l 1
 731 878 l 1x0401
 731 951 l 1
 731 1024 l 1
 805 1024 l 1
 878 1024 l 1x020080
 878 1098 l 1
0 1537 m 1x0032
 0 1610 l 1
 220 1610 l 1
 440 1610 l 1x0032
 440 1537 l 1
 440 1463 l 1
 512 1463 l 1
 585 1463 l 1
 585 1391 l 1
 585 1318 l 1
 512 1318 l 1x0052
 440 1318 l 1x0092
 440 1244 l 1
 440 1171 l 1
 512 1171 l 1
 585 1171 l 1
 585 1098 l 1
 585 1024 l 1
 512 1024 l 1x0112
 440 1024 l 1
 440 951 l 1
 440 878 l 1
 220 878 l 1
 0 878 l 1
 0 951 l 1
 0 1024 l 1
 220 1024 l 1
 440 1024 l 1x0212
 440 1098 l 1
 440 1171 l 1x0112
 293 1171 l 1
 146 1171 l 1
 146 1244 l 1
 146 1318 l 1
 293 1318 l 1
 440 1318 l 1x008a
 440 1391 l 1
 440 1463 l 1x004a
 220 1463 l 1
 0 1463 l 1
 0 1537 l 1x0032
EndSplineSet
Validated: 5
EndChar

StartChar: question
Encoding: 63 63 126
Width: 1170
VWidth: 0
Flags: HW
HStem: 1 146<292.571 878.007> 147 146<878.007 1024.29> 586 146<292.571 439.149> 732 146<439.149 585.436> 878 146<585.436 731.721> 1171 293<585.436 731.721>
VStem: 146 146<147.143 585.707> 293 147<585.707 731.993> 439 146<731.993 878.279> 585 146<878.279 1024.56 1170.85 1463.71> 878 146<147.143 293.136>
LayerCount: 2
Back
Fore
SplineSet
585 951 m 1x1460
 585 1024 l 1
 659 1024 l 1
 731 1024 l 1
 731 951 l 1
 731 878 l 1
 659 878 l 1x0c60
 585 878 l 1
 585 805 l 1
 585 732 l 1
 512 732 l 1x14a0
 440 732 l 1
 440 659 l 1
 440 586 l 1x2520
 366 586 l 1
 292 586 l 1
 292 366 l 1
 292 147 l 1
 585 147 l 1
 878 147 l 1xa620
 878 220 l 1
 878 293 l 1
 951 293 l 1
 1024 293 l 1
 1024 220 l 1
 1024 147 l 1
 951 147 l 1x4620
 878 147 l 1
 878 74 l 1
 878 1 l 1
 585 1 l 1
 292 1 l 1
 292 74 l 1x8520
 292 147 l 1x8620
 219 147 l 1
 146 147 l 1
 146 366 l 1
 146 586 l 1
 219 586 l 1
 292 586 l 1x6620
 292 659 l 1
 292 732 l 1
 366 732 l 1
 440 732 l 1x6520
 440 805 l 1
 440 878 l 1
 512 878 l 1
 585 878 l 1x14a0
 585 951 l 1x1460
585 1317 m 1
 585 1464 l 1
 659 1464 l 1
 731 1464 l 1
 731 1317 l 1
 731 1171 l 1
 659 1171 l 1
 585 1171 l 1
 585 1317 l 1
EndSplineSet
Validated: 6291461
EndChar

StartChar: Agrave
Encoding: 192 192 127
Width: 1170
VWidth: 0
Flags: HW
HStem: 1 21G<146.286 292.571 878.007 1024.29> 586 146<292.571 878.007> 1171 293<585.436 731.721> 1171 147<292.571 585.436 731.721 878.007> 1464 146<439.149 585.436>
VStem: 146 146<0.857422 585.707 731.993 1170.85> 439 146<1463.71 1610> 585 146<1317.43 1463.71> 878 146<0.857422 585.707 731.993 1170.85>
LayerCount: 2
Back
Fore
SplineSet
439 1537 m 1xce80
 439 1610 l 1
 512 1610 l 1
 585 1610 l 1xce80
 585 1537 l 1
 585 1464 l 1xe680
 659 1464 l 1
 731 1464 l 1xe580
 731 1391 l 1
 731 1318 l 1
 805 1318 l 1
 878 1318 l 1
 878 1244 l 1
 878 1171 l 1
 951 1171 l 1
 1024 1171 l 1
 1024 586 l 1
 1024 1 l 1
 951 1 l 1
 878 1 l 1
 878 293 l 1
 878 586 l 1
 585 586 l 1
 292 586 l 1
 292 293 l 1
 292 1 l 1
 219 1 l 1
 146 1 l 1
 146 586 l 1
 146 1171 l 1
 219 1171 l 1
 292 1171 l 1
 292 1244 l 1
 292 1318 l 1
 439 1318 l 1
 585 1318 l 1
 585 1391 l 1xd580
 585 1464 l 1xe680
 512 1464 l 1
 439 1464 l 1
 439 1537 l 1xce80
878 951 m 1
 878 1171 l 1
 585 1171 l 1
 292 1171 l 1xd480
 292 951 l 1
 292 732 l 1
 585 732 l 1
 878 732 l 1
 878 951 l 1
EndSplineSet
Validated: 5
EndChar

StartChar: Aacute
Encoding: 193 193 128
Width: 1170
VWidth: 0
Flags: HW
HStem: 1 21G<146.286 292.571 878.007 1024.29> 586 146<292.571 878.007> 1171 293<439.149 585.436> 1171 147<292.571 439.149 585.436 878.007> 1464 146<585.436 731.721>
VStem: 146 146<0.857422 585.707 731.993 1170.85> 439 146<1317.43 1463.71> 585 146<1463.71 1610> 878 146<0.857422 585.707 731.993 1170.85>
LayerCount: 2
Back
Fore
SplineSet
585 1537 m 1xe580
 585 1610 l 1
 659 1610 l 1
 731 1610 l 1
 731 1537 l 1
 731 1464 l 1
 659 1464 l 1xcd80
 585 1464 l 1xe680
 585 1391 l 1
 585 1318 l 1xd680
 731 1318 l 1xd580
 878 1318 l 1
 878 1244 l 1
 878 1171 l 1
 951 1171 l 1
 1024 1171 l 1
 1024 586 l 1
 1024 1 l 1
 951 1 l 1
 878 1 l 1
 878 293 l 1
 878 586 l 1
 585 586 l 1
 292 586 l 1
 292 293 l 1
 292 1 l 1
 219 1 l 1
 146 1 l 1
 146 586 l 1
 146 1171 l 1
 219 1171 l 1
 292 1171 l 1
 292 1244 l 1
 292 1318 l 1
 366 1318 l 1
 439 1318 l 1xd680
 439 1391 l 1
 439 1464 l 1
 512 1464 l 1
 585 1464 l 1xe680
 585 1537 l 1xe580
878 951 m 1
 878 1171 l 1xd480
 585 1171 l 1xe480
 292 1171 l 1xd480
 292 951 l 1
 292 732 l 1
 585 732 l 1
 878 732 l 1
 878 951 l 1
EndSplineSet
Validated: 5
EndChar

StartChar: Acircumflex
Encoding: 194 194 129
Width: 1170
VWidth: 0
Flags: HW
HStem: 1 21G<146.286 292.571 878.007 1024.29> 439 146<292.571 878.007> 1025 146<292.571 878.007> 1317 146<292.571 439.149 731.721 878.007> 1464 146<439.149 731.721>
VStem: 146 146<0.857422 439.422 585.707 1024.56> 293 147<1317.43 1463.71> 439 293<1463.71 1610> 732 146<1317.43 1463.71> 878 146<0.857422 439.422 585.707 1024.56>
LayerCount: 2
Back
Fore
SplineSet
292 1098 m 1xe2
 292 1171 l 1xe2
 585 1171 l 1
 878 1171 l 1
 878 1098 l 1
 878 1025 l 1
 951 1025 l 1
 1024 1025 l 1
 1024 513 l 1
 1024 1 l 1
 951 1 l 1
 878 1 l 1
 878 220 l 1
 878 439 l 1
 585 439 l 1
 292 439 l 1
 292 220 l 1
 292 1 l 1
 219 1 l 1
 146 1 l 1
 146 513 l 1
 146 1025 l 1
 219 1025 l 1
 292 1025 l 1xe440
 292 1098 l 1xe2
878 805 m 1xe440
 878 1025 l 1
 585 1025 l 1
 292 1025 l 1
 292 805 l 1
 292 585 l 1
 585 585 l 1
 878 585 l 1
 878 805 l 1xe440
440 1537 m 1xf1
 440 1610 l 1
 585 1610 l 1
 732 1610 l 1xe9
 732 1537 l 1
 732 1463 l 1xf1
 805 1463 l 1
 878 1463 l 1
 878 1391 l 1
 878 1317 l 1
 805 1317 l 1
 732 1317 l 1
 732 1391 l 1xf080
 732 1463 l 1xf1
 585 1463 l 1xe9
 440 1463 l 1
 440 1391 l 1
 440 1317 l 1
 366 1317 l 1
 292 1317 l 1
 292 1391 l 1
 292 1463 l 1
 366 1463 l 1
 440 1463 l 1xf2
 440 1537 l 1xf1
EndSplineSet
Validated: 5
EndChar

StartChar: Atilde
Encoding: 195 195 130
Width: 1170
VWidth: 0
Flags: HW
HStem: 1 21G<146.286 292.571 878.007 1024.29> 439 146<292.571 878.007> 1025 146<292.571 878.007> 1317 146<146.286 292.571 585.436 878.007> 1464 146<292.571 585.436 878.007 1024.29>
VStem: 146 146<0.857422 439.422 585.707 1024.56 1317.43 1463.71> 293 293<1463.71 1610> 585 293<1317.43 1463.71> 878 146<0.857422 439.422 585.707 1024.56 1463.71 1610>
LayerCount: 2
Back
Fore
SplineSet
292 1098 m 1xe2
 292 1171 l 1xe2
 585 1171 l 1
 878 1171 l 1
 878 1098 l 1
 878 1025 l 1
 951 1025 l 1
 1024 1025 l 1
 1024 513 l 1
 1024 1 l 1
 951 1 l 1
 878 1 l 1
 878 220 l 1
 878 439 l 1
 585 439 l 1
 292 439 l 1
 292 220 l 1
 292 1 l 1
 219 1 l 1
 146 1 l 1
 146 513 l 1
 146 1025 l 1
 219 1025 l 1
 292 1025 l 1xe480
 292 1098 l 1xe2
878 805 m 1xe480
 878 1025 l 1
 585 1025 l 1
 292 1025 l 1
 292 805 l 1
 292 585 l 1
 585 585 l 1
 878 585 l 1
 878 805 l 1xe480
292 1537 m 1xf2
 292 1610 l 1
 439 1610 l 1
 586 1610 l 1xea
 586 1537 l 1
 586 1463 l 1xf2
 732 1463 l 1
 878 1463 l 1xf1
 878 1537 l 1
 878 1610 l 1
 951 1610 l 1
 1024 1610 l 1
 1024 1537 l 1
 1024 1463 l 1
 951 1463 l 1xe880
 878 1463 l 1
 878 1391 l 1
 878 1317 l 1
 732 1317 l 1
 586 1317 l 1
 586 1391 l 1xf1
 586 1463 l 1xf2
 439 1463 l 1xea
 292 1463 l 1
 292 1391 l 1
 292 1317 l 1
 219 1317 l 1
 146 1317 l 1
 146 1391 l 1
 146 1463 l 1
 219 1463 l 1
 292 1463 l 1xf4
 292 1537 l 1xf2
EndSplineSet
Validated: 5
EndChar

StartChar: Adieresis
Encoding: 196 196 131
Width: 1170
VWidth: 0
Flags: HW
HStem: 1 21G<146.286 292.571 878.007 1024.29> 439 146<292.571 878.007> 1025 146<292.571 878.007> 1317 293<292.571 439.149 731.721 878.007>
VStem: 146 146<0.857422 439.422 585.707 1024.56> 293 147<1317.43 1610> 732 146<1317.43 1610> 878 146<0.857422 439.422 585.707 1024.56>
LayerCount: 2
Back
Fore
SplineSet
292 1098 m 1xf4
 292 1171 l 1xf4
 585 1171 l 1
 878 1171 l 1
 878 1098 l 1
 878 1025 l 1
 951 1025 l 1
 1024 1025 l 1
 1024 513 l 1
 1024 1 l 1
 951 1 l 1
 878 1 l 1
 878 220 l 1
 878 439 l 1
 585 439 l 1
 292 439 l 1
 292 220 l 1
 292 1 l 1
 219 1 l 1
 146 1 l 1
 146 513 l 1
 146 1025 l 1
 219 1025 l 1
 292 1025 l 1xf9
 292 1098 l 1xf4
878 805 m 1xf9
 878 1025 l 1
 585 1025 l 1
 292 1025 l 1
 292 805 l 1
 292 585 l 1
 585 585 l 1
 878 585 l 1
 878 805 l 1xf9
732 1464 m 1xf2
 732 1610 l 1
 805 1610 l 1
 878 1610 l 1
 878 1464 l 1
 878 1317 l 1
 805 1317 l 1
 732 1317 l 1
 732 1464 l 1xf2
292 1464 m 1xf4
 292 1610 l 1
 366 1610 l 1
 440 1610 l 1
 440 1464 l 1
 440 1317 l 1
 366 1317 l 1
 292 1317 l 1
 292 1464 l 1xf4
EndSplineSet
Validated: 5
EndChar

StartChar: Aring
Encoding: 197 197 132
Width: 1170
VWidth: 0
Flags: HW
HStem: 1 21G<146.286 292.571 878.007 1024.29> 439 146<292.571 878.007> 1025 293<439.149 731.721> 1025 146<292.571 439.149 731.721 878.007> 1317 146<292.571 439.149 731.721 878.007> 1464 146<439.149 731.721>
VStem: 146 146<0.857422 439.422 585.707 1024.56> 293 147<1317.43 1463.71> 439 293<1170.85 1317.43 1463.71 1610> 732 146<1317.43 1463.71> 878 146<0.857422 439.422 585.707 1024.56>
LayerCount: 2
Back
Fore
SplineSet
440 1537 m 1xc880
 440 1610 l 1
 585 1610 l 1
 732 1610 l 1xc480
 732 1537 l 1
 732 1463 l 1xc880
 805 1463 l 1
 878 1463 l 1
 878 1391 l 1
 878 1318 l 1
 805 1318 l 1xc840
 732 1318 l 1xe080
 732 1244 l 1
 732 1171 l 1
 805 1171 l 1
 878 1171 l 1
 878 1098 l 1
 878 1025 l 1
 951 1025 l 1
 1024 1025 l 1
 1024 513 l 1
 1024 1 l 1
 951 1 l 1
 878 1 l 1
 878 220 l 1
 878 439 l 1
 585 439 l 1
 292 439 l 1
 292 220 l 1
 292 1 l 1
 219 1 l 1
 146 1 l 1
 146 513 l 1
 146 1025 l 1
 219 1025 l 1
 292 1025 l 1xd2a0
 292 1098 l 1
 292 1171 l 1xd1
 366 1171 l 1
 440 1171 l 1
 440 1244 l 1xd080
 440 1318 l 1xe1
 366 1318 l 1
 292 1318 l 1
 292 1391 l 1
 292 1463 l 1
 366 1463 l 1
 440 1463 l 1xc9
 440 1537 l 1xc880
732 1391 m 1xe040
 732 1463 l 1xc880
 585 1463 l 1xc480
 440 1463 l 1xc9
 440 1391 l 1
 440 1318 l 1xe1
 585 1318 l 1
 732 1318 l 1xe080
 732 1391 l 1xe040
878 805 m 1xd220
 878 1025 l 1xd220
 585 1025 l 1xe220
 292 1025 l 1
 292 805 l 1
 292 585 l 1
 585 585 l 1
 878 585 l 1
 878 805 l 1xd220
EndSplineSet
Validated: 5
EndChar

StartChar: AE
Encoding: 198 198 133
Width: 1170
VWidth: 0
Flags: HW
HStem: 1 146<585.436 1024.29> 732 146<146.286 439.149 585.436 878.007> 1317 146<146.286 439.149 585.436 1024.29>
VStem: 0 146<0.857422 731.993 878.279 1317.43> 439 146<147.143 731.993 878.279 1317.43>
LayerCount: 2
Back
Fore
SplineSet
146 1391 m 1
 146 1463 l 1
 585 1463 l 1
 1024 1463 l 1
 1024 1391 l 1
 1024 1317 l 1
 805 1317 l 1
 585 1317 l 1
 585 1098 l 1
 585 878 l 1
 732 878 l 1
 878 878 l 1
 878 805 l 1
 878 732 l 1
 732 732 l 1
 585 732 l 1
 585 440 l 1
 585 147 l 1
 805 147 l 1
 1024 147 l 1
 1024 74 l 1
 1024 1 l 1
 732 1 l 1
 439 1 l 1
 439 366 l 1
 439 732 l 1
 293 732 l 1
 146 732 l 1
 146 366 l 1
 146 1 l 1
 73 1 l 1
 0 1 l 1
 0 659 l 1
 0 1317 l 1
 73 1317 l 1
 146 1317 l 1
 146 1391 l 1
439 1098 m 1
 439 1317 l 1
 293 1317 l 1
 146 1317 l 1
 146 1098 l 1
 146 878 l 1
 293 878 l 1
 439 878 l 1
 439 1098 l 1
EndSplineSet
Validated: 5
EndChar

StartChar: Ccedilla
Encoding: 199 199 134
Width: 1170
VWidth: 0
Flags: HW
HStem: -292 146<292.571 439.149> 1 146<292.571 439.149 585.436 878.007> 147 146<878.007 1024.29> 1171 147<878.007 1024.29> 1317 146<292.571 878.007>
VStem: 146 146<147.143 1317.43> 293 147<-291.714 -145.429> 439 146<-145.429 0.857422> 878 146<147.143 293.136 1170.85 1317.43>
LayerCount: 2
Back
Fore
SplineSet
292 1391 m 1xaa80
 292 1463 l 1
 585 1463 l 1
 878 1463 l 1xaa80
 878 1391 l 1
 878 1318 l 1
 951 1318 l 1
 1024 1318 l 1
 1024 1244 l 1
 1024 1171 l 1
 951 1171 l 1
 878 1171 l 1
 878 1244 l 1
 878 1318 l 1x9280
 585 1318 l 1
 292 1318 l 1
 292 732 l 1
 292 147 l 1xcc80
 585 147 l 1xa480
 878 147 l 1xc480
 878 220 l 1
 878 293 l 1
 951 293 l 1
 1024 293 l 1
 1024 220 l 1
 1024 147 l 1
 951 147 l 1xa480
 878 147 l 1
 878 74 l 1
 878 1 l 1
 732 1 l 1
 585 1 l 1
 585 -72 l 1
 585 -146 l 1xc580
 512 -146 l 1
 440 -146 l 1
 440 -219 l 1
 440 -292 l 1
 366 -292 l 1
 292 -292 l 1
 292 -219 l 1
 292 -146 l 1
 366 -146 l 1
 440 -146 l 1xc280
 440 -72 l 1
 440 1 l 1xc180
 366 1 l 1
 292 1 l 1
 292 74 l 1xc280
 292 147 l 1xc480
 219 147 l 1
 146 147 l 1
 146 732 l 1
 146 1318 l 1
 219 1318 l 1
 292 1318 l 1xac80
 292 1391 l 1xaa80
EndSplineSet
Validated: 5
EndChar

StartChar: Egrave
Encoding: 200 200 135
Width: 1170
VWidth: 0
Flags: HW
HStem: 1 146<292.571 1024.29> 586 146<292.571 731.721> 1171 293<585.436 731.721> 1171 147<292.571 585.436 731.721 1024.29> 1464 146<439.149 585.436>
VStem: 146 146<147.143 585.707 731.993 1170.85> 439 146<1463.71 1610> 585 146<1317.43 1463.71>
LayerCount: 2
Back
Fore
SplineSet
439 1537 m 1xce
 439 1610 l 1
 512 1610 l 1
 585 1610 l 1xce
 585 1537 l 1
 585 1464 l 1xe6
 659 1464 l 1
 731 1464 l 1xe5
 731 1391 l 1
 731 1318 l 1
 878 1318 l 1
 1024 1318 l 1
 1024 1244 l 1
 1024 1171 l 1xd5
 658 1171 l 1xe5
 292 1171 l 1
 292 951 l 1
 292 732 l 1
 512 732 l 1
 731 732 l 1
 731 659 l 1
 731 586 l 1
 512 586 l 1
 292 586 l 1
 292 366 l 1
 292 147 l 1
 658 147 l 1
 1024 147 l 1
 1024 74 l 1
 1024 1 l 1
 585 1 l 1
 146 1 l 1
 146 659 l 1
 146 1318 l 1
 366 1318 l 1
 585 1318 l 1
 585 1391 l 1xd5
 585 1464 l 1xe6
 512 1464 l 1
 439 1464 l 1
 439 1537 l 1xce
EndSplineSet
Validated: 5
EndChar

StartChar: Eacute
Encoding: 201 201 136
Width: 1170
VWidth: 0
Flags: HW
HStem: 1 146<292.571 1024.29> 586 146<292.571 731.721> 1171 293<439.149 585.436> 1171 147<292.718 439.149 585.436 1024.29> 1464 146<585.436 731.721>
VStem: 146 146<147.143 585.707 731.993 1170.85> 439 146<1317.43 1463.71> 585 146<1463.71 1610>
LayerCount: 2
Back
Fore
SplineSet
585 1537 m 1xe5
 585 1610 l 1
 659 1610 l 1
 731 1610 l 1
 731 1537 l 1
 731 1464 l 1
 659 1464 l 1xcd
 585 1464 l 1xe6
 585 1391 l 1
 585 1318 l 1xd6
 805 1318 l 1
 1024 1318 l 1
 1024 1244 l 1
 1024 1171 l 1
 658 1171 l 1
 292 1171 l 1
 292 951 l 1
 292 732 l 1
 512 732 l 1
 731 732 l 1
 731 659 l 1
 731 586 l 1xd5
 512 586 l 1
 292 586 l 1
 292 366 l 1
 292 147 l 1
 658 147 l 1
 1024 147 l 1
 1024 74 l 1
 1024 1 l 1
 585 1 l 1
 146 1 l 1
 146 659 l 1
 146 1318 l 1
 293 1318 l 1
 439 1318 l 1xd6
 439 1391 l 1
 439 1464 l 1
 512 1464 l 1
 585 1464 l 1xe6
 585 1537 l 1xe5
EndSplineSet
Validated: 5
EndChar

StartChar: Ecircumflex
Encoding: 202 202 137
Width: 1170
VWidth: 0
Flags: HW
HStem: 1 146<292.571 1024.29> 586 146<292.571 731.721> 1025 146<292.571 1024.29> 1317 146<292.571 439.149 731.721 878.007> 1464 146<439.149 731.721>
VStem: 146 146<147.143 585.707 731.993 1024.56> 293 147<1317.43 1463.71> 439 293<1463.71 1610> 732 146<1317.43 1463.71>
LayerCount: 2
Back
Fore
SplineSet
146 586 m 1xe480
 146 1171 l 1
 585 1171 l 1
 1024 1171 l 1
 1024 1098 l 1
 1024 1025 l 1
 658 1025 l 1
 292 1025 l 1
 292 878 l 1
 292 732 l 1
 512 732 l 1
 732 732 l 1
 732 659 l 1
 732 586 l 1
 512 586 l 1
 292 586 l 1
 292 366 l 1
 292 147 l 1
 658 147 l 1
 1024 147 l 1
 1024 74 l 1
 1024 1 l 1
 585 1 l 1
 146 1 l 1
 146 586 l 1xe480
440 1537 m 1xf1
 440 1610 l 1
 585 1610 l 1
 732 1610 l 1xe9
 732 1537 l 1
 732 1463 l 1xf1
 805 1463 l 1
 878 1463 l 1
 878 1391 l 1
 878 1317 l 1
 805 1317 l 1
 732 1317 l 1
 732 1391 l 1xf080
 732 1463 l 1xf1
 585 1463 l 1xe9
 440 1463 l 1
 440 1391 l 1
 440 1317 l 1
 366 1317 l 1
 292 1317 l 1
 292 1391 l 1
 292 1463 l 1
 366 1463 l 1
 440 1463 l 1xf2
 440 1537 l 1xf1
EndSplineSet
Validated: 5
EndChar

StartChar: Edieresis
Encoding: 203 203 138
Width: 1170
VWidth: 0
Flags: HW
HStem: 1 146<292.571 1024.29> 586 146<292.571 731.721> 1025 146<292.571 1024.29> 1317 293<292.571 439.149 731.721 878.007>
VStem: 146 146<147.143 585.707 731.993 1024.56> 293 147<1317.43 1610> 732 146<1317.43 1610>
LayerCount: 2
Back
Fore
SplineSet
146 586 m 1xfa
 146 1171 l 1
 585 1171 l 1
 1024 1171 l 1
 1024 1098 l 1
 1024 1025 l 1
 658 1025 l 1
 292 1025 l 1
 292 878 l 1
 292 732 l 1
 512 732 l 1
 732 732 l 1
 732 659 l 1
 732 586 l 1
 512 586 l 1
 292 586 l 1
 292 366 l 1
 292 147 l 1
 658 147 l 1
 1024 147 l 1
 1024 74 l 1
 1024 1 l 1
 585 1 l 1
 146 1 l 1
 146 586 l 1xfa
732 1464 m 1
 732 1610 l 1
 805 1610 l 1
 878 1610 l 1
 878 1464 l 1
 878 1317 l 1
 805 1317 l 1
 732 1317 l 1
 732 1464 l 1
292 1464 m 1xf6
 292 1610 l 1
 366 1610 l 1
 440 1610 l 1
 440 1464 l 1
 440 1317 l 1
 366 1317 l 1
 292 1317 l 1
 292 1464 l 1xf6
EndSplineSet
Validated: 1
EndChar

StartChar: Igrave
Encoding: 204 204 139
Width: 1170
VWidth: 0
Flags: HW
HStem: 1 146<292.571 439.149 585.436 731.721> 1025 146<292.571 439.149 585.436 731.721> 1317 146<439.149 585.436> 1464 146<292.571 439.149>
VStem: 293 439<0.857422 147.143 1024.56 1170.85> 293 147<1463.71 1610> 439 146<147.143 1024.56 1317.43 1463.71>
LayerCount: 2
Back
Fore
SplineSet
293 1098 m 1xc8
 293 1171 l 1
 512 1171 l 1
 732 1171 l 1
 732 1098 l 1
 732 1025 l 1xc8
 659 1025 l 1
 585 1025 l 1
 585 586 l 1
 585 147 l 1xc2
 659 147 l 1
 732 147 l 1
 732 74 l 1
 732 1 l 1
 512 1 l 1
 293 1 l 1
 293 74 l 1
 293 147 l 1xc8
 366 147 l 1
 440 147 l 1
 440 586 l 1
 440 1025 l 1xc2
 366 1025 l 1
 293 1025 l 1
 293 1098 l 1xc8
293 1537 m 1xd4
 293 1610 l 1
 366 1610 l 1
 440 1610 l 1xd4
 440 1537 l 1
 440 1463 l 1xe4
 512 1463 l 1
 585 1463 l 1
 585 1391 l 1
 585 1317 l 1
 512 1317 l 1
 440 1317 l 1
 440 1391 l 1xe2
 440 1463 l 1xe4
 366 1463 l 1
 293 1463 l 1
 293 1537 l 1xd4
EndSplineSet
Validated: 5
EndChar

StartChar: Iacute
Encoding: 205 205 140
Width: 1170
VWidth: 0
Flags: HW
HStem: 1 146<292.571 439.149 585.436 731.721> 1025 146<292.571 439.149 585.436 731.721> 1317 146<439.149 585.436> 1464 146<585.436 731.721>
VStem: 293 439<0.857422 147.143 1024.56 1170.85> 439 146<147.143 1024.56 1317.43 1463.71> 585 146<1463.71 1610>
LayerCount: 2
Back
Fore
SplineSet
293 1098 m 1xc8
 293 1171 l 1
 512 1171 l 1
 732 1171 l 1
 732 1098 l 1
 732 1025 l 1xc8
 659 1025 l 1
 585 1025 l 1
 585 586 l 1
 585 147 l 1xc4
 659 147 l 1
 732 147 l 1
 732 74 l 1
 732 1 l 1
 512 1 l 1
 293 1 l 1
 293 74 l 1
 293 147 l 1xc8
 366 147 l 1
 439 147 l 1
 439 586 l 1
 439 1025 l 1xc4
 366 1025 l 1
 293 1025 l 1
 293 1098 l 1xc8
585 1537 m 1xe2
 585 1610 l 1
 659 1610 l 1
 732 1610 l 1
 732 1537 l 1
 732 1463 l 1
 659 1463 l 1xd2
 585 1463 l 1
 585 1391 l 1
 585 1317 l 1
 512 1317 l 1
 439 1317 l 1
 439 1391 l 1
 439 1463 l 1
 512 1463 l 1
 585 1463 l 1xe4
 585 1537 l 1xe2
EndSplineSet
Validated: 5
EndChar

StartChar: Icircumflex
Encoding: 206 206 141
Width: 1170
VWidth: 0
Flags: HW
HStem: 1 146<292.571 439.149 585.436 731.721> 1025 146<292.571 439.149 585.436 731.721> 1317 146<292.571 439.149 731.721 878.007> 1464 146<439.149 731.721>
VStem: 293 147<1317.43 1463.71> 439 293<1463.71 1610> 439 146<147.143 1024.56> 732 146<1317.43 1463.71>
LayerCount: 2
Back
Fore
SplineSet
293 1098 m 1xc8
 293 1171 l 1xc8
 512 1171 l 1
 732 1171 l 1
 732 1098 l 1
 732 1025 l 1
 659 1025 l 1
 585 1025 l 1
 585 586 l 1
 585 147 l 1xc3
 659 147 l 1
 732 147 l 1
 732 74 l 1
 732 1 l 1
 512 1 l 1
 293 1 l 1
 293 74 l 1
 293 147 l 1xc9
 366 147 l 1
 440 147 l 1
 440 586 l 1
 440 1025 l 1xc2
 366 1025 l 1
 293 1025 l 1
 293 1098 l 1xc8
440 1537 m 1xe4
 440 1610 l 1xd4
 585 1610 l 1xd2
 732 1610 l 1xd4
 732 1537 l 1
 732 1463 l 1xe4
 805 1463 l 1
 878 1463 l 1
 878 1391 l 1
 878 1317 l 1
 805 1317 l 1
 732 1317 l 1
 732 1391 l 1xe1
 732 1463 l 1xe4
 585 1463 l 1xd2
 440 1463 l 1
 440 1391 l 1
 440 1317 l 1
 366 1317 l 1
 293 1317 l 1
 293 1391 l 1
 293 1463 l 1
 366 1463 l 1
 440 1463 l 1xe8
 440 1537 l 1xe4
EndSplineSet
Validated: 5
EndChar

StartChar: Idieresis
Encoding: 207 207 142
Width: 1170
VWidth: 0
Flags: HW
HStem: 1 146<292.571 439.149 585.436 731.721> 1025 146<292.571 439.149 585.436 731.721> 1317 293<146.286 292.571 731.721 878.007>
VStem: 146 146<1317.43 1610> 293 439<0.857422 147.143 1024.56 1170.85> 439 146<147.143 1024.56> 732 146<1317.43 1610>
LayerCount: 2
Back
Fore
SplineSet
292 1098 m 1xe8
 292 1171 l 1
 512 1171 l 1
 732 1171 l 1
 732 1098 l 1
 732 1025 l 1xe8
 659 1025 l 1
 585 1025 l 1
 585 586 l 1
 585 147 l 1xe4
 659 147 l 1
 732 147 l 1
 732 74 l 1
 732 1 l 1
 512 1 l 1
 292 1 l 1
 292 74 l 1
 292 147 l 1xe8
 366 147 l 1
 439 147 l 1
 439 586 l 1
 439 1025 l 1xe4
 366 1025 l 1
 292 1025 l 1
 292 1098 l 1xe8
732 1464 m 1xe2
 732 1610 l 1
 805 1610 l 1
 878 1610 l 1
 878 1464 l 1
 878 1317 l 1
 805 1317 l 1
 732 1317 l 1
 732 1464 l 1xe2
146 1464 m 1xf0
 146 1610 l 1
 219 1610 l 1
 292 1610 l 1
 292 1464 l 1
 292 1317 l 1
 219 1317 l 1
 146 1317 l 1
 146 1464 l 1xf0
EndSplineSet
Validated: 1
EndChar

StartChar: Eth
Encoding: 208 208 143
Width: 1170
VWidth: 0
Flags: HW
HStem: 1 146<292.571 731.721> 147 146<731.721 878.007> 732 146<0 146.286 292.571 585.436> 1171 147<731.721 878.007> 1317 146<292.571 731.721>
VStem: 146 146<147.143 731.993 878.279 1317.43> 732 146<147.143 293.136 1170.85 1317.43> 878 146<293.136 1170.85>
LayerCount: 2
Back
Fore
SplineSet
146 1171 m 1xa6
 146 1463 l 1
 439 1463 l 1
 732 1463 l 1xae
 732 1391 l 1
 732 1318 l 1
 805 1318 l 1
 878 1318 l 1
 878 1244 l 1
 878 1171 l 1x36
 951 1171 l 1
 1024 1171 l 1
 1024 732 l 1
 1024 293 l 1x75
 951 293 l 1
 878 293 l 1
 878 220 l 1
 878 147 l 1
 805 147 l 1x76
 732 147 l 1
 732 74 l 1
 732 1 l 1
 439 1 l 1
 146 1 l 1
 146 366 l 1
 146 732 l 1
 73 732 l 1
 0 732 l 1
 0 805 l 1
 0 878 l 1
 73 878 l 1
 146 878 l 1
 146 1171 l 1xa6
732 1244 m 1
 732 1318 l 1x76
 512 1318 l 1
 292 1318 l 1
 292 1098 l 1
 292 878 l 1
 439 878 l 1
 585 878 l 1
 585 805 l 1
 585 732 l 1
 439 732 l 1
 292 732 l 1
 292 440 l 1
 292 147 l 1
 512 147 l 1
 732 147 l 1xae
 732 220 l 1
 732 293 l 1
 805 293 l 1
 878 293 l 1x66
 878 732 l 1x65
 878 1171 l 1
 805 1171 l 1
 732 1171 l 1x76
 732 1244 l 1
EndSplineSet
Validated: 5
EndChar

StartChar: Ntilde
Encoding: 209 209 144
Width: 1170
VWidth: 0
Flags: HW
HStem: 1 292<731.721 878.007> 293 293<585.436 731.721> 586 293<439.149 585.436> 878 293<292.571 439.149> 1317 146<146.286 292.571 585.436 878.007> 1464 146<292.571 585.436 878.007 1024.29>
VStem: 146 293<878.279 1170.85> 146 146<0.857422 878.279 1317.43 1463.71> 293 293<1463.71 1610> 439 146<585.707 878.279> 585 293<1317.43 1463.71> 585 146<293.136 585.707> 732 293<0.857422 293.136> 878 146<293.136 1170.85 1463.71 1610>
LayerCount: 2
Back
Fore
SplineSet
146 586 m 1x91
 146 1171 l 1
 293 1171 l 1
 439 1171 l 1x92
 439 1025 l 1
 439 879 l 1x22
 512 879 l 1
 586 879 l 1x2040
 586 732 l 1
 586 586 l 1x4040
 659 586 l 1
 731 586 l 1x4010
 731 439 l 1
 731 293 l 1
 805 293 l 1
 878 293 l 1
 878 732 l 1
 878 1171 l 1
 951 1171 l 1
 1025 1171 l 1
 1025 586 l 1x9014
 1025 1 l 1x9008
 878 1 l 1x9004
 731 1 l 1
 731 147 l 1x9008
 731 293 l 1x9010
 659 293 l 1
 586 293 l 1
 586 439 l 1x4010
 586 586 l 1x4040
 512 586 l 1
 439 586 l 1
 439 732 l 1x2040
 439 879 l 1x22
 366 879 l 1
 292 879 l 1
 292 440 l 1
 292 1 l 1
 219 1 l 1
 146 1 l 1
 146 586 l 1x91
292 1537 m 1x0880
 292 1610 l 1
 439 1610 l 1
 586 1610 l 1x0480
 586 1537 l 1
 586 1463 l 1
 731 1463 l 1x0888
 878 1463 l 1x0820
 878 1537 l 1
 878 1610 l 1
 951 1610 l 1
 1025 1610 l 1
 1025 1537 l 1
 1025 1463 l 1
 951 1463 l 1x0404
 878 1463 l 1
 878 1391 l 1
 878 1317 l 1x0820
 731 1317 l 1x0808
 586 1317 l 1
 586 1391 l 1x0820
 586 1463 l 1x0880
 439 1463 l 1x0480
 292 1463 l 1
 292 1391 l 1
 292 1317 l 1
 219 1317 l 1
 146 1317 l 1
 146 1391 l 1
 146 1463 l 1
 219 1463 l 1
 292 1463 l 1x09
 292 1537 l 1x0880
EndSplineSet
Validated: 5
EndChar

StartChar: Ograve
Encoding: 210 210 145
Width: 1170
VWidth: 0
Flags: HW
HStem: 1 146<292.571 878.007> 1171 293<585.436 731.721> 1171 147<292.571 585.436 731.721 878.007> 1464 146<439.149 585.436>
VStem: 146 146<147.143 1170.85> 439 146<1463.71 1610> 585 146<1317.43 1463.71> 878 146<147.143 1170.85>
LayerCount: 2
Back
Fore
SplineSet
439 1537 m 1x9d
 439 1610 l 1
 512 1610 l 1
 585 1610 l 1x9d
 585 1537 l 1
 585 1464 l 1xcd
 659 1464 l 1
 731 1464 l 1xcb
 731 1391 l 1
 731 1318 l 1
 805 1318 l 1
 878 1318 l 1
 878 1244 l 1
 878 1171 l 1
 951 1171 l 1
 1024 1171 l 1
 1024 659 l 1
 1024 147 l 1
 951 147 l 1
 878 147 l 1
 878 74 l 1
 878 1 l 1
 585 1 l 1
 292 1 l 1
 292 74 l 1
 292 147 l 1
 219 147 l 1
 146 147 l 1
 146 659 l 1
 146 1171 l 1
 219 1171 l 1
 292 1171 l 1
 292 1244 l 1
 292 1318 l 1
 439 1318 l 1
 585 1318 l 1
 585 1391 l 1xab
 585 1464 l 1xcd
 512 1464 l 1
 439 1464 l 1
 439 1537 l 1x9d
878 659 m 1
 878 1171 l 1
 585 1171 l 1
 292 1171 l 1xa9
 292 659 l 1
 292 147 l 1
 585 147 l 1
 878 147 l 1
 878 659 l 1
EndSplineSet
Validated: 5
EndChar

StartChar: Oacute
Encoding: 211 211 146
Width: 1170
VWidth: 0
Flags: HW
HStem: 1 146<292.571 878.007> 1171 293<439.149 585.436> 1171 147<292.571 439.149 585.436 878.007> 1464 146<585.436 731.721>
VStem: 146 146<147.143 1170.85> 439 146<1317.43 1463.71> 585 146<1463.71 1610> 878 146<147.143 1170.85>
LayerCount: 2
Back
Fore
SplineSet
585 1537 m 1xcb
 585 1610 l 1
 659 1610 l 1
 731 1610 l 1
 731 1537 l 1
 731 1464 l 1
 659 1464 l 1x9b
 585 1464 l 1xcd
 585 1391 l 1
 585 1318 l 1xad
 731 1318 l 1xab
 878 1318 l 1
 878 1244 l 1
 878 1171 l 1
 951 1171 l 1
 1024 1171 l 1
 1024 659 l 1
 1024 147 l 1
 951 147 l 1
 878 147 l 1
 878 74 l 1
 878 1 l 1
 585 1 l 1
 292 1 l 1
 292 74 l 1
 292 147 l 1
 219 147 l 1
 146 147 l 1
 146 659 l 1
 146 1171 l 1
 219 1171 l 1
 292 1171 l 1
 292 1244 l 1
 292 1318 l 1
 366 1318 l 1
 439 1318 l 1xad
 439 1391 l 1
 439 1464 l 1
 512 1464 l 1
 585 1464 l 1xcd
 585 1537 l 1xcb
878 659 m 1
 878 1171 l 1xa9
 585 1171 l 1xc9
 292 1171 l 1xa9
 292 659 l 1
 292 147 l 1
 585 147 l 1
 878 147 l 1
 878 659 l 1
EndSplineSet
Validated: 5
EndChar

StartChar: Ocircumflex
Encoding: 212 212 147
Width: 1170
VWidth: 0
Flags: HW
HStem: 1 146<292.571 878.007> 1025 146<292.571 878.007> 1317 146<292.571 439.149 731.721 878.007> 1464 146<439.149 731.721>
VStem: 146 146<147.143 1024.56> 293 147<1317.43 1463.71> 439 293<1463.71 1610> 732 146<1317.43 1463.71> 878 146<147.143 1024.56>
LayerCount: 2
Back
Fore
SplineSet
292 1098 m 1xc4
 292 1171 l 1
 585 1171 l 1
 878 1171 l 1
 878 1098 l 1
 878 1025 l 1
 951 1025 l 1
 1024 1025 l 1
 1024 586 l 1
 1024 147 l 1
 951 147 l 1
 878 147 l 1
 878 74 l 1
 878 1 l 1
 585 1 l 1
 292 1 l 1
 292 74 l 1xc480
 292 147 l 1
 219 147 l 1
 146 147 l 1
 146 586 l 1
 146 1025 l 1
 219 1025 l 1
 292 1025 l 1xc8
 292 1098 l 1xc4
878 586 m 1
 878 1025 l 1
 585 1025 l 1
 292 1025 l 1
 292 586 l 1
 292 147 l 1xc880
 585 147 l 1
 878 147 l 1
 878 586 l 1
440 1537 m 1xe2
 440 1610 l 1
 585 1610 l 1
 732 1610 l 1xd2
 732 1537 l 1
 732 1463 l 1xe2
 805 1463 l 1
 878 1463 l 1
 878 1391 l 1
 878 1317 l 1
 805 1317 l 1
 732 1317 l 1
 732 1391 l 1xe1
 732 1463 l 1xe2
 585 1463 l 1xd2
 440 1463 l 1
 440 1391 l 1
 440 1317 l 1
 366 1317 l 1
 292 1317 l 1
 292 1391 l 1
 292 1463 l 1
 366 1463 l 1
 440 1463 l 1xe4
 440 1537 l 1xe2
EndSplineSet
Validated: 5
EndChar

StartChar: Otilde
Encoding: 213 213 148
Width: 1170
VWidth: 0
Flags: HW
HStem: 1 146<292.571 878.007> 1025 146<292.571 878.007> 1317 146<146.286 292.571 585.436 878.007> 1464 146<292.571 585.436 878.007 1024.29>
VStem: 146 146<147.143 1024.56 1317.43 1463.71> 293 293<1463.71 1610> 585 293<1317.43 1463.71> 878 146<147.143 1024.56 1463.71 1610>
LayerCount: 2
Back
Fore
SplineSet
292 1098 m 1xc4
 292 1171 l 1
 585 1171 l 1
 878 1171 l 1
 878 1098 l 1
 878 1025 l 1
 951 1025 l 1
 1024 1025 l 1
 1024 586 l 1
 1024 147 l 1
 951 147 l 1
 878 147 l 1
 878 74 l 1
 878 1 l 1
 585 1 l 1
 292 1 l 1
 292 74 l 1xc5
 292 147 l 1
 219 147 l 1
 146 147 l 1
 146 586 l 1
 146 1025 l 1
 219 1025 l 1
 292 1025 l 1xc8
 292 1098 l 1xc4
878 586 m 1
 878 1025 l 1
 585 1025 l 1
 292 1025 l 1
 292 586 l 1
 292 147 l 1xc9
 585 147 l 1
 878 147 l 1
 878 586 l 1
292 1537 m 1xe4
 292 1610 l 1
 439 1610 l 1
 586 1610 l 1xd4
 586 1537 l 1
 586 1463 l 1xe4
 732 1463 l 1
 878 1463 l 1xe2
 878 1537 l 1
 878 1610 l 1
 951 1610 l 1
 1024 1610 l 1
 1024 1537 l 1
 1024 1463 l 1
 951 1463 l 1xd1
 878 1463 l 1
 878 1391 l 1
 878 1317 l 1
 732 1317 l 1
 586 1317 l 1
 586 1391 l 1xe2
 586 1463 l 1xe4
 439 1463 l 1xd4
 292 1463 l 1
 292 1391 l 1
 292 1317 l 1
 219 1317 l 1
 146 1317 l 1
 146 1391 l 1
 146 1463 l 1
 219 1463 l 1
 292 1463 l 1xe8
 292 1537 l 1xe4
EndSplineSet
Validated: 5
EndChar

StartChar: Odieresis
Encoding: 214 214 149
Width: 1170
VWidth: 0
Flags: HW
HStem: 1 146<292.571 878.007> 1025 146<292.571 878.007> 1317 293<292.571 439.149 731.721 878.007>
VStem: 146 146<147.143 1024.56> 293 147<1317.43 1610> 732 146<1317.43 1610> 878 146<147.143 1024.56>
LayerCount: 2
Back
Fore
SplineSet
292 1098 m 1xe8
 292 1171 l 1
 585 1171 l 1
 878 1171 l 1
 878 1098 l 1
 878 1025 l 1
 951 1025 l 1
 1024 1025 l 1
 1024 586 l 1
 1024 147 l 1
 951 147 l 1
 878 147 l 1
 878 74 l 1
 878 1 l 1
 585 1 l 1
 292 1 l 1
 292 74 l 1xea
 292 147 l 1
 219 147 l 1
 146 147 l 1
 146 586 l 1
 146 1025 l 1
 219 1025 l 1
 292 1025 l 1xf0
 292 1098 l 1xe8
878 586 m 1
 878 1025 l 1
 585 1025 l 1
 292 1025 l 1
 292 586 l 1
 292 147 l 1xf2
 585 147 l 1
 878 147 l 1
 878 586 l 1
732 1464 m 1xe4
 732 1610 l 1
 805 1610 l 1
 878 1610 l 1
 878 1464 l 1
 878 1317 l 1
 805 1317 l 1
 732 1317 l 1
 732 1464 l 1xe4
292 1464 m 1xe8
 292 1610 l 1
 366 1610 l 1
 440 1610 l 1
 440 1464 l 1
 440 1317 l 1
 366 1317 l 1
 292 1317 l 1
 292 1464 l 1xe8
EndSplineSet
Validated: 5
EndChar

StartChar: multiply
Encoding: 215 215 150
Width: 1170
VWidth: 0
Flags: HW
HStem: 147 146<146.286 292.571 878.007 1024.29> 293 146<292.571 439.149 731.721 878.007> 439 146<439.149 731.721> 586 146<292.571 439.149 731.721 878.007> 732 146<146.286 292.571 878.007 1024.29>
VStem: 146 146<147.143 293.136 731.993 878.279> 293 147<293.136 439.422 585.707 731.993> 439 293<439.422 585.707> 732 146<293.136 439.422 585.707 731.993> 878 146<147.143 293.136 731.993 878.279>
LayerCount: 2
Back
Fore
SplineSet
146 805 m 1x0c
 146 878 l 1
 219 878 l 1
 292 878 l 1x0c
 292 805 l 1
 292 732 l 1x14
 366 732 l 1
 440 732 l 1x12
 440 659 l 1
 440 585 l 1x22
 585 585 l 1
 732 585 l 1x21
 732 659 l 1
 732 732 l 1
 805 732 l 1
 878 732 l 1x1080
 878 805 l 1
 878 878 l 1
 951 878 l 1
 1024 878 l 1
 1024 805 l 1
 1024 732 l 1
 951 732 l 1x0840
 878 732 l 1
 878 659 l 1
 878 585 l 1
 805 585 l 1x1080
 732 585 l 1x21
 732 513 l 1
 732 439 l 1x41
 805 439 l 1
 878 439 l 1x4080
 878 366 l 1
 878 293 l 1x8080
 951 293 l 1
 1024 293 l 1
 1024 220 l 1
 1024 147 l 1
 951 147 l 1
 878 147 l 1
 878 220 l 1x8040
 878 293 l 1x8080
 805 293 l 1
 732 293 l 1
 732 366 l 1x4080
 732 439 l 1x41
 585 439 l 1x21
 440 439 l 1
 440 366 l 1
 440 293 l 1
 366 293 l 1x42
 292 293 l 1
 292 220 l 1
 292 147 l 1
 219 147 l 1
 146 147 l 1
 146 220 l 1
 146 293 l 1
 219 293 l 1
 292 293 l 1x84
 292 366 l 1
 292 439 l 1
 366 439 l 1
 440 439 l 1x42
 440 513 l 1x41
 440 585 l 1x22
 366 585 l 1
 292 585 l 1
 292 659 l 1x12
 292 732 l 1x14
 219 732 l 1
 146 732 l 1
 146 805 l 1x0c
EndSplineSet
Validated: 5
EndChar

StartChar: Oslash
Encoding: 216 216 151
Width: 1170
VWidth: 0
Flags: HW
HStem: -145 293<146.286 292.571> 1 146<439.149 878.007> 147 292<292.571 439.149> 439 293<439.149 585.436> 732 293<585.436 731.721> 1025 293<731.721 878.007> 1317 293<878.007 1024.29> 1317 146<292.571 731.721>
VStem: 146 146<-145.429 147.143 439.422 1317.43> 293 147<147.143 293.136> 439 146<439.422 731.993> 585 146<731.993 1024.56> 732 146<1170.85 1317.43> 878 146<147.143 1024.56 1317.43 1610>
LayerCount: 2
Back
Fore
SplineSet
585 878 m 1x1010
 585 1025 l 1
 659 1025 l 1
 731 1025 l 1
 731 878 l 1
 731 732 l 1
 659 732 l 1x0810
 585 732 l 1
 585 586 l 1
 585 439 l 1
 512 439 l 1x1020
 440 439 l 1x2020
 440 586 l 1
 440 732 l 1
 512 732 l 1
 585 732 l 1x1020
 585 878 l 1x1010
878 1463 m 1x0104
 878 1610 l 1
 951 1610 l 1
 1024 1610 l 1x0204
 1024 1463 l 1x0104
 1024 1318 l 1
 951 1318 l 1x0204
 878 1318 l 1
 878 1244 l 1
 878 1171 l 1x0408
 951 1171 l 1
 1024 1171 l 1
 1024 659 l 1
 1024 148 l 1
 951 148 l 1x2404
 878 148 l 1
 878 74 l 1
 878 1 l 1
 659 1 l 1
 440 1 l 1
 440 74 l 1x4024
 440 148 l 1x4040
 366 148 l 1x2040
 292 148 l 1x8080
 292 1 l 1x4080
 292 -145 l 1
 219 -145 l 1
 146 -145 l 1x8080
 146 1 l 1x4080
 146 148 l 1
 219 148 l 1
 292 148 l 1x8080
 292 220 l 1
 292 293 l 1x8040
 219 293 l 1
 146 293 l 1
 146 805 l 1
 146 1318 l 1
 219 1318 l 1
 292 1318 l 1x8180
 292 1391 l 1
 292 1463 l 1
 512 1463 l 1
 731 1463 l 1x8148
 731 1391 l 1
 731 1318 l 1
 805 1318 l 1
 878 1318 l 1x0448
 878 1463 l 1x0104
731 1171 m 1x0808
 731 1318 l 1x0408
 512 1318 l 1
 292 1318 l 1
 292 878 l 1
 292 439 l 1
 366 439 l 1
 440 439 l 1
 440 293 l 1x21a8
 440 148 l 1
 659 148 l 1
 878 148 l 1
 878 586 l 1
 878 1025 l 1
 805 1025 l 1x4444
 731 1025 l 1x0854
 731 1171 l 1x0808
EndSplineSet
Validated: 5
EndChar

StartChar: Ugrave
Encoding: 217 217 152
Width: 1170
VWidth: 0
Flags: HW
HStem: 1 146<292.571 878.007> 1297 20G<146.286 292.571 878.007 1024.29> 1317 146<585.436 731.721> 1464 146<439.149 585.436>
VStem: 146 146<147.143 1317.43> 439 146<1463.71 1610> 585 146<1317.43 1463.71> 878 146<147.143 1317.43>
LayerCount: 2
Back
Fore
SplineSet
146 732 m 1xc9
 146 1317 l 1
 219 1317 l 1
 292 1317 l 1
 292 732 l 1
 292 147 l 1
 585 147 l 1
 878 147 l 1
 878 732 l 1
 878 1317 l 1
 951 1317 l 1
 1024 1317 l 1
 1024 732 l 1
 1024 147 l 1
 951 147 l 1
 878 147 l 1
 878 74 l 1
 878 1 l 1
 585 1 l 1
 292 1 l 1
 292 74 l 1
 292 147 l 1
 219 147 l 1
 146 147 l 1
 146 732 l 1xc9
439 1537 m 1x9d
 439 1610 l 1
 512 1610 l 1
 585 1610 l 1x9d
 585 1537 l 1
 585 1463 l 1xad
 659 1463 l 1
 731 1463 l 1
 731 1391 l 1
 731 1317 l 1
 659 1317 l 1
 585 1317 l 1
 585 1391 l 1xab
 585 1463 l 1xad
 512 1463 l 1
 439 1463 l 1
 439 1537 l 1x9d
EndSplineSet
Validated: 5
EndChar

StartChar: Uacute
Encoding: 218 218 153
Width: 1170
VWidth: 0
Flags: HW
HStem: 1 146<292.571 878.007> 1297 20G<146.286 292.571 878.007 1024.29> 1317 146<439.149 585.436> 1464 146<585.436 731.721>
VStem: 146 146<147.143 1317.43> 439 146<1317.43 1463.71> 585 146<1463.71 1610> 878 146<147.143 1317.43>
LayerCount: 2
Back
Fore
SplineSet
146 732 m 1xc9
 146 1317 l 1
 219 1317 l 1
 292 1317 l 1
 292 732 l 1
 292 147 l 1
 585 147 l 1
 878 147 l 1
 878 732 l 1
 878 1317 l 1
 951 1317 l 1
 1024 1317 l 1
 1024 732 l 1
 1024 147 l 1
 951 147 l 1
 878 147 l 1
 878 74 l 1
 878 1 l 1
 585 1 l 1
 292 1 l 1
 292 74 l 1
 292 147 l 1
 219 147 l 1
 146 147 l 1
 146 732 l 1xc9
585 1537 m 1xab
 585 1610 l 1
 659 1610 l 1
 731 1610 l 1
 731 1537 l 1
 731 1463 l 1
 659 1463 l 1x9b
 585 1463 l 1
 585 1391 l 1
 585 1317 l 1
 512 1317 l 1
 439 1317 l 1
 439 1391 l 1
 439 1463 l 1
 512 1463 l 1
 585 1463 l 1xad
 585 1537 l 1xab
EndSplineSet
Validated: 5
EndChar

StartChar: Ucircumflex
Encoding: 219 219 154
Width: 1170
VWidth: 0
Flags: HW
HStem: 1 146<292.571 878.007> 1317 146<292.571 439.149 731.721 878.007> 1464 146<439.149 731.721>
VStem: 146 146<147.143 1170.85> 293 147<1317.43 1463.71> 439 293<1463.71 1610> 732 146<1317.43 1463.71> 878 146<147.143 1170.85>
LayerCount: 2
Back
Fore
SplineSet
146 659 m 1x90
 146 1171 l 1
 219 1171 l 1
 292 1171 l 1
 292 659 l 1
 292 147 l 1x90
 585 147 l 1
 878 147 l 1
 878 659 l 1
 878 1171 l 1
 951 1171 l 1
 1024 1171 l 1
 1024 659 l 1
 1024 147 l 1
 951 147 l 1
 878 147 l 1
 878 74 l 1
 878 1 l 1
 585 1 l 1
 292 1 l 1
 292 74 l 1x89
 292 147 l 1
 219 147 l 1
 146 147 l 1
 146 659 l 1x90
440 1537 m 1xc4
 440 1610 l 1
 585 1610 l 1
 732 1610 l 1xa4
 732 1537 l 1
 732 1463 l 1xc4
 805 1463 l 1
 878 1463 l 1
 878 1391 l 1
 878 1317 l 1
 805 1317 l 1
 732 1317 l 1
 732 1391 l 1xc2
 732 1463 l 1xc4
 585 1463 l 1xa4
 440 1463 l 1
 440 1391 l 1
 440 1317 l 1
 366 1317 l 1
 292 1317 l 1
 292 1391 l 1
 292 1463 l 1
 366 1463 l 1
 440 1463 l 1xc8
 440 1537 l 1xc4
EndSplineSet
Validated: 5
EndChar

StartChar: Udieresis
Encoding: 220 220 155
Width: 1170
VWidth: 0
Flags: HW
HStem: 1 146<292.571 878.007> 1317 293<292.571 439.149 731.721 878.007>
VStem: 146 146<147.143 1170.85> 293 147<1317.43 1610> 732 146<1317.43 1610> 878 146<147.143 1170.85>
LayerCount: 2
Back
Fore
SplineSet
146 659 m 1xe0
 146 1171 l 1
 219 1171 l 1
 292 1171 l 1
 292 659 l 1
 292 147 l 1xe0
 585 147 l 1
 878 147 l 1
 878 659 l 1
 878 1171 l 1
 951 1171 l 1
 1024 1171 l 1
 1024 659 l 1
 1024 147 l 1
 951 147 l 1
 878 147 l 1
 878 74 l 1
 878 1 l 1
 585 1 l 1
 292 1 l 1
 292 74 l 1xd4
 292 147 l 1
 219 147 l 1
 146 147 l 1
 146 659 l 1xe0
732 1464 m 1xc8
 732 1610 l 1
 805 1610 l 1
 878 1610 l 1
 878 1464 l 1
 878 1317 l 1
 805 1317 l 1
 732 1317 l 1
 732 1464 l 1xc8
292 1464 m 1xd0
 292 1610 l 1
 366 1610 l 1
 440 1610 l 1
 440 1464 l 1
 440 1317 l 1
 366 1317 l 1
 292 1317 l 1
 292 1464 l 1xd0
EndSplineSet
Validated: 5
EndChar

StartChar: Yacute
Encoding: 221 221 156
Width: 1170
VWidth: 0
Flags: HW
HStem: 1 21G<439.149 585.436> 586 146<292.571 439.149 585.436 731.721> 732 293<146.286 292.571 731.721 878.007> 1025 293<0 146.286 878.007 1024.29> 1317 146<439.149 585.436> 1464 146<585.436 731.721>
VStem: 0 146<1024.56 1317.43> 146 146<731.993 1024.56> 293 147<585.707 731.993> 439 146<0.857422 585.707 1317.43 1463.71> 585 146<585.707 731.993 1463.71 1610> 732 146<731.993 1024.56> 878 146<1024.56 1317.43>
LayerCount: 2
Back
Fore
SplineSet
0 1171 m 1x92
 0 1318 l 1
 73 1318 l 1
 146 1318 l 1x92
 146 1171 l 1
 146 1025 l 1xa2
 219 1025 l 1
 292 1025 l 1xa1
 292 878 l 1
 292 732 l 1xc1
 366 732 l 1
 440 732 l 1
 440 659 l 1
 440 586 l 1xc080
 512 586 l 1
 585 586 l 1xc040
 585 659 l 1
 585 732 l 1
 659 732 l 1
 731 732 l 1xc020
 731 878 l 1
 731 1025 l 1
 805 1025 l 1
 878 1025 l 1xa010
 878 1171 l 1
 878 1318 l 1
 951 1318 l 1
 1024 1318 l 1
 1024 1171 l 1
 1024 1025 l 1
 951 1025 l 1x9008
 878 1025 l 1
 878 878 l 1
 878 732 l 1
 805 732 l 1xa010
 731 732 l 1
 731 659 l 1
 731 586 l 1xc020
 659 586 l 1
 585 586 l 1
 585 293 l 1
 585 1 l 1
 512 1 l 1
 440 1 l 1
 440 293 l 1xc040
 440 586 l 1
 366 586 l 1
 292 586 l 1
 292 659 l 1xc080
 292 732 l 1xc1
 219 732 l 1
 146 732 l 1
 146 878 l 1xa1
 146 1025 l 1xa2
 73 1025 l 1
 0 1025 l 1
 0 1171 l 1x92
585 1537 m 1x8820
 585 1610 l 1
 659 1610 l 1
 731 1610 l 1
 731 1537 l 1
 731 1463 l 1
 659 1463 l 1x8420
 585 1463 l 1
 585 1391 l 1
 585 1318 l 1
 512 1318 l 1
 440 1318 l 1
 440 1391 l 1
 440 1463 l 1
 512 1463 l 1
 585 1463 l 1x8840
 585 1537 l 1x8820
EndSplineSet
Validated: 5
EndChar

StartChar: Thorn
Encoding: 222 222 157
Width: 1170
VWidth: 0
Flags: HW
HStem: 1 21G<146.286 292.571> 293 146<292.571 878.007> 1025 146<292.571 878.007> 1444 20G<146.286 292.571>
VStem: 146 146<0.857422 293.136 439.422 1024.56 1170.85 1463.71> 878 146<439.422 1024.56>
LayerCount: 2
Back
Fore
SplineSet
146 732 m 1
 146 1464 l 1
 219 1464 l 1
 292 1464 l 1
 292 1317 l 1
 292 1171 l 1
 585 1171 l 1
 878 1171 l 1
 878 1098 l 1
 878 1025 l 1
 951 1025 l 1
 1024 1025 l 1
 1024 732 l 1
 1024 439 l 1
 951 439 l 1
 878 439 l 1
 878 366 l 1
 878 293 l 1
 585 293 l 1
 292 293 l 1
 292 147 l 1
 292 1 l 1
 219 1 l 1
 146 1 l 1
 146 732 l 1
878 732 m 1
 878 1025 l 1
 585 1025 l 1
 292 1025 l 1
 292 732 l 1
 292 439 l 1
 585 439 l 1
 878 439 l 1
 878 732 l 1
EndSplineSet
Validated: 5
EndChar

StartChar: germandbls
Encoding: 223 223 158
Width: 1170
VWidth: 0
Flags: HW
HStem: 1 146<439.149 878.007> 147 146<292.571 439.149> 732 293<585.436 731.721> 732 146<292.571 585.436 731.721 878.007> 1025 293<731.721 878.007> 1317 146<292.571 731.721>
VStem: 146 293<147.143 293.136> 146 146<0.857422 147.143 293.136 731.993 878.279 1317.43> 585 146<878.279 1024.56> 732 146<1024.56 1317.43> 878 146<147.143 731.993>
LayerCount: 2
Back
Fore
SplineSet
292 1391 m 1x85
 292 1463 l 1
 512 1463 l 1
 731 1463 l 1x8540
 731 1391 l 1
 731 1318 l 1
 805 1318 l 1
 878 1318 l 1
 878 1171 l 1
 878 1025 l 1
 805 1025 l 1x0940
 731 1025 l 1x2080
 731 951 l 1
 731 878 l 1
 805 878 l 1
 878 878 l 1
 878 805 l 1
 878 732 l 1
 951 732 l 1
 1024 732 l 1
 1024 440 l 1
 1024 147 l 1
 951 147 l 1x50a0
 878 147 l 1
 878 74 l 1
 878 1 l 1
 659 1 l 1
 439 1 l 1
 439 74 l 1
 439 147 l 1x82a0
 366 147 l 1
 292 147 l 1x41
 292 74 l 1
 292 1 l 1
 219 1 l 1
 146 1 l 1
 146 659 l 1
 146 1318 l 1
 219 1318 l 1
 292 1318 l 1
 292 1391 l 1x85
731 1171 m 1
 731 1318 l 1x0840
 512 1318 l 1
 292 1318 l 1
 292 1098 l 1
 292 878 l 1
 439 878 l 1
 585 878 l 1x1580
 585 951 l 1
 585 1025 l 1
 659 1025 l 1
 731 1025 l 1x2180
 731 1171 l 1
878 440 m 1x8220
 878 732 l 1
 585 732 l 1
 292 732 l 1
 292 513 l 1
 292 293 l 1x5120
 366 293 l 1
 439 293 l 1x52
 439 220 l 1
 439 147 l 1
 659 147 l 1
 878 147 l 1
 878 440 l 1x8220
EndSplineSet
Validated: 5
EndChar

StartChar: agrave
Encoding: 224 224 159
Width: 1170
VWidth: 0
Flags: HW
HStem: 1 146<292.571 731.721> 147 146<731.721 878.007> 586 146<292.571 878.007> 878 146<292.571 878.007> 1171 147<585.436 731.721> 1317 146<439.149 585.436>
VStem: 146 146<147.143 585.707> 439 146<1317.43 1463.71> 585 146<1170.85 1317.43> 732 293<147.143 293.136> 878 146<0.857422 147.143 293.136 585.707 731.993 878.279>
LayerCount: 2
Back
Fore
SplineSet
292 951 m 1x7220
 292 1024 l 1
 585 1024 l 1
 878 1024 l 1
 878 951 l 1
 878 878 l 1
 951 878 l 1
 1025 878 l 1
 1025 440 l 1
 1025 1 l 1
 951 1 l 1
 878 1 l 1xb220
 878 74 l 1
 878 147 l 1
 805 147 l 1x7220
 731 147 l 1
 731 74 l 1
 731 1 l 1
 512 1 l 1
 292 1 l 1
 292 74 l 1
 292 147 l 1xb240
 219 147 l 1
 146 147 l 1
 146 366 l 1
 146 586 l 1
 219 586 l 1
 292 586 l 1
 292 659 l 1
 292 732 l 1
 585 732 l 1
 878 732 l 1
 878 805 l 1
 878 878 l 1
 585 878 l 1
 292 878 l 1
 292 951 l 1x7220
878 439 m 1
 878 586 l 1x7220
 585 586 l 1
 292 586 l 1
 292 366 l 1
 292 147 l 1
 512 147 l 1
 731 147 l 1xb240
 731 220 l 1
 731 293 l 1x7240
 805 293 l 1
 878 293 l 1x7220
 878 439 l 1
439 1391 m 1x37
 439 1463 l 1
 512 1463 l 1
 585 1463 l 1x37
 585 1391 l 1
 585 1318 l 1x3b
 659 1318 l 1
 731 1318 l 1
 731 1244 l 1
 731 1171 l 1
 659 1171 l 1
 585 1171 l 1
 585 1244 l 1x3a80
 585 1318 l 1x3b
 512 1318 l 1
 439 1318 l 1
 439 1391 l 1x37
EndSplineSet
Validated: 5
EndChar

StartChar: aacute
Encoding: 225 225 160
Width: 1170
VWidth: 0
Flags: HW
HStem: 1 146<292.571 731.721> 147 146<731.721 878.007> 586 146<292.571 878.007> 878 146<292.571 878.007> 1171 147<439.149 585.436> 1317 146<585.436 731.721>
VStem: 146 146<147.143 585.707> 439 146<1170.85 1317.43> 585 146<1317.43 1463.71> 732 293<147.143 293.136> 878 146<0.857422 147.143 293.136 585.707 731.993 878.279>
LayerCount: 2
Back
Fore
SplineSet
292 951 m 1x7220
 292 1024 l 1
 585 1024 l 1
 878 1024 l 1
 878 951 l 1
 878 878 l 1
 951 878 l 1
 1025 878 l 1
 1025 440 l 1
 1025 1 l 1
 951 1 l 1
 878 1 l 1xb220
 878 74 l 1
 878 147 l 1
 805 147 l 1x7220
 731 147 l 1
 731 74 l 1
 731 1 l 1
 512 1 l 1
 292 1 l 1
 292 74 l 1
 292 147 l 1xb240
 219 147 l 1
 146 147 l 1
 146 366 l 1
 146 586 l 1
 219 586 l 1
 292 586 l 1
 292 659 l 1
 292 732 l 1
 585 732 l 1
 878 732 l 1
 878 805 l 1
 878 878 l 1
 585 878 l 1
 292 878 l 1
 292 951 l 1x7220
878 439 m 1
 878 586 l 1x7220
 585 586 l 1
 292 586 l 1
 292 366 l 1
 292 147 l 1
 512 147 l 1
 731 147 l 1xb240
 731 220 l 1
 731 293 l 1x7240
 805 293 l 1
 878 293 l 1x7220
 878 439 l 1
585 1391 m 1x3a80
 585 1463 l 1
 659 1463 l 1
 731 1463 l 1
 731 1391 l 1
 731 1318 l 1
 659 1318 l 1x3680
 585 1318 l 1
 585 1244 l 1
 585 1171 l 1
 512 1171 l 1
 439 1171 l 1
 439 1244 l 1
 439 1318 l 1
 512 1318 l 1
 585 1318 l 1x3b
 585 1391 l 1x3a80
EndSplineSet
Validated: 5
EndChar

StartChar: acircumflex
Encoding: 226 226 161
Width: 1170
VWidth: 0
Flags: HW
HStem: 1 146<292.571 731.721> 147 146<731.721 878.007> 586 146<292.571 878.007> 878 146<292.571 878.007> 1171 147<292.571 439.149 731.721 878.007> 1317 146<439.149 731.721>
VStem: 146 146<147.143 585.707> 293 147<1170.85 1317.43> 439 293<1317.43 1463.71> 732 146<1170.85 1317.43> 878 146<0.857422 147.143 293.136 585.707 731.993 878.279>
LayerCount: 2
Back
Fore
SplineSet
292 951 m 1x7120
 292 1024 l 1
 585 1024 l 1
 878 1024 l 1
 878 951 l 1
 878 878 l 1
 951 878 l 1
 1024 878 l 1
 1024 440 l 1
 1024 1 l 1
 951 1 l 1
 878 1 l 1xb120
 878 74 l 1
 878 147 l 1
 805 147 l 1x7120
 732 147 l 1
 732 74 l 1
 732 1 l 1
 512 1 l 1
 292 1 l 1
 292 74 l 1xb140
 292 147 l 1xb2
 219 147 l 1
 146 147 l 1
 146 366 l 1
 146 586 l 1
 219 586 l 1
 292 586 l 1x72
 292 659 l 1
 292 732 l 1
 585 732 l 1
 878 732 l 1
 878 805 l 1
 878 878 l 1
 585 878 l 1
 292 878 l 1
 292 951 l 1x7120
878 439 m 1
 878 586 l 1x7020
 585 586 l 1
 292 586 l 1
 292 366 l 1
 292 147 l 1
 512 147 l 1
 732 147 l 1xb240
 732 220 l 1
 732 293 l 1x7240
 805 293 l 1
 878 293 l 1x7020
 878 439 l 1
440 1391 m 1x3880
 440 1463 l 1
 585 1463 l 1
 732 1463 l 1x3480
 732 1391 l 1
 732 1318 l 1x3880
 805 1318 l 1
 878 1318 l 1
 878 1244 l 1
 878 1171 l 1
 805 1171 l 1
 732 1171 l 1
 732 1244 l 1x3840
 732 1318 l 1x3880
 585 1318 l 1x3480
 440 1318 l 1
 440 1244 l 1
 440 1171 l 1
 366 1171 l 1
 292 1171 l 1
 292 1244 l 1
 292 1318 l 1
 366 1318 l 1
 440 1318 l 1x39
 440 1391 l 1x3880
EndSplineSet
Validated: 5
EndChar

StartChar: atilde
Encoding: 227 227 162
Width: 1170
VWidth: 0
Flags: HW
HStem: 1 146<292.571 731.721> 147 146<731.721 878.007> 586 146<292.571 878.007> 878 146<292.571 878.007> 1171 147<146.286 292.571 585.436 878.007> 1317 146<292.571 585.436 878.007 1024.29>
VStem: 146 146<147.143 585.707 1170.85 1317.43> 293 293<1317.43 1463.71> 585 293<1170.85 1317.43> 732 293<147.143 293.136> 878 146<0.857422 147.143 293.136 585.707 731.993 878.279 1317.43 1463.71>
LayerCount: 2
Back
Fore
SplineSet
292 951 m 1x7120
 292 1024 l 1
 585 1024 l 1
 878 1024 l 1
 878 951 l 1
 878 878 l 1
 951 878 l 1
 1025 878 l 1
 1025 440 l 1
 1025 1 l 1
 951 1 l 1
 878 1 l 1xb120
 878 74 l 1
 878 147 l 1
 805 147 l 1x7120
 732 147 l 1
 732 74 l 1
 732 1 l 1
 512 1 l 1
 292 1 l 1
 292 74 l 1xb140
 292 147 l 1xb2
 219 147 l 1
 146 147 l 1
 146 366 l 1
 146 586 l 1
 219 586 l 1
 292 586 l 1x72
 292 659 l 1
 292 732 l 1
 585 732 l 1
 878 732 l 1
 878 805 l 1
 878 878 l 1
 585 878 l 1
 292 878 l 1
 292 951 l 1x7120
878 439 m 1
 878 586 l 1x7020
 585 586 l 1
 292 586 l 1
 292 366 l 1
 292 147 l 1
 512 147 l 1
 732 147 l 1xb240
 732 220 l 1
 732 293 l 1x7240
 805 293 l 1
 878 293 l 1x7020
 878 439 l 1
292 1391 m 1x39
 292 1463 l 1
 439 1463 l 1
 586 1463 l 1x35
 586 1391 l 1
 586 1318 l 1
 732 1318 l 1x3940
 878 1318 l 1x3880
 878 1391 l 1
 878 1463 l 1
 951 1463 l 1
 1025 1463 l 1
 1025 1391 l 1
 1025 1318 l 1
 951 1318 l 1x3420
 878 1318 l 1
 878 1244 l 1
 878 1171 l 1x3880
 732 1171 l 1x3840
 586 1171 l 1
 586 1244 l 1x3880
 586 1318 l 1x39
 439 1318 l 1x35
 292 1318 l 1
 292 1244 l 1
 292 1171 l 1
 219 1171 l 1
 146 1171 l 1
 146 1244 l 1
 146 1318 l 1
 219 1318 l 1
 292 1318 l 1x3a
 292 1391 l 1x39
EndSplineSet
Validated: 5
EndChar

StartChar: adieresis
Encoding: 228 228 163
Width: 1170
VWidth: 0
Flags: HW
HStem: 1 146<292.571 731.721> 147 146<731.721 878.007> 586 146<292.571 878.007> 878 146<292.571 878.007> 1171 293<292.571 439.149 731.721 878.007>
VStem: 146 146<147.143 585.707> 293 147<1170.85 1463.71> 732 146<1170.85 1463.71> 878 146<0.857422 147.143 293.136 585.707 731.993 878.279>
LayerCount: 2
Back
Fore
SplineSet
292 951 m 1x7a80
 292 1024 l 1
 585 1024 l 1
 878 1024 l 1
 878 951 l 1
 878 878 l 1
 951 878 l 1
 1024 878 l 1
 1024 440 l 1
 1024 1 l 1
 951 1 l 1
 878 1 l 1xba80
 878 74 l 1
 878 147 l 1
 805 147 l 1x7a80
 732 147 l 1
 732 74 l 1
 732 1 l 1
 512 1 l 1
 292 1 l 1
 292 74 l 1xbb
 292 147 l 1xbc
 219 147 l 1
 146 147 l 1
 146 366 l 1
 146 586 l 1
 219 586 l 1
 292 586 l 1x7c
 292 659 l 1
 292 732 l 1
 585 732 l 1
 878 732 l 1
 878 805 l 1
 878 878 l 1
 585 878 l 1
 292 878 l 1
 292 951 l 1x7a80
878 439 m 1
 878 586 l 1x7880
 585 586 l 1
 292 586 l 1
 292 366 l 1
 292 147 l 1
 512 147 l 1
 732 147 l 1xbd
 732 220 l 1
 732 293 l 1x7d
 805 293 l 1
 878 293 l 1x7880
 878 439 l 1
732 1317 m 1x39
 732 1464 l 1
 805 1464 l 1
 878 1464 l 1
 878 1317 l 1
 878 1171 l 1
 805 1171 l 1
 732 1171 l 1
 732 1317 l 1x39
292 1317 m 1x3a
 292 1464 l 1
 366 1464 l 1
 440 1464 l 1
 440 1317 l 1
 440 1171 l 1
 366 1171 l 1
 292 1171 l 1
 292 1317 l 1x3a
EndSplineSet
Validated: 5
EndChar

StartChar: aring
Encoding: 229 229 164
Width: 1170
VWidth: 0
Flags: HW
HStem: 1 146<292.571 731.721> 147 146<731.721 878.007> 586 146<292.571 878.007> 878 293<439.149 731.721> 878 146<292.571 439.149 731.721 878.007> 1171 147<292.571 439.149 731.721 878.007> 1317 146<439.149 731.721>
VStem: 146 146<147.143 585.707> 293 147<1170.85 1317.43> 439 293<1024.56 1170.85 1317.43 1463.71> 732 146<1170.85 1317.43> 878 146<0.857422 147.143 293.136 585.707 731.993 878.279>
LayerCount: 2
Back
Fore
SplineSet
440 1391 m 1x2440
 440 1463 l 1
 585 1463 l 1
 732 1463 l 1x2240
 732 1391 l 1
 732 1318 l 1x2440
 805 1318 l 1
 878 1318 l 1
 878 1244 l 1
 878 1171 l 1
 805 1171 l 1x2420
 732 1171 l 1x3040
 732 1098 l 1
 732 1024 l 1
 805 1024 l 1
 878 1024 l 1
 878 951 l 1
 878 878 l 1
 951 878 l 1
 1024 878 l 1
 1024 440 l 1
 1024 1 l 1
 951 1 l 1
 878 1 l 1xa850
 878 74 l 1
 878 147 l 1
 805 147 l 1x6050
 732 147 l 1
 732 74 l 1
 732 1 l 1
 512 1 l 1
 292 1 l 1
 292 74 l 1xa0a0
 292 147 l 1xa1
 219 147 l 1
 146 147 l 1
 146 366 l 1
 146 586 l 1
 219 586 l 1
 292 586 l 1x61
 292 659 l 1
 292 732 l 1
 585 732 l 1
 878 732 l 1
 878 805 l 1
 878 878 l 1x6890
 585 878 l 1x3090
 292 878 l 1
 292 951 l 1
 292 1024 l 1x2890
 366 1024 l 1
 440 1024 l 1
 440 1098 l 1x2840
 440 1171 l 1x3080
 366 1171 l 1
 292 1171 l 1
 292 1244 l 1
 292 1318 l 1
 366 1318 l 1
 440 1318 l 1x2480
 440 1391 l 1x2440
732 1244 m 1x3020
 732 1318 l 1x2440
 585 1318 l 1x2240
 440 1318 l 1x2480
 440 1244 l 1
 440 1171 l 1x3080
 585 1171 l 1
 732 1171 l 1x3040
 732 1244 l 1x3020
878 439 m 1x6010
 878 586 l 1x6010
 585 586 l 1
 292 586 l 1
 292 366 l 1
 292 147 l 1
 512 147 l 1
 732 147 l 1xa120
 732 220 l 1
 732 293 l 1x6120
 805 293 l 1
 878 293 l 1
 878 439 l 1x6010
EndSplineSet
Validated: 5
EndChar

StartChar: ae
Encoding: 230 230 165
Width: 1170
VWidth: 0
Flags: HW
HStem: 1 146<146.286 439.149 585.436 878.007> 439 146<585.436 878.007> 586 146<146.286 439.149> 878 146<146.286 439.149 585.436 878.007>
VStem: 0 146<147.143 585.707> 146 293<0.857422 147.143 878.279 1024.56> 439 146<147.143 439.422 731.993 878.279> 585 293<0.857422 147.143 878.279 1024.56> 878 146<585.707 878.279>
LayerCount: 2
Back
Fore
SplineSet
146 951 m 1xb4
 146 1024 l 1
 293 1024 l 1
 439 1024 l 1
 439 951 l 1
 439 878 l 1xb4
 512 878 l 1
 585 878 l 1xb2
 585 951 l 1
 585 1024 l 1
 732 1024 l 1
 878 1024 l 1
 878 951 l 1
 878 878 l 1xb1
 951 878 l 1
 1024 878 l 1
 1024 659 l 1
 1024 439 l 1
 805 439 l 1
 585 439 l 1
 585 293 l 1
 585 147 l 1xd280
 732 147 l 1
 878 147 l 1
 878 74 l 1
 878 1 l 1
 732 1 l 1
 585 1 l 1
 585 74 l 1xd1
 585 147 l 1xd2
 512 147 l 1
 439 147 l 1
 439 74 l 1
 439 1 l 1
 293 1 l 1
 146 1 l 1
 146 74 l 1xd4
 146 147 l 1
 73 147 l 1
 0 147 l 1
 0 366 l 1
 0 585 l 1
 73 585 l 1
 146 585 l 1xb8
 146 659 l 1
 146 732 l 1xb4
 293 732 l 1
 439 732 l 1
 439 805 l 1xb2
 439 878 l 1
 293 878 l 1
 146 878 l 1
 146 951 l 1xb4
878 732 m 1xb080
 878 878 l 1xb1
 732 878 l 1
 585 878 l 1
 585 732 l 1xb2
 585 585 l 1xd1
 732 585 l 1
 878 585 l 1xd080
 878 732 l 1xb080
439 366 m 1xb2
 439 585 l 1
 293 585 l 1
 146 585 l 1
 146 366 l 1
 146 147 l 1xba
 293 147 l 1
 439 147 l 1xb4
 439 366 l 1xb2
EndSplineSet
Validated: 5
EndChar

StartChar: ccedilla
Encoding: 231 231 166
Width: 1170
VWidth: 0
Flags: HW
HStem: -292 146<292.571 439.149> 1 146<292.571 439.149 585.436 878.007> 147 146<878.007 1024.29> 732 146<878.007 1024.29> 878 146<292.571 878.007>
VStem: 146 146<147.143 878.279> 293 147<-291.714 -145.429> 439 146<-145.429 0.857422> 878 146<147.143 293.136 731.993 878.279>
LayerCount: 2
Back
Fore
SplineSet
292 951 m 1xaa80
 292 1024 l 1
 585 1024 l 1
 878 1024 l 1xaa80
 878 951 l 1
 878 878 l 1
 951 878 l 1
 1024 878 l 1
 1024 805 l 1
 1024 732 l 1
 951 732 l 1
 878 732 l 1
 878 805 l 1
 878 878 l 1x9280
 585 878 l 1
 292 878 l 1
 292 513 l 1
 292 147 l 1xcc80
 585 147 l 1xa480
 878 147 l 1xc480
 878 220 l 1
 878 293 l 1
 951 293 l 1
 1024 293 l 1
 1024 220 l 1
 1024 147 l 1
 951 147 l 1xa480
 878 147 l 1
 878 74 l 1
 878 1 l 1
 732 1 l 1
 585 1 l 1
 585 -72 l 1
 585 -146 l 1xc580
 512 -146 l 1
 440 -146 l 1
 440 -219 l 1
 440 -292 l 1
 366 -292 l 1
 292 -292 l 1
 292 -219 l 1
 292 -146 l 1
 366 -146 l 1
 440 -146 l 1xc280
 440 -72 l 1
 440 1 l 1xc180
 366 1 l 1
 292 1 l 1
 292 74 l 1xc280
 292 147 l 1xc480
 219 147 l 1
 146 147 l 1
 146 513 l 1
 146 878 l 1
 219 878 l 1
 292 878 l 1xac80
 292 951 l 1xaa80
EndSplineSet
Validated: 5
EndChar

StartChar: egrave
Encoding: 232 232 167
Width: 1170
VWidth: 0
Flags: HW
HStem: 1 146<292.571 1024.29> 439 146<292.571 878.007> 878 146<292.571 878.007> 1171 147<585.436 731.721> 1317 146<439.149 585.436>
VStem: 146 146<147.143 439.422 585.707 878.279> 439 146<1317.43 1463.71> 585 146<1170.85 1317.43> 878 146<585.707 878.279>
LayerCount: 2
Back
Fore
SplineSet
292 951 m 1xe480
 292 1024 l 1
 585 1024 l 1
 878 1024 l 1
 878 951 l 1
 878 878 l 1
 951 878 l 1
 1024 878 l 1
 1024 659 l 1
 1024 439 l 1
 658 439 l 1
 292 439 l 1
 292 293 l 1
 292 147 l 1
 658 147 l 1
 1024 147 l 1
 1024 74 l 1
 1024 1 l 1
 658 1 l 1
 292 1 l 1
 292 74 l 1
 292 147 l 1
 219 147 l 1
 146 147 l 1
 146 513 l 1
 146 878 l 1
 219 878 l 1
 292 878 l 1
 292 951 l 1xe480
878 732 m 1
 878 878 l 1
 585 878 l 1
 292 878 l 1
 292 732 l 1
 292 585 l 1
 585 585 l 1
 878 585 l 1
 878 732 l 1
439 1391 m 1xee80
 439 1463 l 1
 512 1463 l 1
 585 1463 l 1xee80
 585 1391 l 1
 585 1318 l 1xf680
 659 1318 l 1
 731 1318 l 1
 731 1244 l 1
 731 1171 l 1
 659 1171 l 1
 585 1171 l 1
 585 1244 l 1xf580
 585 1318 l 1xf680
 512 1318 l 1
 439 1318 l 1
 439 1391 l 1xee80
EndSplineSet
Validated: 5
EndChar

StartChar: eacute
Encoding: 233 233 168
Width: 1170
VWidth: 0
Flags: HW
HStem: 1 146<292.571 1024.29> 439 146<292.571 878.007> 878 146<292.571 878.007> 1171 147<439.149 585.436> 1317 146<585.436 731.721>
VStem: 146 146<147.143 439.422 585.707 878.279> 439 146<1170.85 1317.43> 585 146<1317.43 1463.71> 878 146<585.707 878.279>
LayerCount: 2
Back
Fore
SplineSet
292 951 m 1xe480
 292 1024 l 1
 585 1024 l 1
 878 1024 l 1
 878 951 l 1
 878 878 l 1
 951 878 l 1
 1024 878 l 1
 1024 659 l 1
 1024 439 l 1
 658 439 l 1
 292 439 l 1
 292 293 l 1
 292 147 l 1
 658 147 l 1
 1024 147 l 1
 1024 74 l 1
 1024 1 l 1
 658 1 l 1
 292 1 l 1
 292 74 l 1
 292 147 l 1
 219 147 l 1
 146 147 l 1
 146 513 l 1
 146 878 l 1
 219 878 l 1
 292 878 l 1
 292 951 l 1xe480
878 732 m 1
 878 878 l 1
 585 878 l 1
 292 878 l 1
 292 732 l 1
 292 585 l 1
 585 585 l 1
 878 585 l 1
 878 732 l 1
585 1391 m 1xf580
 585 1463 l 1
 659 1463 l 1
 731 1463 l 1
 731 1391 l 1
 731 1318 l 1
 659 1318 l 1xed80
 585 1318 l 1
 585 1244 l 1
 585 1171 l 1
 512 1171 l 1
 439 1171 l 1
 439 1244 l 1
 439 1318 l 1
 512 1318 l 1
 585 1318 l 1xf680
 585 1391 l 1xf580
EndSplineSet
Validated: 5
EndChar

StartChar: ecircumflex
Encoding: 234 234 169
Width: 1170
VWidth: 0
Flags: HW
HStem: 1 146<292.571 1024.29> 439 146<292.571 878.007> 878 146<292.571 878.007> 1171 147<292.571 439.149 731.721 878.007> 1317 146<439.149 731.721>
VStem: 146 146<147.143 439.422 585.707 878.279> 293 147<1170.85 1317.43> 439 293<1317.43 1463.71> 732 146<1170.85 1317.43> 878 146<585.707 878.279>
LayerCount: 2
Back
Fore
SplineSet
292 951 m 1xe2
 292 1024 l 1xe2
 585 1024 l 1
 878 1024 l 1
 878 951 l 1
 878 878 l 1
 951 878 l 1
 1024 878 l 1
 1024 659 l 1
 1024 439 l 1
 658 439 l 1
 292 439 l 1
 292 293 l 1
 292 147 l 1xe440
 658 147 l 1
 1024 147 l 1
 1024 74 l 1
 1024 1 l 1
 658 1 l 1
 292 1 l 1
 292 74 l 1xe240
 292 147 l 1
 219 147 l 1
 146 147 l 1
 146 513 l 1
 146 878 l 1
 219 878 l 1
 292 878 l 1xe4
 292 951 l 1xe2
878 732 m 1xe440
 878 878 l 1
 585 878 l 1
 292 878 l 1
 292 732 l 1
 292 585 l 1
 585 585 l 1
 878 585 l 1
 878 732 l 1xe440
440 1391 m 1xf1
 440 1463 l 1
 585 1463 l 1
 732 1463 l 1xe9
 732 1391 l 1
 732 1318 l 1xf1
 805 1318 l 1
 878 1318 l 1
 878 1244 l 1
 878 1171 l 1
 805 1171 l 1
 732 1171 l 1
 732 1244 l 1xf080
 732 1318 l 1xf1
 585 1318 l 1xe9
 440 1318 l 1
 440 1244 l 1
 440 1171 l 1
 366 1171 l 1
 292 1171 l 1
 292 1244 l 1
 292 1318 l 1
 366 1318 l 1
 440 1318 l 1xf2
 440 1391 l 1xf1
EndSplineSet
Validated: 5
EndChar

StartChar: edieresis
Encoding: 235 235 170
Width: 1170
VWidth: 0
Flags: HW
HStem: 1 146<292.571 1024.29> 439 146<292.571 878.007> 878 146<292.571 878.007> 1171 293<292.571 439.149 731.721 878.007>
VStem: 146 146<147.143 439.422 585.707 878.279> 293 147<1170.85 1463.71> 732 146<1170.85 1463.71> 878 146<585.707 878.279>
LayerCount: 2
Back
Fore
SplineSet
292 951 m 1xf4
 292 1024 l 1xf4
 585 1024 l 1
 878 1024 l 1
 878 951 l 1
 878 878 l 1
 951 878 l 1
 1024 878 l 1
 1024 659 l 1
 1024 439 l 1
 658 439 l 1
 292 439 l 1
 292 293 l 1
 292 147 l 1xf9
 658 147 l 1
 1024 147 l 1
 1024 74 l 1
 1024 1 l 1
 658 1 l 1
 292 1 l 1
 292 74 l 1xf5
 292 147 l 1
 219 147 l 1
 146 147 l 1
 146 513 l 1
 146 878 l 1
 219 878 l 1
 292 878 l 1xf8
 292 951 l 1xf4
878 732 m 1xf9
 878 878 l 1
 585 878 l 1
 292 878 l 1
 292 732 l 1
 292 585 l 1
 585 585 l 1
 878 585 l 1
 878 732 l 1xf9
732 1317 m 1xf2
 732 1464 l 1
 805 1464 l 1
 878 1464 l 1
 878 1317 l 1
 878 1171 l 1
 805 1171 l 1
 732 1171 l 1
 732 1317 l 1xf2
292 1317 m 1xf4
 292 1464 l 1
 366 1464 l 1
 440 1464 l 1
 440 1317 l 1
 440 1171 l 1
 366 1171 l 1
 292 1171 l 1
 292 1317 l 1xf4
EndSplineSet
Validated: 5
EndChar

StartChar: igrave
Encoding: 236 236 171
Width: 1170
VWidth: 0
Flags: HW
HStem: 1 146<585.436 878.007> 878 146<146.286 439.149> 1171 147<439.149 585.436> 1317 146<292.571 439.149>
VStem: 293 147<1317.43 1463.71> 439 146<147.143 878.279 1170.85 1317.43>
LayerCount: 2
Back
Fore
SplineSet
146 951 m 1xc4
 146 1024 l 1
 366 1024 l 1
 585 1024 l 1
 585 586 l 1
 585 147 l 1
 732 147 l 1
 878 147 l 1
 878 74 l 1
 878 1 l 1
 659 1 l 1
 440 1 l 1
 440 440 l 1
 440 878 l 1
 293 878 l 1
 146 878 l 1
 146 951 l 1xc4
293 1391 m 1xd8
 293 1463 l 1
 366 1463 l 1
 440 1463 l 1xd8
 440 1391 l 1
 440 1318 l 1xe8
 512 1318 l 1
 585 1318 l 1
 585 1244 l 1
 585 1171 l 1
 512 1171 l 1
 440 1171 l 1
 440 1244 l 1xe4
 440 1318 l 1xe8
 366 1318 l 1
 293 1318 l 1
 293 1391 l 1xd8
EndSplineSet
Validated: 5
EndChar

StartChar: iacute
Encoding: 237 237 172
Width: 1170
VWidth: 0
Flags: HW
HStem: 1 146<585.436 878.007> 878 146<146.286 439.149> 1171 147<439.149 585.436> 1317 146<585.436 731.721>
VStem: 439 146<147.143 878.279 1170.85 1317.43> 585 146<1317.43 1463.71>
LayerCount: 2
Back
Fore
SplineSet
146 951 m 1xc8
 146 1024 l 1
 366 1024 l 1
 585 1024 l 1xc4
 585 586 l 1
 585 147 l 1xc8
 731 147 l 1xc4
 878 147 l 1
 878 74 l 1
 878 1 l 1
 659 1 l 1
 439 1 l 1
 439 440 l 1
 439 878 l 1
 293 878 l 1
 146 878 l 1
 146 951 l 1xc8
585 1391 m 1
 585 1463 l 1
 659 1463 l 1
 731 1463 l 1
 731 1391 l 1
 731 1318 l 1
 659 1318 l 1xd4
 585 1318 l 1
 585 1244 l 1
 585 1171 l 1
 512 1171 l 1
 439 1171 l 1
 439 1244 l 1
 439 1318 l 1
 512 1318 l 1
 585 1318 l 1xe8
 585 1391 l 1
EndSplineSet
Validated: 5
EndChar

StartChar: icircumflex
Encoding: 238 238 173
Width: 1170
VWidth: 0
Flags: HW
HStem: 1 146<585.436 878.007> 878 146<146.286 439.149> 1171 147<146.286 292.571 585.436 731.721> 1317 146<292.571 585.436>
VStem: 146 146<1170.85 1317.43> 293 293<1317.43 1463.71> 439 146<147.143 878.279> 585 146<1170.85 1317.43>
LayerCount: 2
Back
Fore
SplineSet
146 951 m 1xca
 146 1024 l 1
 366 1024 l 1
 586 1024 l 1xc9
 586 586 l 1
 586 147 l 1xc2
 731 147 l 1xc1
 878 147 l 1
 878 74 l 1
 878 1 l 1
 659 1 l 1
 439 1 l 1
 439 440 l 1
 439 878 l 1
 293 878 l 1
 146 878 l 1
 146 951 l 1xca
292 1391 m 1xe4
 292 1463 l 1
 439 1463 l 1
 586 1463 l 1xd4
 586 1391 l 1
 586 1318 l 1xe4
 659 1318 l 1
 731 1318 l 1
 731 1244 l 1
 731 1171 l 1
 659 1171 l 1
 586 1171 l 1
 586 1244 l 1xe1
 586 1318 l 1xe4
 439 1318 l 1xd4
 292 1318 l 1
 292 1244 l 1
 292 1171 l 1
 219 1171 l 1
 146 1171 l 1
 146 1244 l 1
 146 1318 l 1
 219 1318 l 1
 292 1318 l 1xe8
 292 1391 l 1xe4
EndSplineSet
Validated: 5
EndChar

StartChar: idieresis
Encoding: 239 239 174
Width: 1170
VWidth: 0
Flags: HW
HStem: 1 146<585.436 878.007> 878 146<146.286 439.149> 1171 293<146.286 292.571 585.436 731.721>
VStem: 146 146<1170.85 1463.71> 439 146<147.143 878.279> 585 146<1170.85 1463.71>
LayerCount: 2
Back
Fore
SplineSet
146 951 m 1xf8
 146 1024 l 1
 366 1024 l 1
 585 1024 l 1xf4
 585 586 l 1
 585 147 l 1xf8
 731 147 l 1xf4
 878 147 l 1
 878 74 l 1
 878 1 l 1
 659 1 l 1
 439 1 l 1
 439 440 l 1
 439 878 l 1
 293 878 l 1
 146 878 l 1
 146 951 l 1xf8
585 1317 m 1
 585 1464 l 1
 659 1464 l 1
 731 1464 l 1
 731 1317 l 1
 731 1171 l 1
 659 1171 l 1
 585 1171 l 1
 585 1317 l 1
146 1317 m 1
 146 1464 l 1
 219 1464 l 1
 292 1464 l 1
 292 1317 l 1
 292 1171 l 1
 219 1171 l 1
 146 1171 l 1
 146 1317 l 1
EndSplineSet
Validated: 1
EndChar

StartChar: eth
Encoding: 240 240 175
Width: 1170
VWidth: 0
Flags: HW
HStem: 1 146<292.571 878.007> 878 293<292.571 439.149 585.436 731.721> 878 146<439.149 585.436 731.721 878.007> 1171 147<439.149 585.436> 1317 146<292.571 439.149 585.436 731.721>
VStem: 146 146<147.143 878.279> 293 147<1024.56 1170.85 1317.43 1463.71> 439 146<1170.85 1317.43> 585 146<1024.56 1170.85 1317.43 1463.71> 878 146<147.143 878.279>
LayerCount: 2
Back
Fore
SplineSet
292 1391 m 1x8a40
 292 1463 l 1
 366 1463 l 1
 440 1463 l 1x8a40
 440 1391 l 1
 440 1318 l 1x9240
 512 1318 l 1
 585 1318 l 1x9140
 585 1391 l 1
 585 1463 l 1
 659 1463 l 1
 731 1463 l 1
 731 1391 l 1
 731 1318 l 1
 659 1318 l 1x88c0
 585 1318 l 1x9140
 585 1244 l 1
 585 1171 l 1xc140
 659 1171 l 1
 731 1171 l 1xc0c0
 731 1098 l 1
 731 1024 l 1
 805 1024 l 1
 878 1024 l 1
 878 951 l 1
 878 878 l 1
 951 878 l 1
 1024 878 l 1
 1024 513 l 1
 1024 147 l 1
 951 147 l 1
 878 147 l 1
 878 74 l 1
 878 1 l 1
 585 1 l 1
 292 1 l 1
 292 74 l 1xa2c0
 292 147 l 1
 219 147 l 1
 146 147 l 1
 146 513 l 1
 146 878 l 1
 219 878 l 1xa440
 292 878 l 1xc440
 292 1024 l 1xa240
 292 1171 l 1
 366 1171 l 1
 440 1171 l 1xc240
 440 1244 l 1xc140
 440 1318 l 1x9240
 366 1318 l 1
 292 1318 l 1
 292 1391 l 1x8a40
585 1098 m 1xa2c0
 585 1171 l 1xc140
 512 1171 l 1x9140
 440 1171 l 1xc240
 440 1098 l 1
 440 1024 l 1
 512 1024 l 1
 585 1024 l 1
 585 1098 l 1xa2c0
878 513 m 1
 878 878 l 1
 585 878 l 1xa440
 292 878 l 1
 292 513 l 1
 292 147 l 1xc440
 585 147 l 1
 878 147 l 1
 878 513 l 1
EndSplineSet
Validated: 5
EndChar

StartChar: ntilde
Encoding: 241 241 176
Width: 1170
VWidth: 0
Flags: HW
HStem: 1 21G<146.286 292.571 878.007 1024.29> 878 146<292.571 878.007> 1171 147<146.286 292.571 585.436 878.007> 1317 146<292.571 585.436 878.007 1024.29>
VStem: 146 146<0.857422 878.279 1170.85 1317.43> 293 293<1317.43 1463.71> 585 293<1170.85 1317.43> 878 146<0.857422 878.279 1317.43 1463.71>
LayerCount: 2
Back
Fore
SplineSet
146 513 m 1xc9
 146 1024 l 1
 512 1024 l 1
 878 1024 l 1
 878 951 l 1
 878 878 l 1
 951 878 l 1
 1024 878 l 1
 1024 440 l 1
 1024 1 l 1
 951 1 l 1
 878 1 l 1
 878 440 l 1
 878 878 l 1
 585 878 l 1
 292 878 l 1
 292 440 l 1
 292 1 l 1
 219 1 l 1
 146 1 l 1
 146 513 l 1xc9
292 1391 m 1xe4
 292 1463 l 1
 439 1463 l 1
 586 1463 l 1xd4
 586 1391 l 1
 586 1318 l 1xe4
 732 1318 l 1
 878 1318 l 1xe2
 878 1391 l 1
 878 1463 l 1
 951 1463 l 1
 1024 1463 l 1
 1024 1391 l 1
 1024 1318 l 1
 951 1318 l 1xd1
 878 1318 l 1
 878 1244 l 1
 878 1171 l 1
 732 1171 l 1
 586 1171 l 1
 586 1244 l 1xe2
 586 1318 l 1xe4
 439 1318 l 1xd4
 292 1318 l 1
 292 1244 l 1
 292 1171 l 1
 219 1171 l 1
 146 1171 l 1
 146 1244 l 1
 146 1318 l 1
 219 1318 l 1
 292 1318 l 1xe8
 292 1391 l 1xe4
EndSplineSet
Validated: 5
EndChar

StartChar: ograve
Encoding: 242 242 177
Width: 1170
VWidth: 0
Flags: HW
HStem: 1 146<292.571 878.007> 878 146<292.571 878.007> 1171 147<585.436 731.721> 1317 146<439.149 585.436>
VStem: 146 146<147.143 878.279> 439 146<1317.43 1463.71> 585 146<1170.85 1317.43> 878 146<147.143 878.279>
LayerCount: 2
Back
Fore
SplineSet
292 951 m 1xc9
 292 1024 l 1
 585 1024 l 1
 878 1024 l 1
 878 951 l 1
 878 878 l 1
 951 878 l 1
 1024 878 l 1
 1024 513 l 1
 1024 147 l 1
 951 147 l 1
 878 147 l 1
 878 74 l 1
 878 1 l 1
 585 1 l 1
 292 1 l 1
 292 74 l 1
 292 147 l 1
 219 147 l 1
 146 147 l 1
 146 513 l 1
 146 878 l 1
 219 878 l 1
 292 878 l 1
 292 951 l 1xc9
878 513 m 1
 878 878 l 1
 585 878 l 1
 292 878 l 1
 292 513 l 1
 292 147 l 1
 585 147 l 1
 878 147 l 1
 878 513 l 1
439 1391 m 1xdd
 439 1463 l 1
 512 1463 l 1
 585 1463 l 1xdd
 585 1391 l 1
 585 1318 l 1xed
 659 1318 l 1
 731 1318 l 1
 731 1244 l 1
 731 1171 l 1
 659 1171 l 1
 585 1171 l 1
 585 1244 l 1xeb
 585 1318 l 1xed
 512 1318 l 1
 439 1318 l 1
 439 1391 l 1xdd
EndSplineSet
Validated: 5
EndChar

StartChar: oacute
Encoding: 243 243 178
Width: 1170
VWidth: 0
Flags: HW
HStem: 1 146<292.571 878.007> 878 146<292.571 878.007> 1171 147<439.149 585.436> 1317 146<585.436 731.721>
VStem: 146 146<147.143 878.279> 439 146<1170.85 1317.43> 585 146<1317.43 1463.71> 878 146<147.143 878.279>
LayerCount: 2
Back
Fore
SplineSet
292 951 m 1xc9
 292 1024 l 1
 585 1024 l 1
 878 1024 l 1
 878 951 l 1
 878 878 l 1
 951 878 l 1
 1024 878 l 1
 1024 513 l 1
 1024 147 l 1
 951 147 l 1
 878 147 l 1
 878 74 l 1
 878 1 l 1
 585 1 l 1
 292 1 l 1
 292 74 l 1
 292 147 l 1
 219 147 l 1
 146 147 l 1
 146 513 l 1
 146 878 l 1
 219 878 l 1
 292 878 l 1
 292 951 l 1xc9
878 513 m 1
 878 878 l 1
 585 878 l 1
 292 878 l 1
 292 513 l 1
 292 147 l 1
 585 147 l 1
 878 147 l 1
 878 513 l 1
585 1391 m 1xeb
 585 1463 l 1
 659 1463 l 1
 731 1463 l 1
 731 1391 l 1
 731 1318 l 1
 659 1318 l 1xdb
 585 1318 l 1
 585 1244 l 1
 585 1171 l 1
 512 1171 l 1
 439 1171 l 1
 439 1244 l 1
 439 1318 l 1
 512 1318 l 1
 585 1318 l 1xed
 585 1391 l 1xeb
EndSplineSet
Validated: 5
EndChar

StartChar: ocircumflex
Encoding: 244 244 179
Width: 1170
VWidth: 0
Flags: HW
HStem: 1 146<292.571 878.007> 878 146<292.571 878.007> 1171 147<292.571 439.149 731.721 878.007> 1317 146<439.149 731.721>
VStem: 146 146<147.143 878.279> 293 147<1170.85 1317.43> 439 293<1317.43 1463.71> 732 146<1170.85 1317.43> 878 146<147.143 878.279>
LayerCount: 2
Back
Fore
SplineSet
292 951 m 1xc4
 292 1024 l 1
 585 1024 l 1
 878 1024 l 1
 878 951 l 1
 878 878 l 1
 951 878 l 1
 1024 878 l 1
 1024 513 l 1
 1024 147 l 1
 951 147 l 1
 878 147 l 1
 878 74 l 1
 878 1 l 1
 585 1 l 1
 292 1 l 1
 292 74 l 1xc480
 292 147 l 1
 219 147 l 1
 146 147 l 1
 146 513 l 1
 146 878 l 1
 219 878 l 1
 292 878 l 1xc8
 292 951 l 1xc4
878 513 m 1
 878 878 l 1
 585 878 l 1
 292 878 l 1
 292 513 l 1
 292 147 l 1xc880
 585 147 l 1
 878 147 l 1
 878 513 l 1
440 1391 m 1xe2
 440 1463 l 1
 585 1463 l 1
 732 1463 l 1xd2
 732 1391 l 1
 732 1318 l 1xe2
 805 1318 l 1
 878 1318 l 1
 878 1244 l 1
 878 1171 l 1
 805 1171 l 1
 732 1171 l 1
 732 1244 l 1xe1
 732 1318 l 1xe2
 585 1318 l 1xd2
 440 1318 l 1
 440 1244 l 1
 440 1171 l 1
 366 1171 l 1
 292 1171 l 1
 292 1244 l 1
 292 1318 l 1
 366 1318 l 1
 440 1318 l 1xe4
 440 1391 l 1xe2
EndSplineSet
Validated: 5
EndChar

StartChar: otilde
Encoding: 245 245 180
Width: 1170
VWidth: 0
Flags: HW
HStem: 1 146<292.571 878.007> 878 146<292.571 878.007> 1171 147<146.286 292.571 585.436 878.007> 1317 146<292.571 585.436 878.007 1024.29>
VStem: 146 146<147.143 878.279 1170.85 1317.43> 293 293<1317.43 1463.71> 585 293<1170.85 1317.43> 878 146<147.143 878.279 1317.43 1463.71>
LayerCount: 2
Back
Fore
SplineSet
292 951 m 1xc4
 292 1024 l 1
 585 1024 l 1
 878 1024 l 1
 878 951 l 1
 878 878 l 1
 951 878 l 1
 1024 878 l 1
 1024 513 l 1
 1024 147 l 1
 951 147 l 1
 878 147 l 1
 878 74 l 1
 878 1 l 1
 585 1 l 1
 292 1 l 1
 292 74 l 1xc5
 292 147 l 1
 219 147 l 1
 146 147 l 1
 146 513 l 1
 146 878 l 1
 219 878 l 1
 292 878 l 1xc8
 292 951 l 1xc4
878 513 m 1
 878 878 l 1
 585 878 l 1
 292 878 l 1
 292 513 l 1
 292 147 l 1xc9
 585 147 l 1
 878 147 l 1
 878 513 l 1
292 1391 m 1xe4
 292 1463 l 1
 439 1463 l 1
 586 1463 l 1xd4
 586 1391 l 1
 586 1318 l 1xe4
 732 1318 l 1
 878 1318 l 1xe2
 878 1391 l 1
 878 1463 l 1
 951 1463 l 1
 1024 1463 l 1
 1024 1391 l 1
 1024 1318 l 1
 951 1318 l 1xd1
 878 1318 l 1
 878 1244 l 1
 878 1171 l 1
 732 1171 l 1
 586 1171 l 1
 586 1244 l 1xe2
 586 1318 l 1xe4
 439 1318 l 1xd4
 292 1318 l 1
 292 1244 l 1
 292 1171 l 1
 219 1171 l 1
 146 1171 l 1
 146 1244 l 1
 146 1318 l 1
 219 1318 l 1
 292 1318 l 1xe8
 292 1391 l 1xe4
EndSplineSet
Validated: 5
EndChar

StartChar: odieresis
Encoding: 246 246 181
Width: 1170
VWidth: 0
Flags: HW
HStem: 1 146<292.571 878.007> 878 146<292.571 878.007> 1171 293<292.571 439.149 731.721 878.007>
VStem: 146 146<147.143 878.279> 293 147<1170.85 1463.71> 732 146<1170.85 1463.71> 878 146<147.143 878.279>
LayerCount: 2
Back
Fore
SplineSet
292 951 m 1xe8
 292 1024 l 1
 585 1024 l 1
 878 1024 l 1
 878 951 l 1
 878 878 l 1
 951 878 l 1
 1024 878 l 1
 1024 513 l 1
 1024 147 l 1
 951 147 l 1
 878 147 l 1
 878 74 l 1
 878 1 l 1
 585 1 l 1
 292 1 l 1
 292 74 l 1xea
 292 147 l 1
 219 147 l 1
 146 147 l 1
 146 513 l 1
 146 878 l 1
 219 878 l 1
 292 878 l 1xf0
 292 951 l 1xe8
878 513 m 1
 878 878 l 1
 585 878 l 1
 292 878 l 1
 292 513 l 1
 292 147 l 1xf2
 585 147 l 1
 878 147 l 1
 878 513 l 1
732 1317 m 1xe4
 732 1464 l 1
 805 1464 l 1
 878 1464 l 1
 878 1317 l 1
 878 1171 l 1
 805 1171 l 1
 732 1171 l 1
 732 1317 l 1xe4
292 1317 m 1xe8
 292 1464 l 1
 366 1464 l 1
 440 1464 l 1
 440 1317 l 1
 440 1171 l 1
 366 1171 l 1
 292 1171 l 1
 292 1317 l 1xe8
EndSplineSet
Validated: 5
EndChar

StartChar: divide
Encoding: 247 247 182
Width: 1170
VWidth: 0
Flags: HW
HStem: 1 292<439.149 585.436> 439 146<146.286 878.007> 732 293<439.149 585.436>
VStem: 439 146<0.857422 293.136 731.993 1024.56>
LayerCount: 2
Back
Fore
SplineSet
439 147 m 1
 439 293 l 1
 512 293 l 1
 585 293 l 1
 585 147 l 1
 585 1 l 1
 512 1 l 1
 439 1 l 1
 439 147 l 1
146 513 m 1
 146 585 l 1
 512 585 l 1
 878 585 l 1
 878 513 l 1
 878 439 l 1
 512 439 l 1
 146 439 l 1
 146 513 l 1
439 878 m 1
 439 1025 l 1
 512 1025 l 1
 585 1025 l 1
 585 878 l 1
 585 732 l 1
 512 732 l 1
 439 732 l 1
 439 878 l 1
EndSplineSet
Validated: 1
EndChar

StartChar: oslash
Encoding: 248 248 183
Width: 1170
VWidth: 0
Flags: HW
HStem: 1 146<0 146.286 292.571 878.007> 293 146<292.571 439.149> 439 146<439.149 585.436> 586 146<585.436 731.721> 732 293<731.721 878.007> 878 146<292.571 731.721> 1025 146<878.007 1024.29>
VStem: 0 146<0.857422 147.143> 146 293<293.136 439.422> 146 146<147.143 293.136 439.422 878.279> 439 146<439.422 585.707> 585 146<585.707 731.993> 732 293<731.993 878.279> 878 146<147.143 731.993 1024.56 1170.85>
LayerCount: 2
Back
Fore
SplineSet
585 659 m 1xa010
 585 732 l 1
 659 732 l 1
 731 732 l 1
 731 659 l 1
 731 585 l 1
 659 585 l 1x9010
 585 585 l 1
 585 513 l 1
 585 439 l 1
 512 439 l 1xa020
 439 439 l 1xc080
 439 513 l 1
 439 585 l 1
 512 585 l 1
 585 585 l 1xa020
 585 659 l 1xa010
878 1098 m 1x8844
 878 1171 l 1
 951 1171 l 1
 1025 1171 l 1
 1025 1098 l 1
 1025 1025 l 1
 951 1025 l 1x8244
 878 1025 l 1x8844
 878 951 l 1
 878 878 l 1x8444
 951 878 l 1
 1025 878 l 1x8408
 1025 513 l 1
 1025 147 l 1
 951 147 l 1
 878 147 l 1
 878 74 l 1
 878 1 l 1
 585 1 l 1
 292 1 l 1
 292 74 l 1
 292 147 l 1x8444
 219 147 l 1
 146 147 l 1
 146 74 l 1
 146 1 l 1
 73 1 l 1
 0 1 l 1
 0 74 l 1
 0 147 l 1
 73 147 l 1
 146 147 l 1x85
 146 513 l 1
 146 878 l 1
 219 878 l 1
 292 878 l 1
 292 951 l 1
 292 1025 l 1
 585 1025 l 1x8440
 878 1025 l 1
 878 1098 l 1x8844
731 805 m 1x9008
 731 878 l 1
 512 878 l 1
 292 878 l 1
 292 659 l 1
 292 439 l 1xd448
 366 439 l 1
 439 439 l 1
 439 366 l 1
 439 293 l 1xd480
 366 293 l 1
 292 293 l 1
 292 220 l 1
 292 147 l 1
 585 147 l 1
 878 147 l 1
 878 440 l 1
 878 732 l 1
 805 732 l 1xc844
 731 732 l 1x9054
 731 805 l 1x9008
EndSplineSet
Validated: 5
EndChar

StartChar: ugrave
Encoding: 249 249 184
Width: 1170
VWidth: 0
Flags: HW
HStem: 1 146<292.571 731.721> 147 146<731.721 878.007> 1005 20G<146.286 292.571 878.007 1024.29> 1171 147<585.436 731.721> 1317 146<439.149 585.436>
VStem: 146 146<147.143 1024.56> 439 146<1317.43 1463.71> 585 146<1170.85 1317.43> 732 293<147.143 293.136> 878 146<0.857422 147.143 293.136 1024.56>
LayerCount: 2
Back
Fore
SplineSet
146 586 m 1x6480
 146 1025 l 1
 219 1025 l 1
 292 1025 l 1
 292 586 l 1
 292 147 l 1
 512 147 l 1
 731 147 l 1xa480
 731 220 l 1
 731 293 l 1x6480
 805 293 l 1
 878 293 l 1x6440
 878 659 l 1
 878 1025 l 1
 951 1025 l 1
 1025 1025 l 1
 1025 513 l 1
 1025 1 l 1
 951 1 l 1
 878 1 l 1xa440
 878 74 l 1
 878 147 l 1
 805 147 l 1x6440
 731 147 l 1
 731 74 l 1
 731 1 l 1
 512 1 l 1
 292 1 l 1
 292 74 l 1
 292 147 l 1xa480
 219 147 l 1
 146 147 l 1
 146 586 l 1x6480
439 1391 m 1x2e
 439 1463 l 1
 512 1463 l 1
 585 1463 l 1x2e
 585 1391 l 1
 585 1318 l 1x36
 659 1318 l 1
 731 1318 l 1
 731 1244 l 1
 731 1171 l 1
 659 1171 l 1
 585 1171 l 1
 585 1244 l 1x35
 585 1318 l 1x36
 512 1318 l 1
 439 1318 l 1
 439 1391 l 1x2e
EndSplineSet
Validated: 5
EndChar

StartChar: uacute
Encoding: 250 250 185
Width: 1170
VWidth: 0
Flags: HW
HStem: 1 146<292.571 731.721> 147 146<731.721 878.007> 1005 20G<146.286 292.571 878.007 1024.29> 1171 147<439.149 585.436> 1317 146<585.436 731.721>
VStem: 146 146<147.143 1024.56> 439 146<1170.85 1317.43> 585 146<1317.43 1463.71> 732 293<147.143 293.136> 878 146<0.857422 147.143 293.136 1024.56>
LayerCount: 2
Back
Fore
SplineSet
146 586 m 1x6480
 146 1025 l 1
 219 1025 l 1
 292 1025 l 1
 292 586 l 1
 292 147 l 1
 512 147 l 1
 731 147 l 1xa480
 731 220 l 1
 731 293 l 1x6480
 805 293 l 1
 878 293 l 1x6440
 878 659 l 1
 878 1025 l 1
 951 1025 l 1
 1025 1025 l 1
 1025 513 l 1
 1025 1 l 1
 951 1 l 1
 878 1 l 1xa440
 878 74 l 1
 878 147 l 1
 805 147 l 1x6440
 731 147 l 1
 731 74 l 1
 731 1 l 1
 512 1 l 1
 292 1 l 1
 292 74 l 1
 292 147 l 1xa480
 219 147 l 1
 146 147 l 1
 146 586 l 1x6480
585 1391 m 1x35
 585 1463 l 1
 659 1463 l 1
 731 1463 l 1
 731 1391 l 1
 731 1318 l 1
 659 1318 l 1x2d
 585 1318 l 1
 585 1244 l 1
 585 1171 l 1
 512 1171 l 1
 439 1171 l 1
 439 1244 l 1
 439 1318 l 1
 512 1318 l 1
 585 1318 l 1x36
 585 1391 l 1x35
EndSplineSet
Validated: 5
EndChar

StartChar: ucircumflex
Encoding: 251 251 186
Width: 1170
VWidth: 0
Flags: HW
HStem: 1 146<292.571 731.721> 147 146<731.721 878.007> 1005 20G<146.286 292.571 878.007 1024.29> 1171 147<292.571 439.149 731.721 878.007> 1317 146<439.149 731.721>
VStem: 146 146<147.143 1024.56> 293 147<1170.85 1317.43> 439 293<1317.43 1463.71> 732 146<1170.85 1317.43> 878 146<0.857422 147.143 293.136 1024.56>
LayerCount: 2
Back
Fore
SplineSet
146 586 m 1x64
 146 1025 l 1
 219 1025 l 1
 292 1025 l 1
 292 586 l 1
 292 147 l 1
 512 147 l 1
 732 147 l 1xa480
 732 220 l 1
 732 293 l 1x6480
 805 293 l 1
 878 293 l 1x6040
 878 659 l 1
 878 1025 l 1
 951 1025 l 1
 1024 1025 l 1
 1024 513 l 1
 1024 1 l 1
 951 1 l 1
 878 1 l 1xa040
 878 74 l 1
 878 147 l 1
 805 147 l 1x6040
 732 147 l 1
 732 74 l 1
 732 1 l 1
 512 1 l 1
 292 1 l 1
 292 74 l 1xa280
 292 147 l 1xa4
 219 147 l 1
 146 147 l 1
 146 586 l 1x64
440 1391 m 1x31
 440 1463 l 1
 585 1463 l 1
 732 1463 l 1x29
 732 1391 l 1
 732 1318 l 1x31
 805 1318 l 1
 878 1318 l 1
 878 1244 l 1
 878 1171 l 1
 805 1171 l 1
 732 1171 l 1
 732 1244 l 1x3080
 732 1318 l 1x31
 585 1318 l 1x29
 440 1318 l 1
 440 1244 l 1
 440 1171 l 1
 366 1171 l 1
 292 1171 l 1
 292 1244 l 1
 292 1318 l 1
 366 1318 l 1
 440 1318 l 1x32
 440 1391 l 1x31
EndSplineSet
Validated: 5
EndChar

